<?xml version="1.0" encoding="UTF-8"?>
<svg id="_圖層_8" data-name="圖層 8" xmlns="http://www.w3.org/2000/svg" viewBox="0 0 160 160">
  <path d="m79.51,91c-8.73,0-16.94-3.46-23.12-9.74-6.19-6.29-9.6-14.65-9.62-23.56h0c-.02-8.9,3.37-17.28,9.54-23.6,6.18-6.32,14.4-9.81,23.15-9.82h.06c8.74,0,16.95,3.46,23.13,9.74,6.19,6.29,9.6,14.66,9.62,23.56.03,18.39-14.64,33.37-32.7,33.41h-.06Zm.01-63.71h-.05c-7.94.01-15.4,3.18-21.01,8.92-5.62,5.75-8.7,13.38-8.69,21.49h0c.01,8.11,3.12,15.73,8.76,21.46,5.61,5.7,13.06,8.84,20.98,8.84h.05c16.41-.03,29.74-13.67,29.71-30.4-.01-8.12-3.12-15.74-8.75-21.47-5.61-5.71-13.07-8.85-21-8.85Z"/>
  <path d="m135.41,135.8H23.63v-1.5c0-24.56,25.07-44.54,55.89-44.54s55.89,19.98,55.89,44.54v1.5Zm-108.75-3h105.72c-1.01-22.22-24.33-40.04-52.86-40.04s-51.85,17.83-52.86,40.04Z"/>
</svg>