<?xml version="1.0" encoding="UTF-8"?>
<svg id="_圖層_8" data-name="圖層 8" xmlns="http://www.w3.org/2000/svg" viewBox="0 0 160 160">
  <path d="m89.15,135.49h-19.14v-9.06c-2.9-.59-5.73-1.47-8.44-2.61l1.16-2.77c2.89,1.21,5.93,2.11,9.04,2.66l1.24.22v8.56h13.14v-8.55l1.24-.22c4.27-.76,8.38-2.15,12.21-4.11l1.12-.58,5.18,6.89,10.52-7.87-5.23-6.98.83-.92c2.21-2.43,4.16-5.1,5.79-7.92l.63-1.09,8.31,3.05,4.54-12.33-8.48-3.13.21-1.23c.39-2.28.58-4.67.58-7.12,0-1.28-.06-2.61-.19-3.94l-.12-1.27,8.92-2.33-3.33-12.73-9.06,2.38-.54-1.11c-1.91-3.98-4.37-7.6-7.29-10.76l-.86-.93,5.82-7.55-10.41-8.03-5.88,7.63-1.11-.56c-3.89-1.98-7.99-3.36-12.18-4.1l-1.24-.22v-9.71h-3.63v-3h6.63v10.21c3.65.75,7.23,1.95,10.66,3.59l6.2-8.05,15.16,11.7-6.12,7.93c2.49,2.85,4.63,6.01,6.39,9.44l9.59-2.51,4.84,18.54-9.37,2.45c.07,1,.1,1.99.1,2.95,0,2.18-.15,4.32-.43,6.38l8.97,3.31-6.61,17.96-8.77-3.22c-1.38,2.26-2.96,4.41-4.7,6.42l5.56,7.41-15.33,11.46-5.47-7.27c-3.39,1.62-6.98,2.83-10.68,3.59v9.06Z"/>
  <path d="m79.58,103.3c-3.01,0-5.94-.56-8.69-1.67l1.12-2.78c2.39.96,4.94,1.45,7.57,1.45,11.29,0,20.48-9.19,20.48-20.48s-9.19-20.48-20.48-20.48v-3c12.95,0,23.48,10.53,23.48,23.48s-10.53,23.48-23.48,23.48Z"/>
  <path d="m55.74,135.3h-9.02c-1.67,0-3.04-1.41-3.04-3.13v-16.24h3v16.24c0,.09.04.13.05.14h9c.15,0,.32-.18.32-.44v-15.94h3v15.94c0,1.89-1.49,3.43-3.32,3.43Z"/>
  <path d="m51.37,118.53c-4.87,0-9.26-1.77-11.47-4.62-.96-1.24-.84-2.93-.32-3.98.47-.96,1.32-1.54,2.27-1.54h19.03c.95,0,1.8.58,2.27,1.54.52,1.05.64,2.75-.32,3.98-2.2,2.85-6.6,4.62-11.47,4.62Zm-9.15-7.14c-.06.22-.05.55.05.69,1.62,2.1,5.19,3.45,9.09,3.45s7.47-1.36,9.09-3.45c.1-.13.11-.46.05-.69h-18.29Z"/>
  <rect x="49.52" y="116.68" width="3" height="12.71" transform="translate(-80.39 144.8) rotate(-76.88)"/>
  <rect x="49.52" y="122.04" width="3" height="12.71" transform="translate(-85.61 148.94) rotate(-76.88)"/>
  <rect x="48.87" y="101.45" width="5" height="7.43"/>
  <path d="m38.35,94.64c-.83,0-1.5-.67-1.5-1.5v-4.08c0-.83.67-1.5,1.5-1.5s1.5.67,1.5,1.5v4.08c0,.83-.67,1.5-1.5,1.5Z"/>
  <path d="m64.12,94.64c-.83,0-1.5-.67-1.5-1.5v-4.08c0-.83.67-1.5,1.5-1.5s1.5.67,1.5,1.5v4.08c0,.83-.67,1.5-1.5,1.5Z"/>
  <path d="m38.77,101.82c-.7,0-1.33-.49-1.47-1.21l-.42-2.11c-.16-.81.36-1.6,1.18-1.77.81-.16,1.6.36,1.76,1.18l.42,2.11c.16.81-.36,1.6-1.18,1.77-.1.02-.2.03-.3.03Z"/>
  <path d="m63.84,101.82c-.07,0-.13,0-.2-.01-.82-.11-1.4-.86-1.29-1.68l.28-2.11c.11-.82.87-1.41,1.68-1.29.82.11,1.4.86,1.29,1.68l-.28,2.11c-.1.75-.74,1.3-1.48,1.3Z"/>
  <path d="m38.35,99.71c-.83,0-1.5-.67-1.5-1.5v-2.54c0-.83.67-1.5,1.5-1.5s1.5.67,1.5,1.5v2.54c0,.83-.67,1.5-1.5,1.5Z"/>
  <path d="m64.12,99.71c-.83,0-1.5-.67-1.5-1.5v-2.54c0-.83.67-1.5,1.5-1.5s1.5.67,1.5,1.5v2.54c0,.83-.67,1.5-1.5,1.5Z"/>
  <path d="m38.35,88.02c-.83,0-1.5-.67-1.5-1.5v-4.22c0-.83.67-1.5,1.5-1.5s1.5.67,1.5,1.5v4.22c0,.83-.67,1.5-1.5,1.5Z"/>
  <path d="m64.12,88.02c-.83,0-1.5-.67-1.5-1.5v-4.22c0-.83.67-1.5,1.5-1.5s1.5.67,1.5,1.5v4.22c0,.83-.67,1.5-1.5,1.5Z"/>
  <path d="m38.35,81.4c-.83,0-1.5-.67-1.5-1.5v-4.65c0-.83.67-1.5,1.5-1.5s1.5.67,1.5,1.5v4.65c0,.83-.67,1.5-1.5,1.5Z"/>
  <path d="m64.12,81.4c-.83,0-1.5-.67-1.5-1.5v-4.65c0-.83.67-1.5,1.5-1.5s1.5.67,1.5,1.5v4.65c0,.83-.67,1.5-1.5,1.5Z"/>
  <path d="m38.77,97.17c-.83,0-1.5-.67-1.5-1.5v-2.53c0-.83.67-1.5,1.5-1.5s1.5.67,1.5,1.5v2.53c0,.83-.67,1.5-1.5,1.5Z"/>
  <path d="m63.84,97.17c-.83,0-1.5-.67-1.5-1.5v-2.53c0-.83.67-1.5,1.5-1.5s1.5.67,1.5,1.5v2.53c0,.83-.67,1.5-1.5,1.5Z"/>
  <path d="m38.77,90.56c-.83,0-1.5-.67-1.5-1.5v-2.53c0-.83.67-1.5,1.5-1.5s1.5.67,1.5,1.5v2.53c0,.83-.67,1.5-1.5,1.5Z"/>
  <path d="m63.84,90.56c-.83,0-1.5-.67-1.5-1.5v-2.53c0-.83.67-1.5,1.5-1.5s1.5.67,1.5,1.5v2.53c0,.83-.67,1.5-1.5,1.5Z"/>
  <path d="m38.77,83.8c-.83,0-1.5-.67-1.5-1.5v-2.39c0-.83.67-1.5,1.5-1.5s1.5.67,1.5,1.5v2.39c0,.83-.67,1.5-1.5,1.5Z"/>
  <path d="m63.84,83.8c-.83,0-1.5-.67-1.5-1.5v-2.39c0-.83.67-1.5,1.5-1.5s1.5.67,1.5,1.5v2.39c0,.83-.67,1.5-1.5,1.5Z"/>
  <path d="m63.7,102.1h-.28c-.83,0-1.5-.67-1.5-1.5,0-.61.37-1.14.89-1.37.44-.42,1.12-.54,1.7-.25.74.37,1.04,1.27.67,2.01l-.14.28c-.25.51-.77.83-1.34.83Z"/>
  <path d="m39.05,102.1h-.14c-.57,0-1.09-.32-1.34-.83l-.14-.28c-.37-.74-.07-1.64.67-2.01.66-.33,1.44-.13,1.86.43.36.27.59.71.59,1.19,0,.83-.67,1.5-1.5,1.5Z"/>
  <path d="m77.5,47.19c-.11,0-.22-.01-.33-.04-.81-.18-1.32-.98-1.14-1.79l.55-2.46.27-2.45c.09-.82.85-1.42,1.66-1.33.82.09,1.42.83,1.33,1.66l-.28,2.53c0,.05-.02.11-.03.16l-.56,2.54c-.16.7-.77,1.17-1.46,1.17Z"/>
  <path d="m25.11,47.19c-.66,0-1.26-.44-1.44-1.1l-.7-2.54c-.03-.1-.05-.21-.05-.32l-.14-2.53c-.05-.83.59-1.53,1.42-1.58.84-.05,1.53.59,1.58,1.41l.13,2.37.66,2.38c.22.8-.25,1.62-1.04,1.85-.13.04-.27.06-.4.06Z"/>
  <path d="m24.27,42.12c-.83,0-1.5-.67-1.5-1.5v-5.35c0-.83.67-1.5,1.5-1.5s1.5.67,1.5,1.5v5.35c0,.83-.67,1.5-1.5,1.5Z"/>
  <path d="m78.34,42.12c-.83,0-1.5-.67-1.5-1.5v-5.35c0-.83.67-1.5,1.5-1.5s1.5.67,1.5,1.5v5.35c0,.83-.67,1.5-1.5,1.5Z"/>
  <path d="m34.27,75.63c-.63,0-1.22-.41-1.43-1.04l-9.15-28.44c-.25-.79.18-1.63.97-1.89.79-.25,1.63.18,1.89.97l9.15,28.44c.25.79-.18,1.63-.97,1.89-.15.05-.31.07-.46.07Z"/>
  <path d="m68.34,75.63c-.15,0-.31-.02-.46-.07-.79-.25-1.22-1.1-.97-1.89l9.15-28.44c.25-.79,1.1-1.22,1.89-.97.79.25,1.22,1.1.97,1.89l-9.15,28.44c-.2.64-.79,1.04-1.43,1.04Z"/>
  <path d="m66.65,76.76c-.7,0-1.33-.49-1.47-1.21-.16-.81.36-1.6,1.18-1.76l.37-.07.12-.09.29-.39c.5-.66,1.43-.8,2.1-.3.66.5.8,1.44.3,2.1l-.42.56c-.09.11-.19.22-.3.3l-.56.42c-.18.13-.39.23-.61.27l-.7.14c-.1.02-.2.03-.3.03Z"/>
  <path d="m35.82,76.76c-.12,0-.24-.01-.37-.05l-.56-.14c-.19-.05-.38-.13-.54-.25l-.56-.42c-.11-.09-.22-.19-.3-.3l-.42-.56c-.5-.66-.36-1.6.3-2.1.67-.5,1.6-.36,2.1.3l.29.39.15.11.27.07c.8.2,1.29,1.02,1.09,1.82-.17.68-.78,1.14-1.45,1.14Z"/>
  <path d="m76.43,36.77H25.96c-.83,0-1.5-.67-1.5-1.5s.67-1.5,1.5-1.5h50.46c.83,0,1.5.67,1.5,1.5s-.67,1.5-1.5,1.5Z"/>
  <path d="m24.27,36.77c-.83,0-1.5-.67-1.5-1.5v-9.21c0-.83.67-1.5,1.5-1.5s1.5.67,1.5,1.5v9.21c0,.83-.67,1.5-1.5,1.5Z"/>
  <path d="m78.48,36.77c-.83,0-1.5-.67-1.5-1.5v-9.21c0-.83.67-1.5,1.5-1.5s1.5.67,1.5,1.5v9.21c0,.83-.67,1.5-1.5,1.5Z"/>
  <path d="m62.15,76.76h-26.33c-.83,0-1.5-.67-1.5-1.5s.67-1.5,1.5-1.5h26.33c.83,0,1.5.67,1.5,1.5s-.67,1.5-1.5,1.5Z"/>
  <path d="m66.65,76.76h-4.51c-.83,0-1.5-.67-1.5-1.5s.67-1.5,1.5-1.5h4.51c.83,0,1.5.67,1.5,1.5s-.67,1.5-1.5,1.5Z"/>
  <path d="m62.73,103.38h-22.53c-.83,0-1.5-.67-1.5-1.5s.67-1.5,1.5-1.5h22.53c.83,0,1.5.67,1.5,1.5s-.67,1.5-1.5,1.5Z"/>
</svg>