<?xml version="1.0" encoding="UTF-8"?>
<svg id="_圖層_8" data-name="圖層 8" xmlns="http://www.w3.org/2000/svg" viewBox="0 0 160 160">
  <rect x="66.26" y="70.06" width="48.86" height="3"/>
  <rect x="66.26" y="81.77" width="48.86" height="3"/>
  <rect x="66.26" y="93.49" width="48.86" height="3"/>
  <path d="m123.11,114.84H58.26c-4.7,0-8.52-3.82-8.52-8.52V33.31c0-4.7,3.82-8.52,8.52-8.52h47.05l26.34,26.34v55.2c0,4.7-3.83,8.52-8.53,8.52ZM58.26,27.79c-3.04,0-5.52,2.48-5.52,5.52v73.02c0,3.04,2.48,5.52,5.52,5.52h64.86c3.05,0,5.53-2.48,5.53-5.52v-53.96l-24.58-24.58h-45.81Z"/>
  <path d="m116.11,121.77H51.25c-4.7,0-8.52-3.82-8.52-8.52V40.24h3v73.02c0,3.04,2.48,5.52,5.52,5.52h64.86v3Z"/>
  <path d="m130.13,52.85h-17.34c-5.47,0-9.92-4.45-9.92-9.91v-16.25h3v16.25c0,3.81,3.1,6.91,6.92,6.91h17.34v3Z"/>
  <path d="m109.14,128.75H44.28c-4.7,0-8.52-3.82-8.52-8.52V47.21h3v73.02c0,3.04,2.48,5.52,5.52,5.52h64.86v3Z"/>
  <path d="m102.2,135.53H37.34c-4.7,0-8.52-3.82-8.52-8.52V53.99h3v73.02c0,3.04,2.48,5.52,5.52,5.52h64.86v3Z"/>
</svg>