<?xml version="1.0" encoding="UTF-8"?>
<svg id="_圖層_8" class="nav-image" data-name="圖層 8" xmlns="http://www.w3.org/2000/svg" viewBox="0 0 160 160">
  <g>
    <path d="m93.19,131.94h-5.56v-3h2.58l.06-8.36,1.21-.23c2.17-.41,4.33-.99,6.4-1.73,1.14-.41,2.25-.88,3.38-1.41l1.16-.55,4.83,7.06,9.89-6.8-4.9-7.14.86-.88c2.85-2.91,5.24-6.18,7.1-9.74l.58-1.12,8.41,2.7,3.67-11.4-8.52-2.74.16-1.24c.52-3.93.44-7.94-.24-11.9l-.21-1.24,8.47-3.05-4.06-11.29-8.47,3.06-.63-1.09c-1.92-3.32-4.26-6.33-6.96-8.94l-.89-.87,4.91-7.44-10.03-6.61-4.86,7.41-1.17-.52c-2.65-1.18-5.44-2.06-8.31-2.62l-1.22-.24.06-8.72h-3.29v-3h6.31l-.06,9.27c2.24.51,4.44,1.2,6.55,2.07l5.12-7.81,15.05,9.91-5.2,7.89c2.24,2.3,4.23,4.86,5.94,7.64l8.94-3.23,6.1,16.94-8.95,3.22c.48,3.44.55,6.9.21,10.31l9.01,2.9-5.52,17.11-8.88-2.85c-1.7,3.03-3.77,5.86-6.16,8.44l5.21,7.59-14.84,10.2-5.09-7.44c-.82.36-1.64.69-2.48.99-1.84.66-3.73,1.2-5.65,1.61l-.06,8.89Z"/>
    <path d="m90.1,102.34l-.98-2.84c5.37-1.86,9.62-5.73,11.98-10.92,2.28-4.99,2.47-10.57.55-15.72-1.93-5.16-5.75-9.25-10.76-11.54-.62-.28-1.21-.52-1.77-.71l.97-2.84c.65.22,1.32.49,2.03.81,5.74,2.61,10.12,7.31,12.33,13.22,2.2,5.9,1.98,12.29-.63,18.01-2.7,5.94-7.58,10.39-13.73,12.51Z"/>
  </g>
  <g>
    <path d="m41.67,66.91h-4.37c-2.57,0-4.67-2.09-4.67-4.67v-4.87c0-2.57,2.09-4.67,4.67-4.67h4.37c2.57,0,4.67,2.09,4.67,4.67v4.87c0,2.57-2.09,4.67-4.67,4.67Zm-4.37-11.21c-.92,0-1.67.75-1.67,1.67v4.87c0,.92.75,1.67,1.67,1.67h4.37c.92,0,1.67-.75,1.67-1.67v-4.87c0-.92-.75-1.67-1.67-1.67h-4.37Z"/>
    <path d="m73.61,66.91h-19.77c-2.57,0-4.67-2.09-4.67-4.67v-4.87c0-2.57,2.09-4.67,4.67-4.67h19.77c2.57,0,4.67,2.09,4.67,4.67v4.87c0,2.57-2.09,4.67-4.67,4.67Zm-19.77-11.21c-.92,0-1.67.75-1.67,1.67v4.87c0,.92.75,1.67,1.67,1.67h19.77c.92,0,1.67-.75,1.67-1.67v-4.87c0-.92-.75-1.67-1.67-1.67h-19.77Z"/>
    <path d="m41.67,87.23h-4.37c-2.57,0-4.67-2.09-4.67-4.67v-4.87c0-2.57,2.09-4.67,4.67-4.67h4.37c2.57,0,4.67,2.09,4.67,4.67v4.87c0,2.57-2.09,4.67-4.67,4.67Zm-4.37-11.21c-.92,0-1.67.75-1.67,1.67v4.87c0,.92.75,1.67,1.67,1.67h4.37c.92,0,1.67-.75,1.67-1.67v-4.87c0-.92-.75-1.67-1.67-1.67h-4.37Z"/>
    <path d="m73.61,87.23h-19.77c-2.57,0-4.67-2.09-4.67-4.67v-4.87c0-2.57,2.09-4.67,4.67-4.67h19.77c2.57,0,4.67,2.09,4.67,4.67v4.87c0,2.57-2.09,4.67-4.67,4.67Zm-19.77-11.21c-.92,0-1.67.75-1.67,1.67v4.87c0,.92.75,1.67,1.67,1.67h19.77c.92,0,1.67-.75,1.67-1.67v-4.87c0-.92-.75-1.67-1.67-1.67h-19.77Z"/>
    <path d="m41.67,107.54h-4.37c-2.57,0-4.67-2.09-4.67-4.67v-4.87c0-2.57,2.09-4.67,4.67-4.67h4.37c2.57,0,4.67,2.09,4.67,4.67v4.87c0,2.57-2.09,4.67-4.67,4.67Zm-4.37-11.21c-.92,0-1.67.75-1.67,1.67v4.87c0,.92.75,1.67,1.67,1.67h4.37c.92,0,1.67-.75,1.67-1.67v-4.87c0-.92-.75-1.67-1.67-1.67h-4.37Z"/>
    <path d="m73.61,107.54h-19.77c-2.57,0-4.67-2.09-4.67-4.67v-4.87c0-2.57,2.09-4.67,4.67-4.67h19.77c2.57,0,4.67,2.09,4.67,4.67v4.87c0,2.57-2.09,4.67-4.67,4.67Zm-19.77-11.21c-.92,0-1.67.75-1.67,1.67v4.87c0,.92.75,1.67,1.67,1.67h19.77c.92,0,1.67-.75,1.67-1.67v-4.87c0-.92-.75-1.67-1.67-1.67h-19.77Z"/>
  </g>
  <path d="m79.78,134.89H31.13c-4.16,0-7.54-3.38-7.54-7.54V32.89c0-4.16,3.38-7.54,7.54-7.54h48.65c4.16,0,7.54,3.38,7.54,7.54v94.47c0,4.16-3.38,7.54-7.54,7.54ZM31.13,28.35c-2.5,0-4.54,2.04-4.54,4.54v94.47c0,2.5,2.04,4.54,4.54,4.54h48.65c2.5,0,4.54-2.04,4.54-4.54V32.89c0-2.5-2.04-4.54-4.54-4.54H31.13Z"/>
</svg>