<?xml version="1.0" encoding="UTF-8"?>
<svg id="_圖層_8" data-name="圖層 8" xmlns="http://www.w3.org/2000/svg" viewBox="0 0 160 160">
  <path d="m136.13,135.26H23.87c-.83,0-1.5-.67-1.5-1.5V26.24c0-.83.67-1.5,1.5-1.5s1.5.67,1.5,1.5v106.02h110.76c.83,0,1.5.67,1.5,1.5s-.67,1.5-1.5,1.5Z"/>
  <path d="m37.15,98.85c-5.7,0-10.33-4.63-10.33-10.33s4.63-10.33,10.33-10.33,10.33,4.63,10.33,10.33-4.63,10.33-10.33,10.33Zm0-17.66c-4.04,0-7.33,3.29-7.33,7.33s3.29,7.33,7.33,7.33,7.33-3.29,7.33-7.33-3.29-7.33-7.33-7.33Z"/>
  <path d="m66.54,70.15c-5.7,0-10.33-4.63-10.33-10.33s4.63-10.33,10.33-10.33,10.33,4.63,10.33,10.33-4.63,10.33-10.33,10.33Zm0-17.66c-4.04,0-7.33,3.29-7.33,7.33s3.29,7.33,7.33,7.33,7.33-3.29,7.33-7.33-3.29-7.33-7.33-7.33Z"/>
  <path d="m95.92,122.34c-5.7,0-10.33-4.63-10.33-10.33s4.63-10.33,10.33-10.33,10.33,4.63,10.33,10.33-4.63,10.33-10.33,10.33Zm0-17.66c-4.04,0-7.33,3.29-7.33,7.33s3.29,7.33,7.33,7.33,7.33-3.29,7.33-7.33-3.29-7.33-7.33-7.33Z"/>
  <path d="m125.3,62.32c-5.7,0-10.33-4.63-10.33-10.33s4.63-10.33,10.33-10.33,10.33,4.63,10.33,10.33-4.63,10.33-10.33,10.33Zm0-17.66c-4.04,0-7.33,3.29-7.33,7.33s3.29,7.33,7.33,7.33,7.33-3.29,7.33-7.33-3.29-7.33-7.33-7.33Z"/>
  <path d="m44.25,84.79c-.33,0-.66-.11-.94-.33-.65-.52-.75-1.46-.23-2.11l14.93-18.59c.52-.65,1.46-.75,2.11-.23.65.52.75,1.46.23,2.11l-14.93,18.59c-.3.37-.73.56-1.17.56Z"/>
  <path d="m91.75,105.73c-.52,0-1.03-.27-1.31-.76l-20.85-36.73c-.41-.72-.16-1.64.56-2.05.72-.41,1.64-.16,2.04.56l20.85,36.73c.41.72.16,1.64-.56,2.04-.23.13-.49.2-.74.2Z"/>
  <path d="m99.34,105.17c-.23,0-.45-.05-.67-.16-.74-.37-1.04-1.27-.67-2.01l21.88-43.85c.37-.74,1.27-1.04,2.01-.67.74.37,1.04,1.27.67,2.01l-21.88,43.85c-.26.53-.79.83-1.34.83Z"/>
</svg>