<?xml version="1.0" encoding="UTF-8"?>
<svg id="_圖層_8" data-name="圖層 8" xmlns="http://www.w3.org/2000/svg" viewBox="0 0 160 160">
  <g>
    <path d="m43.61,114.55c-9.33,0-16.92-7.44-16.94-16.59,0-4.45,1.75-8.63,4.96-11.78,3.19-3.14,7.44-4.87,11.96-4.88h.03c9.33,0,16.93,7.44,16.94,16.6,0,4.45-1.75,8.63-4.96,11.77-3.19,3.14-7.44,4.87-11.96,4.88h-.03Zm-13.94-16.6c.01,7.5,6.26,13.6,13.94,13.6h.02c3.73,0,7.24-1.43,9.87-4.02,2.62-2.58,4.06-6,4.06-9.63-.01-7.51-6.27-13.61-13.94-13.61h-.02c-3.73,0-7.23,1.43-9.86,4.02-2.62,2.58-4.06,6-4.06,9.63Z"/>
    <path d="m60.56,136.15H26.67v-1.5c0-12.74,7.6-23.11,16.95-23.11s16.94,10.37,16.94,23.11v1.5Zm-30.85-3h27.81c-.53-10.39-6.57-18.61-13.91-18.61s-13.37,8.22-13.91,18.61Z"/>
    <path d="m79.99,114.55c-9.33,0-16.92-7.44-16.94-16.59h0c0-4.45,1.75-8.63,4.95-11.78,3.19-3.14,7.44-4.87,11.96-4.88h.03c9.33,0,16.93,7.44,16.95,16.6,0,4.45-1.75,8.63-4.96,11.77-3.19,3.14-7.44,4.87-11.96,4.88h-.03Zm0-30.25h-.02c-3.73,0-7.23,1.43-9.86,4.02-2.62,2.58-4.06,6-4.06,9.63h0c.01,7.5,6.26,13.6,13.94,13.6h.02c3.73,0,7.24-1.43,9.87-4.02,2.62-2.58,4.06-6,4.06-9.63-.01-7.51-6.27-13.61-13.95-13.61Z"/>
    <path d="m96.95,136.15h-33.89v-1.5c0-12.74,7.6-23.11,16.94-23.11s16.95,10.37,16.95,23.11v1.5Zm-30.85-3h27.81c-.53-10.39-6.57-18.61-13.91-18.61s-13.37,8.22-13.91,18.61Z"/>
    <path d="m116.38,114.55c-9.33,0-16.92-7.44-16.94-16.59,0-4.45,1.75-8.63,4.95-11.78,3.19-3.14,7.44-4.87,11.96-4.88h.03c9.33,0,16.93,7.44,16.94,16.6,0,4.45-1.75,8.63-4.96,11.77-3.19,3.14-7.44,4.87-11.96,4.88h-.03Zm-13.94-16.6c.01,7.5,6.26,13.6,13.94,13.6h.02c3.73,0,7.24-1.43,9.87-4.02,2.62-2.58,4.06-6,4.06-9.63-.01-7.51-6.27-13.61-13.94-13.61h-.02c-3.73,0-7.23,1.43-9.86,4.02-2.62,2.58-4.06,6-4.06,9.63Z"/>
    <path d="m133.33,136.15h-33.89v-1.5c0-12.74,7.6-23.11,16.95-23.11s16.94,10.37,16.94,23.11v1.5Zm-30.85-3h27.81c-.53-10.39-6.57-18.61-13.91-18.61s-13.37,8.22-13.91,18.61Z"/>
  </g>
  <g>
    <path d="m131.28,79.9h-3v-9.66l-8.28-.06-.23-1.22c-.4-2.16-.98-4.29-1.71-6.33-.41-1.13-.87-2.23-1.39-3.34l-.54-1.15,6.97-4.78-6.7-9.76-7.07,4.86-.88-.87c-2.86-2.81-6.1-5.17-9.63-7.03l-1.12-.59,2.67-8.32-11.26-3.63-2.7,8.42-1.24-.16c-3.91-.5-7.87-.42-11.77.24l-1.24.21-3.01-8.37-11.14,4.01,3.02,8.38-1.09.63c-3.27,1.88-6.24,4.19-8.83,6.88l-.87.9-7.37-4.86-6.52,9.89,7.33,4.81-.51,1.16c-1.16,2.63-2.04,5.4-2.6,8.22l-.24,1.22-8.61-.07v10.36h-3v-13.38l9.17.07c.51-2.2,1.19-4.36,2.04-6.45l-7.73-5.08,9.83-14.91,7.81,5.15c2.27-2.22,4.8-4.18,7.53-5.86l-3.19-8.86,16.78-6.04,3.19,8.85c3.38-.47,6.79-.54,10.17-.21l2.86-8.92,16.97,5.47-2.82,8.78c3,1.69,5.8,3.73,8.33,6.08l7.52-5.17,10.1,14.71-7.36,5.04c.35.8.67,1.61.97,2.43.65,1.81,1.18,3.68,1.59,5.58l8.8.06v12.63Z"/>
    <path d="m57.39,83.97c-1.39-5.19-.93-10.75,1.3-15.66,2.58-5.67,7.22-10,13.07-12.19,5.84-2.19,12.19-1.97,17.86.61,10.41,4.74,15.83,16.19,12.89,27.23l-2.9-.77c2.56-9.62-2.17-19.6-11.24-23.73-4.94-2.25-10.47-2.44-15.56-.54-5.09,1.91-9.14,5.68-11.39,10.62-1.97,4.34-2.37,9.05-1.14,13.63l-2.9.78Z"/>
  </g>
</svg>