<svg width="40" height="40" viewBox="0 0 40 40" fill="none" xmlns="http://www.w3.org/2000/svg">
<path d="M21 16C18.7948 16 17 14.4295 17 12.5C17 10.5705 18.7948 9 21 9C23.2052 9 25 10.5705 25 12.5C25 14.4295 23.2052 16 21 16ZM21 10.0845C19.4788 10.0845 18.2435 11.1689 18.2435 12.4964C18.2435 13.8238 19.4829 14.9083 21 14.9083C22.5171 14.9083 23.7565 13.8275 23.7565 12.4964C23.7565 11.1653 22.5171 10.0845 21 10.0845Z" fill="white" stroke="white" style="fill:white;fill-opacity:1;stroke:white;stroke-opacity:1;"/>
<path d="M36.4633 10.3811H23.6903V11.3909H36.4633V10.3811Z" fill="white" stroke="white" style="fill:white;fill-opacity:1;stroke:white;stroke-opacity:1;"/>
<path d="M36.4633 12.8318H23.6903V13.8416H36.4633V12.8318Z" fill="white" stroke="white" style="fill:white;fill-opacity:1;stroke:white;stroke-opacity:1;"/>
<path d="M18.293 11.0391L9.28632 17.0449L9.85607 17.8825L18.8628 11.8767L18.293 11.0391Z" fill="white" stroke="white" style="fill:white;fill-opacity:1;stroke:white;stroke-opacity:1;"/>
<path d="M20.4738 14.4504L12.1451 20.4812L12.7472 21.2963L21.0759 15.2655L20.4738 14.4504Z" fill="white" stroke="white" style="fill:white;fill-opacity:1;stroke:white;stroke-opacity:1;"/>
<path d="M26 35L13.8086 34.8746L3 26.8119L3.61686 26.0264L14.1577 33.8878L22.4243 33.9736L10.8124 26.835L11.3547 26L26 35Z" fill="white" stroke="white" style="fill:white;fill-opacity:1;stroke:white;stroke-opacity:1;"/>
<path d="M7 25C5.34317 25 4 23.8776 4 22.5C4 21.1224 5.34686 20 7 20C8.65314 20 10 21.1224 10 22.5C10 23.8776 8.65314 25 7 25ZM7 20.9194C5.95572 20.9194 5.10701 21.6267 5.10701 22.4969C5.10701 23.3672 5.95572 24.0744 7 24.0744C8.04428 24.0744 8.89299 23.3672 8.89299 22.4969C8.89299 21.6267 8.04428 20.9194 7 20.9194Z" fill="white" stroke="white" style="fill:white;fill-opacity:1;stroke:white;stroke-opacity:1;"/>
<path d="M7 28C3.69162 28 1 25.5327 1 22.5C1 19.4673 3.69162 17 7 17C10.3084 17 13 19.4673 13 22.5C13 25.5327 10.3084 28 7 28ZM7 17.9218C4.24469 17.9218 2.00559 19.9743 2.00559 22.5C2.00559 25.0257 4.24469 27.0782 7 27.0782C9.75531 27.0782 11.9944 25.0257 11.9944 22.5C11.9944 19.9743 9.75531 17.9218 7 17.9218Z" fill="white" stroke="white" style="fill:white;fill-opacity:1;stroke:white;stroke-opacity:1;"/>
<path d="M31 38H6V34H31V38ZM7.00712 36.9601H29.9929V35.0399H7.00712V36.9601Z" fill="white" stroke="white" style="fill:white;fill-opacity:1;stroke:white;stroke-opacity:1;"/>
<path d="M37 23H32V11H37V23ZM33.0753 22.2408H35.9247V11.7592H33.0753V22.2408Z" fill="white" style="fill:white;fill-opacity:1;"/>
<path d="M35 28H34V29H35V28Z" fill="white" style="fill:white;fill-opacity:1;"/>
<path d="M33.0725 11L32 10.9742L32.0968 8H36.9067L37 10.9742L35.924 11L35.8594 8.9667H33.1406L33.0725 11Z" fill="white" style="fill:white;fill-opacity:1;"/>
<path d="M33.5 27C33.2233 27 33 26.8255 33 26.6094V26.3906C33 26.1745 33.2233 26 33.5 26C33.7767 26 34 26.1745 34 26.3906V26.6094C34 26.8255 33.7767 27 33.5 27Z" fill="white" style="fill:white;fill-opacity:1;"/>
<path d="M35.5 27C35.2233 27 35 26.8255 35 26.6094V26.3906C35 26.1745 35.2233 26 35.5 26C35.7767 26 36 26.1745 36 26.3906V26.6094C36 26.8255 35.7767 27 35.5 27Z" fill="white" style="fill:white;fill-opacity:1;"/>
<path d="M33.5146 28C33.2879 28 33.0838 27.8575 33.0385 27.6511L33.0094 27.5231C32.9575 27.2876 33.1259 27.0578 33.3883 27.0084C33.6506 26.9619 33.9064 27.1131 33.9615 27.3486L33.9906 27.4766C34.0425 27.7121 33.8741 27.9418 33.6117 27.9913C33.5793 27.9971 33.547 28 33.5146 28Z" fill="white" style="fill:white;fill-opacity:1;"/>
<path d="M35.4902 28C35.4674 28 35.4478 28 35.425 27.9971C35.1576 27.9651 34.9685 27.7444 35.0044 27.5063L35.0239 27.3785C35.0598 27.1404 35.3011 26.9719 35.575 27.0039C35.8424 27.0358 36.0315 27.2565 35.9956 27.4947L35.9761 27.6225C35.9435 27.8403 35.7315 28 35.4935 28H35.4902Z" fill="white" style="fill:white;fill-opacity:1;"/>
<path d="M33.5 28C33.2233 28 33 27.6193 33 27.1477V26.8523C33 26.3807 33.2233 26 33.5 26C33.7767 26 34 26.3807 34 26.8523V27.1477C34 27.6193 33.7767 28 33.5 28Z" fill="white" style="fill:white;fill-opacity:1;"/>
<path d="M35.5 28C35.2233 28 35 27.6193 35 27.1477V26.8523C35 26.3807 35.2233 26 35.5 26C35.7767 26 36 26.3807 36 26.8523V27.1477C36 27.6193 35.7767 28 35.5 28Z" fill="white" style="fill:white;fill-opacity:1;"/>
<path d="M33.5 27C33.2233 27 33 26.6537 33 26.2248V25.7752C33 25.3463 33.2233 25 33.5 25C33.7767 25 34 25.3463 34 25.7752V26.2248C34 26.6537 33.7767 27 33.5 27Z" fill="white" style="fill:white;fill-opacity:1;"/>
<path d="M35.5 27C35.2233 27 35 26.6537 35 26.2248V25.7752C35 25.3463 35.2233 25 35.5 25C35.7767 25 36 25.3463 36 25.7752V26.2248C36 26.6537 35.7767 27 35.5 27Z" fill="white" style="fill:white;fill-opacity:1;"/>
<path d="M33.5 26C33.2233 26 33 25.8308 33 25.6212V25.3788C33 25.1692 33.2233 25 33.5 25C33.7767 25 34 25.1692 34 25.3788V25.6212C34 25.8308 33.7767 26 33.5 26Z" fill="white" style="fill:white;fill-opacity:1;"/>
<path d="M35.5 26C35.2233 26 35 25.8308 35 25.6212V25.3788C35 25.1692 35.2233 25 35.5 25C35.7767 25 36 25.1692 36 25.3788V25.6212C36 25.8308 35.7767 26 35.5 26Z" fill="white" style="fill:white;fill-opacity:1;"/>
<path d="M33.5 27C33.2233 27 33 26.8097 33 26.5739V26.4261C33 26.1903 33.2233 26 33.5 26C33.7767 26 34 26.1903 34 26.4261V26.5739C34 26.8097 33.7767 27 33.5 27Z" fill="white" style="fill:white;fill-opacity:1;"/>
<path d="M35.5 27C35.2233 27 35 26.8097 35 26.5739V26.4261C35 26.1903 35.2233 26 35.5 26C35.7767 26 36 26.1903 36 26.4261V26.5739C36 26.8097 35.7767 27 35.5 27Z" fill="white" style="fill:white;fill-opacity:1;"/>
<path d="M33.5 27C33.2233 27 33 26.8097 33 26.5739V26.4261C33 26.1903 33.2233 26 33.5 26C33.7767 26 34 26.1903 34 26.4261V26.5739C34 26.8097 33.7767 27 33.5 27Z" fill="white" style="fill:white;fill-opacity:1;"/>
<path d="M35.5 27C35.2233 27 35 26.8097 35 26.5739V26.4261C35 26.1903 35.2233 26 35.5 26C35.7767 26 36 26.1903 36 26.4261V26.5739C36 26.8097 35.7767 27 35.5 27Z" fill="white" style="fill:white;fill-opacity:1;"/>
<path d="M33.5 27C33.2233 27 33 26.616 33 26.1404V25.8596C33 25.384 33.2233 25 33.5 25C33.7767 25 34 25.384 34 25.8596V26.1404C34 26.616 33.7767 27 33.5 27Z" fill="white" style="fill:white;fill-opacity:1;"/>
<path d="M35.5 27C35.2233 27 35 26.616 35 26.1404V25.8596C35 25.384 35.2233 25 35.5 25C35.7767 25 36 25.384 36 25.8596V26.1404C36 26.616 35.7767 27 35.5 27Z" fill="white" style="fill:white;fill-opacity:1;"/>
<path d="M35.5012 28C35.2293 28 35 27.7787 35 27.5045C35 27.2666 35.1572 27.0684 35.3767 27.0189C35.4913 26.9858 35.6158 26.9958 35.7272 27.0519C35.9696 27.1774 36.0711 27.4648 35.9467 27.7093C35.8615 27.8745 35.6846 28 35.4979 28H35.5012Z" fill="white" style="fill:white;fill-opacity:1;"/>
<path d="M33.5097 28C33.3208 28 33.1386 27.8914 33.0525 27.7236C32.9299 27.4801 33.0293 27.1741 33.2745 27.0523C33.5031 26.9404 33.7747 27.0128 33.9105 27.2234C33.9669 27.3024 34 27.4011 34 27.5064C34 27.7795 33.7813 28 33.5064 28H33.5097Z" fill="white" style="fill:white;fill-opacity:1;"/>
<path d="M36.4729 24C36.4383 24 36.4038 23.9975 36.3693 23.9901C36.115 23.9456 35.9548 23.748 36.0113 23.5478L36.0584 23.3304C36.0867 23.1278 36.3159 22.982 36.5796 23.0018C36.8371 23.024 37.0255 23.2069 36.9972 23.4119L36.9784 23.5404C36.9784 23.5528 36.9721 23.5676 36.9689 23.58L36.9313 23.7084C36.881 23.8814 36.6864 23.9975 36.4729 23.9975V24Z" fill="white" style="fill:white;fill-opacity:1;"/>
<path d="M32.5264 23.9975C32.3186 23.9975 32.1297 23.8914 32.073 23.726L32.0258 23.5976C32.0163 23.5729 32.01 23.5458 32.01 23.5186L32.0006 23.3903C31.988 23.1854 32.1863 23.0126 32.4477 23.0003C32.709 22.9929 32.9294 23.1459 32.9451 23.3508L32.9514 23.4396L32.9829 23.531C33.0522 23.7285 32.9042 23.9309 32.6555 23.9877C32.6145 23.9975 32.5705 24 32.5295 24L32.5264 23.9975Z" fill="white" style="fill:white;fill-opacity:1;"/>
<path d="M32.5 24C32.2233 24 32 23.6732 32 23.2683V22.7317C32 22.3268 32.2233 22 32.5 22C32.7767 22 33 22.3268 33 22.7317V23.2683C33 23.6732 32.7767 24 32.5 24Z" fill="white" style="fill:white;fill-opacity:1;"/>
<path d="M36.5 24C36.2233 24 36 23.6732 36 23.2683V22.7317C36 22.3268 36.2233 22 36.5 22C36.7767 22 37 22.3268 37 22.7317V23.2683C37 23.6732 36.7767 24 36.5 24Z" fill="white" style="fill:white;fill-opacity:1;"/>
<path d="M33.3851 26C33.127 26 32.8853 25.8646 32.7993 25.6479L32.0291 23.6639C31.9267 23.3965 32.1029 23.1121 32.4265 23.0241C32.7501 22.9394 33.0942 23.085 33.2007 23.3525L33.9709 25.3364C34.0733 25.6039 33.8971 25.8883 33.5735 25.9763C33.5121 25.9932 33.4465 26 33.3851 26Z" fill="white" style="fill:white;fill-opacity:1;"/>
<path d="M35.6149 26C35.5535 26 35.4879 25.9932 35.4265 25.9763C35.1028 25.8917 34.9267 25.6039 35.0291 25.3364L35.7993 23.3525C35.9017 23.085 36.2499 22.9394 36.5735 23.0241C36.8971 23.1087 37.0733 23.3965 36.9709 23.6639L36.2007 25.6479C36.1188 25.8646 35.8771 26 35.6149 26Z" fill="white" style="fill:white;fill-opacity:1;"/>
<path d="M36.4994 25.9967C36.3189 25.9967 36.1416 25.9005 36.0563 25.728C35.9315 25.4826 36.0202 25.1874 36.2631 25.0647L36.2828 25.0547C36.5257 24.9287 36.8211 25.0282 36.9459 25.2736C37.0706 25.5191 36.9721 25.8176 36.7292 25.9436C36.657 25.9801 36.5782 26 36.4994 26V25.9967Z" fill="white" style="fill:white;fill-opacity:1;"/>
<path d="M35.448 25.9969C35.2385 25.9969 35.05 25.8425 35.0081 25.6233C34.9692 25.4134 35.0739 25.2065 35.2535 25.117C35.4091 24.9719 35.6486 24.9596 35.8222 25.0923C36.0197 25.2467 36.0586 25.5369 35.909 25.7407L35.882 25.7777C35.8581 25.8117 35.8282 25.8425 35.7952 25.8672L35.7593 25.895C35.7054 25.9383 35.6426 25.966 35.5738 25.9815L35.5318 25.9907C35.5019 25.9969 35.475 26 35.4451 26L35.448 25.9969Z" fill="white" style="fill:white;fill-opacity:1;"/>
<path d="M33.5527 26C33.5165 26 33.4803 25.9969 33.4442 25.9876L33.408 25.9784C33.3478 25.9629 33.2905 25.9351 33.2423 25.898L33.2061 25.8701C33.173 25.8454 33.1429 25.8145 33.1188 25.7805L33.0917 25.7434C32.941 25.5393 32.9802 25.2486 33.179 25.094C33.3568 24.9549 33.6069 24.9734 33.7636 25.128C33.9383 25.227 34.0378 25.4372 33.9865 25.6444C33.9353 25.8578 33.7515 25.9969 33.5466 25.9969L33.5527 26Z" fill="white" style="fill:white;fill-opacity:1;"/>
<path d="M33.5145 28C33.3918 28 33.2658 27.9514 33.1721 27.8575L33.143 27.8284C32.9523 27.6374 32.9523 27.3298 33.143 27.142C33.3336 26.9543 33.6406 26.951 33.8279 27.142L33.857 27.1712C34.0477 27.3622 34.0477 27.6698 33.857 27.8575C33.7633 27.9514 33.6373 28 33.5145 28Z" fill="white" style="fill:white;fill-opacity:1;"/>
<path d="M34.4824 28C34.3381 28 34.1938 27.9321 34.0975 27.8061C33.9372 27.5928 33.9789 27.289 34.1905 27.1274L34.229 27.0983C34.4407 26.9367 34.7421 26.9787 34.9025 27.192C35.0628 27.4053 35.0211 27.7091 34.8095 27.8707L34.771 27.8998C34.6844 27.9644 34.5818 27.9968 34.4824 27.9968V28Z" fill="white" style="fill:white;fill-opacity:1;"/>
<path d="M35.5868 26H33.4132C33.1846 26 33 25.7767 33 25.5C33 25.2233 33.1846 25 33.4132 25H35.5868C35.8154 25 36 25.2233 36 25.5C36 25.7767 35.8154 26 35.5868 26Z" fill="white" style="fill:white;fill-opacity:1;"/>
<path d="M36.3506 26H35.6494C35.29 26 35 25.7767 35 25.5C35 25.2233 35.29 25 35.6494 25H36.3506C36.71 25 37 25.2233 37 25.5C37 25.7767 36.71 26 36.3506 26Z" fill="white" style="fill:white;fill-opacity:1;"/>
<path d="M33.3506 26H32.6494C32.29 26 32 25.7767 32 25.5C32 25.2233 32.29 25 32.6494 25H33.3506C33.71 25 34 25.2233 34 25.5C34 25.7767 33.71 26 33.3506 26Z" fill="white" style="fill:white;fill-opacity:1;"/>
<path d="M35.4656 26H33.5344C33.2387 26 33 25.7767 33 25.5C33 25.2233 33.2387 25 33.5344 25H35.4656C35.7613 25 36 25.2233 36 25.5C36 25.7767 35.7613 26 35.4656 26Z" fill="white" style="fill:white;fill-opacity:1;"/>
<path d="M35.6183 26H35.3817C35.1705 26 35 25.7767 35 25.5C35 25.2233 35.1705 25 35.3817 25H35.6183C35.8295 25 36 25.2233 36 25.5C36 25.7767 35.8295 26 35.6183 26Z" fill="white" style="fill:white;fill-opacity:1;"/>
<path d="M34.6815 28H34.3185C34.1423 28 34 27.7767 34 27.5C34 27.2233 34.1423 27 34.3185 27H34.6815C34.8577 27 35 27.2233 35 27.5C35 27.7767 34.8577 28 34.6815 28Z" fill="white" style="fill:white;fill-opacity:1;"/>
<path d="M34.3631 28H33.6369C33.2845 28 33 27.7767 33 27.5C33 27.2233 33.2845 27 33.6369 27H34.3631C34.7155 27 35 27.2233 35 27.5C35 27.7767 34.7155 28 34.3631 28Z" fill="white" style="fill:white;fill-opacity:1;"/>
<path d="M34.3506 28H33.6494C33.29 28 33 27.7767 33 27.5C33 27.2233 33.29 27 33.6494 27H34.3506C34.71 27 35 27.2233 35 27.5C35 27.7767 34.71 28 34.3506 28Z" fill="white" style="fill:white;fill-opacity:1;"/>
<path d="M34.6732 28H34.3268C34.146 28 34 27.7767 34 27.5C34 27.2233 34.146 27 34.3268 27H34.6732C34.854 27 35 27.2233 35 27.5C35 27.7767 34.854 28 34.6732 28Z" fill="white" style="fill:white;fill-opacity:1;"/>
<path d="M35.6287 26H35.3713C35.1658 26 35 25.7767 35 25.5C35 25.2233 35.1658 25 35.3713 25H35.6287C35.8342 25 36 25.2233 36 25.5C36 25.7767 35.8342 26 35.6287 26Z" fill="white" style="fill:white;fill-opacity:1;"/>
<path d="M35.4983 26H33.5017C33.2241 26 33 25.7767 33 25.5C33 25.2233 33.2241 25 33.5017 25H35.4983C35.7759 25 36 25.2233 36 25.5C36 25.7767 35.7759 26 35.4983 26Z" fill="white" style="fill:white;fill-opacity:1;"/>
<path d="M37.5426 14H37.4574C37.2048 14 37 14.1178 37 14.263V18.737C37 18.8822 37.2048 19 37.4574 19H37.5426C37.7952 19 38 18.8822 38 18.737V14.263C38 14.1178 37.7952 14 37.5426 14Z" fill="white" style="fill:white;fill-opacity:1;"/>
<path d="M37.4552 14H32.5448C32.2433 14 32 13.7767 32 13.5C32 13.2233 32.2433 13 32.5448 13H37.4552C37.7567 13 38 13.2233 38 13.5C38 13.7767 37.7567 14 37.4552 14Z" fill="white" style="fill:white;fill-opacity:1;"/>
<path d="M35.0635 8L35.0291 4.13208H33.974L33.9365 8L33 7.98491L33.0499 3H35.9532L36 7.98491L35.0635 8Z" fill="white" style="fill:white;fill-opacity:1;"/>
<path d="M35 1H34V4H35V1Z" fill="white" style="fill:white;fill-opacity:1;"/>
</svg>
