<?xml version="1.0" encoding="UTF-8"?>
<svg id="_圖層_4" data-name="圖層 4" xmlns="http://www.w3.org/2000/svg" viewBox="0 0 160 160">
  <defs>
    <style>
      .cls-1 {
        stroke-width: 1.5px;
      }

      .cls-1, .cls-2, .cls-3, .cls-4, .cls-5, .cls-6 {
        fill: none;
      }

      .cls-1, .cls-3, .cls-4 {
        stroke-miterlimit: 10;
      }

      .cls-1, .cls-3, .cls-4, .cls-5, .cls-6 {
        stroke: #000;
      }

      .cls-2 {
        stroke: #231815;
        stroke-width: .16px;
      }

      .cls-2, .cls-5, .cls-6 {
        stroke-linecap: round;
        stroke-linejoin: round;
      }

      .cls-3, .cls-5 {
        stroke-width: 3px;
      }

      .cls-4 {
        stroke-width: 2.5px;
      }

      .cls-6 {
        stroke-width: 2px;
      }
    </style>
  </defs>
  <circle class="cls-3" cx="82.99" cy="57.61" r="7.41"/>
  <g>
    <line class="cls-3" x1="89.6" y1="54.3" x2="113.17" y2="54.3"/>
    <line class="cls-3" x1="89.6" y1="60.91" x2="113.17" y2="60.91"/>
  </g>
  <line class="cls-3" x1="75.94" y1="55.84" x2="51.87" y2="72.06"/>
  <line class="cls-3" x1="81.81" y1="65.01" x2="59.55" y2="81.29"/>
  <polyline class="cls-3" points="34.8 96.04 63.41 117.96 90.84 118.25 55.64 96.04"/>
  <circle class="cls-3" cx="45.22" cy="85.39" r="6.03"/>
  <circle class="cls-3" cx="45.22" cy="85.39" r="14.9"/>
  <rect class="cls-3" x="44.28" y="118.35" width="59.47" height="7.76"/>
  <rect class="cls-4" x="102.51" y="54.3" width="9.95" height="40.35"/>
  <line class="cls-1" x1="107.44" y1="110.31" x2="107.44" y2="107.91"/>
  <polyline class="cls-4" points="112.45 53.43 112.25 46.37 102.71 46.37 102.51 53.43"/>
  <g>
    <g>
      <line class="cls-2" x1="105.03" y1="105.12" x2="105.03" y2="105.89"/>
      <line class="cls-2" x1="109.85" y1="105.89" x2="109.85" y2="105.12"/>
      <line class="cls-2" x1="105.03" y1="106.84" x2="105.11" y2="107.23"/>
      <line class="cls-2" x1="109.8" y1="107.23" x2="109.85" y2="106.84"/>
      <line class="cls-2" x1="105.03" y1="106.36" x2="105.03" y2="106.84"/>
      <line class="cls-2" x1="109.85" y1="106.84" x2="109.85" y2="106.36"/>
      <line class="cls-2" x1="105.03" y1="103.86" x2="105.03" y2="104.65"/>
      <line class="cls-2" x1="109.85" y1="104.65" x2="109.85" y2="103.86"/>
      <line class="cls-2" x1="105.03" y1="102.54" x2="105.03" y2="103.41"/>
      <line class="cls-2" x1="109.85" y1="103.41" x2="109.85" y2="102.54"/>
      <line class="cls-2" x1="105.11" y1="105.89" x2="105.11" y2="106.36"/>
      <line class="cls-2" x1="109.8" y1="106.36" x2="109.8" y2="105.89"/>
      <line class="cls-2" x1="105.11" y1="104.65" x2="105.11" y2="105.12"/>
      <line class="cls-2" x1="109.8" y1="105.12" x2="109.8" y2="104.65"/>
      <line class="cls-2" x1="105.11" y1="103.41" x2="105.11" y2="103.86"/>
      <line class="cls-2" x1="109.8" y1="103.86" x2="109.8" y2="103.41"/>
      <polyline class="cls-2" points="109.72 107.28 109.77 107.28 109.8 107.23"/>
      <polyline class="cls-2" points="105.11 107.23 105.14 107.28 105.16 107.28"/>
      <polyline class="cls-2" points="112.35 97.01 112.46 96.54 112.51 96.06"/>
      <polyline class="cls-2" points="102.4 96.06 102.42 96.54 102.55 97.01"/>
      <line class="cls-2" x1="102.4" y1="95.06" x2="102.4" y2="96.06"/>
      <line class="cls-2" x1="112.51" y1="96.06" x2="112.51" y2="95.06"/>
      <line class="cls-2" x1="102.55" y1="97.01" x2="104.27" y2="102.33"/>
      <line class="cls-2" x1="110.64" y1="102.33" x2="112.35" y2="97.01"/>
      <line class="cls-2" x1="112.51" y1="95.06" x2="112.56" y2="95.04"/>
      <polyline class="cls-2" points="110.32 102.54 110.46 102.52 110.56 102.44 110.64 102.33"/>
      <polyline class="cls-2" points="104.27 102.33 104.34 102.44 104.45 102.52 104.56 102.54"/>
      <line class="cls-2" x1="105.9" y1="107.68" x2="105.98" y2="107.76"/>
      <line class="cls-2" x1="108.9" y1="107.76" x2="109.01" y2="107.68"/>
      <line class="cls-2" x1="103.87" y1="95.06" x2="111.04" y2="95.06"/>
      <line class="cls-2" x1="111.04" y1="95.06" x2="112.51" y2="95.06"/>
      <line class="cls-2" x1="102.4" y1="95.06" x2="103.87" y2="95.06"/>
      <line class="cls-2" x1="109.48" y1="102.54" x2="104.56" y2="102.54"/>
      <line class="cls-2" x1="110.32" y1="102.54" x2="109.48" y2="102.54"/>
      <line class="cls-2" x1="107.45" y1="107.68" x2="109.01" y2="107.68"/>
      <line class="cls-2" x1="105.9" y1="107.68" x2="107.45" y2="107.68"/>
      <line class="cls-2" x1="107.45" y1="107.76" x2="105.98" y2="107.76"/>
      <line class="cls-2" x1="108.9" y1="107.76" x2="107.45" y2="107.76"/>
      <line class="cls-2" x1="109.69" y1="102.33" x2="110.64" y2="102.33"/>
      <line class="cls-2" x1="104.27" y1="102.33" x2="109.69" y2="102.33"/>
    </g>
    <g>
      <line class="cls-6" x1="105.03" y1="105.12" x2="105.03" y2="105.89"/>
      <line class="cls-6" x1="109.85" y1="105.89" x2="109.85" y2="105.12"/>
      <line class="cls-6" x1="105.03" y1="106.84" x2="105.11" y2="107.23"/>
      <line class="cls-6" x1="109.8" y1="107.23" x2="109.85" y2="106.84"/>
      <line class="cls-6" x1="105.03" y1="106.36" x2="105.03" y2="106.84"/>
      <line class="cls-6" x1="109.85" y1="106.84" x2="109.85" y2="106.36"/>
      <line class="cls-6" x1="105.03" y1="103.86" x2="105.03" y2="104.65"/>
      <line class="cls-6" x1="109.85" y1="104.65" x2="109.85" y2="103.86"/>
      <line class="cls-6" x1="105.03" y1="102.54" x2="105.03" y2="103.41"/>
      <line class="cls-6" x1="109.85" y1="103.41" x2="109.85" y2="102.54"/>
      <line class="cls-6" x1="105.11" y1="105.89" x2="105.11" y2="106.36"/>
      <line class="cls-6" x1="109.8" y1="106.36" x2="109.8" y2="105.89"/>
      <line class="cls-6" x1="105.11" y1="104.65" x2="105.11" y2="105.12"/>
      <line class="cls-6" x1="109.8" y1="105.12" x2="109.8" y2="104.65"/>
      <line class="cls-6" x1="105.11" y1="103.41" x2="105.11" y2="103.86"/>
      <line class="cls-6" x1="109.8" y1="103.86" x2="109.8" y2="103.41"/>
      <polyline class="cls-6" points="109.72 107.28 109.77 107.28 109.8 107.23"/>
      <polyline class="cls-6" points="105.11 107.23 105.14 107.28 105.16 107.28"/>
      <polyline class="cls-6" points="112.35 97.01 112.46 96.54 112.51 96.06"/>
      <polyline class="cls-6" points="102.4 96.06 102.42 96.54 102.55 97.01"/>
      <line class="cls-6" x1="102.4" y1="95.06" x2="102.4" y2="96.06"/>
      <line class="cls-6" x1="112.51" y1="96.06" x2="112.51" y2="95.06"/>
      <line class="cls-6" x1="102.55" y1="97.01" x2="104.27" y2="102.33"/>
      <line class="cls-6" x1="110.64" y1="102.33" x2="112.35" y2="97.01"/>
      <line class="cls-6" x1="112.51" y1="95.06" x2="112.56" y2="95.04"/>
      <polyline class="cls-6" points="110.32 102.54 110.46 102.52 110.56 102.44 110.64 102.33"/>
      <polyline class="cls-6" points="104.27 102.33 104.34 102.44 104.45 102.52 104.56 102.54"/>
      <line class="cls-6" x1="105.9" y1="107.68" x2="105.98" y2="107.76"/>
      <line class="cls-6" x1="108.9" y1="107.76" x2="109.01" y2="107.68"/>
      <line class="cls-6" x1="103.87" y1="95.06" x2="111.04" y2="95.06"/>
      <line class="cls-6" x1="111.04" y1="95.06" x2="112.51" y2="95.06"/>
      <line class="cls-6" x1="102.4" y1="95.06" x2="103.87" y2="95.06"/>
      <line class="cls-6" x1="109.48" y1="102.54" x2="104.56" y2="102.54"/>
      <line class="cls-6" x1="110.32" y1="102.54" x2="109.48" y2="102.54"/>
      <line class="cls-6" x1="107.45" y1="107.68" x2="109.01" y2="107.68"/>
      <line class="cls-6" x1="105.9" y1="107.68" x2="107.45" y2="107.68"/>
      <line class="cls-6" x1="107.45" y1="107.76" x2="105.98" y2="107.76"/>
      <line class="cls-6" x1="108.9" y1="107.76" x2="107.45" y2="107.76"/>
      <line class="cls-6" x1="109.69" y1="102.33" x2="110.64" y2="102.33"/>
      <line class="cls-6" x1="104.27" y1="102.33" x2="109.69" y2="102.33"/>
    </g>
  </g>
  <rect x="115.26" y="59.41" width="2.03" height="17.61" rx="1.02" ry="1.02"/>
  <line class="cls-5" x1="103.5" y1="60.58" x2="115.78" y2="60.58"/>
  <polyline class="cls-4" points="110.48 45.61 110.36 34.95 104.6 34.95 104.48 45.61"/>
  <line class="cls-4" x1="107.48" y1="34.95" x2="107.48" y2="27.62"/>
</svg>