<svg width="40" height="40" viewBox="0 0 40 40" fill="none" xmlns="http://www.w3.org/2000/svg">
<path d="M39 19H2V20H39V19Z" fill="white" stroke="white" style="fill:white;fill-opacity:1;stroke:white;stroke-opacity:1;"/>
<path d="M21 1H20V38H21V1Z" fill="white" stroke="white" style="fill:white;fill-opacity:1;stroke:white;stroke-opacity:1;"/>
<path d="M20.5 25C17.4672 25 15 22.5328 15 19.5C15 16.4672 17.4672 14 20.5 14C23.5328 14 26 16.4672 26 19.5C26 22.5328 23.5328 25 20.5 25ZM20.5 15.0604C18.054 15.0604 16.0604 17.0504 16.0604 19.5C16.0604 21.9496 18.0504 23.9396 20.5 23.9396C22.9496 23.9396 24.9396 21.9496 24.9396 19.5C24.9396 17.0504 22.9496 15.0604 20.5 15.0604Z" fill="white" stroke="white" style="fill:white;fill-opacity:1;stroke:white;stroke-opacity:1;"/>
<path d="M20.5 37C10.8512 37 3 29.1488 3 19.5C3 9.85124 10.8512 2 20.5 2C30.1488 2 38 9.85124 38 19.5C38 29.1488 30.1488 37 20.5 37ZM20.5 2.99345C11.3995 2.99345 3.99677 10.3961 3.99677 19.4967C3.99677 28.5972 11.3995 35.9999 20.5 35.9999C29.6005 35.9999 37.0032 28.5972 37.0032 19.4967C37.0032 10.3961 29.6005 2.99345 20.5 2.99345Z" fill="white" stroke="white" style="fill:white;fill-opacity:1;stroke:white;stroke-opacity:1;" stroke-width="2"/>
<path d="M20.5 28C15.8115 28 12 24.1852 12 19.5C12 14.8148 15.8148 11 20.5 11C25.1852 11 29 14.8148 29 19.5C29 24.1852 25.1852 28 20.5 28ZM20.5 11.9891C16.3588 11.9891 12.9891 15.3588 12.9891 19.5C12.9891 23.6412 16.3588 27.0109 20.5 27.0109C24.6412 27.0109 28.0109 23.6412 28.0109 19.5C28.0109 15.3588 24.6412 11.9891 20.5 11.9891Z" fill="white" stroke="white" style="fill:white;fill-opacity:1;stroke:white;stroke-opacity:1;"/>
</svg>
