<svg width="40" height="40" viewBox="0 0 40 40" fill="none" xmlns="http://www.w3.org/2000/svg">
<path d="M37.5185 38H1.48152C1.21508 38 1 37.7757 1 37.4978V1.50217C1 1.2243 1.21508 1 1.48152 1C1.74796 1 1.96304 1.2243 1.96304 1.50217V36.9957H37.5185C37.7849 36.9957 38 37.22 38 37.4978C38 37.7757 37.7849 38 37.5185 38Z" fill="white" stroke="white" style="fill:white;fill-opacity:1;stroke:white;stroke-opacity:1;" stroke-width="2"/>
<path d="M5.5 26C3.56873 26 2 24.6554 2 23C2 21.3446 3.56873 20 5.5 20C7.43127 20 9 21.3446 9 23C9 24.6554 7.43127 26 5.5 26ZM5.5 20.8712C4.13117 20.8712 3.01646 21.8267 3.01646 23C3.01646 24.1733 4.13117 25.1288 5.5 25.1288C6.86883 25.1288 7.98354 24.1733 7.98354 23C7.98354 21.8267 6.86883 20.8712 5.5 20.8712Z" fill="white" style="fill:white;fill-opacity:1;"/>
<path d="M16 17C14.3446 17 13 15.4313 13 13.5C13 11.5687 14.3446 10 16 10C17.6554 10 19 11.5687 19 13.5C19 15.4313 17.6554 17 16 17ZM16 11.0165C14.8267 11.0165 13.8712 12.1312 13.8712 13.5C13.8712 14.8688 14.8267 15.9835 16 15.9835C17.1733 15.9835 18.1288 14.8688 18.1288 13.5C18.1288 12.1312 17.1733 11.0165 16 11.0165Z" fill="white" style="fill:white;fill-opacity:1;"/>
<path d="M25.5 36C23.5687 36 22 34.2072 22 32C22 29.7928 23.5687 28 25.5 28C27.4313 28 29 29.7928 29 32C29 34.2072 27.4313 36 25.5 36ZM25.5 29.1617C24.1312 29.1617 23.0165 30.4356 23.0165 32C23.0165 33.5644 24.1312 34.8383 25.5 34.8383C26.8688 34.8383 27.9835 33.5644 27.9835 32C27.9835 30.4356 26.8688 29.1617 25.5 29.1617Z" fill="white" style="fill:white;fill-opacity:1;"/>
<path d="M35 15C33.3446 15 32 13.4313 32 11.5C32 9.56873 33.3446 8 35 8C36.6554 8 38 9.56873 38 11.5C38 13.4313 36.6554 15 35 15ZM35 9.01646C33.8267 9.01646 32.8712 10.1312 32.8712 11.5C32.8712 12.8688 33.8267 13.9835 35 13.9835C36.1733 13.9835 37.1288 12.8688 37.1288 11.5C37.1288 10.1312 36.1733 9.01646 35 9.01646Z" fill="white" style="fill:white;fill-opacity:1;"/>
<path d="M8.41886 21C8.32686 21 8.23486 20.9694 8.1568 20.9083C7.97559 20.7638 7.94771 20.5026 8.09268 20.322L12.255 15.1563C12.3999 14.9757 12.662 14.9479 12.8432 15.0924C13.0244 15.2369 13.0523 15.4981 12.9073 15.6787L8.74504 20.8444C8.66141 20.9472 8.54153 21 8.41886 21Z" fill="white" stroke="white" style="fill:white;fill-opacity:1;stroke:white;stroke-opacity:1;"/>
<path d="M24.5011 29C24.3266 29 24.1555 28.9117 24.0615 28.7514L17.0661 16.7351C16.9286 16.4996 17.0125 16.1986 17.254 16.0645C17.4956 15.9304 17.8043 16.0121 17.9385 16.2477L24.9339 28.2639C25.0714 28.4995 24.9875 28.8004 24.746 28.9313C24.6688 28.9738 24.5816 28.9967 24.4977 28.9967L24.5011 29Z" fill="white" stroke="white" style="fill:white;fill-opacity:1;stroke:white;stroke-opacity:1;"/>
<path d="M26.4819 29C26.4079 29 26.3372 28.984 26.2664 28.9488C26.0284 28.8303 25.932 28.5421 26.051 28.3052L33.0872 14.2653C33.2062 14.0283 33.4956 13.9323 33.7336 14.0507C33.9716 14.1692 34.068 14.4574 33.949 14.6943L26.9128 28.7342C26.8292 28.9039 26.6588 29 26.4819 29Z" fill="white" stroke="white" style="fill:white;fill-opacity:1;stroke:white;stroke-opacity:1;"/>
</svg>
