<svg width="27" height="30" viewBox="0 0 27 30" fill="none" xmlns="http://www.w3.org/2000/svg">
<g clip-path="url(#clip0_1677_570)">
<path d="M18.75 26.25V28.5938C18.75 29.3704 18.1204 30 17.3438 30H1.40625C0.62959 30 0 29.3704 0 28.5938V7.03125C0 6.25459 0.62959 5.625 1.40625 5.625H5.625V22.9688C5.625 24.7781 7.09693 26.25 8.90625 26.25H18.75ZM18.75 6.09375V0H8.90625C8.12959 0 7.5 0.62959 7.5 1.40625V22.9688C7.5 23.7454 8.12959 24.375 8.90625 24.375H24.8438C25.6204 24.375 26.25 23.7454 26.25 22.9688V7.5H20.1562C19.3828 7.5 18.75 6.86719 18.75 6.09375ZM25.8381 4.27564L21.9744 0.411855C21.7106 0.14815 21.353 1.94998e-06 20.98 0L20.625 0V5.625H26.25V5.26998C26.25 4.89704 26.1019 4.53936 25.8381 4.27564Z" fill="white"/>
</g>
<defs>
<clipPath id="clip0_1677_570">
<rect width="26.25" height="30" fill="white"/>
</clipPath>
</defs>
</svg>
