<svg width="26" height="26" viewBox="0 0 26 26" fill="none" xmlns="http://www.w3.org/2000/svg">
<path d="M8.25 17.75V12.4375L19.7187 0.96875C19.9687 0.71875 20.25 0.53125 20.5625 0.40625C20.875 0.28125 21.1875 0.21875 21.5 0.21875C21.8333 0.21875 22.1513 0.28125 22.4538 0.40625C22.7563 0.53125 23.0321 0.71875 23.2812 0.96875L25.0312 2.75C25.2604 3 25.4375 3.27625 25.5625 3.57875C25.6875 3.88125 25.75 4.18833 25.75 4.5C25.75 4.8125 25.6929 5.12 25.5788 5.4225C25.4646 5.725 25.2821 6.00083 25.0312 6.25L13.5625 17.75H8.25ZM21.5 6.25L23.2812 4.5L21.5312 2.75L19.75 4.5L21.5 6.25ZM3.25 25.25C2.5625 25.25 1.97417 25.0054 1.485 24.5162C0.995833 24.0271 0.750833 23.4383 0.75 22.75V5.25C0.75 4.5625 0.995 3.97417 1.485 3.485C1.975 2.99583 2.56333 2.75083 3.25 2.75H14.4063L5.75 11.4062V20.25H14.5625L23.25 11.5625V22.75C23.25 23.4375 23.0054 24.0262 22.5163 24.5162C22.0271 25.0062 21.4383 25.2508 20.75 25.25H3.25Z" fill="white"/>
</svg>
