<svg width="118" height="118" viewBox="0 0 118 118" fill="none" xmlns="http://www.w3.org/2000/svg">
<path d="M54.6299 51.0686H60.2814V69.431" stroke="black" stroke-width="2" stroke-miterlimit="10"/>
<path d="M55.0198 69.431H65.5498" stroke="black" stroke-width="2" stroke-miterlimit="10"/>
<path d="M98.1865 27.0773H22V90H98.1865V27.0773Z" stroke="black" stroke-width="2" stroke-miterlimit="10"/>
<path d="M91.8028 32.6008H28.37V80.8505H91.8028V32.6008Z" stroke="black" stroke-width="2" stroke-miterlimit="10"/>
<path d="M60.0898 87.6669C61.3292 87.6669 62.334 86.635 62.334 85.362C62.334 84.089 61.3292 83.057 60.0898 83.057C58.8503 83.057 57.8456 84.089 57.8456 85.362C57.8456 86.635 58.8503 87.6669 60.0898 87.6669Z" stroke="black" stroke-width="2" stroke-miterlimit="10"/>
<path d="M60.0419 47.9555C61.3418 47.9555 62.3956 46.8732 62.3956 45.5381C62.3956 44.203 61.3418 43.1207 60.0419 43.1207C58.742 43.1207 57.6882 44.203 57.6882 45.5381C57.6882 46.8732 58.742 47.9555 60.0419 47.9555Z" fill="black"/>
</svg>
