<svg width="118" height="118" viewBox="0 0 118 118" fill="none" xmlns="http://www.w3.org/2000/svg">
<path d="M84.901 51.6692H48.8668V53.8817H84.901V51.6692Z" fill="black" style="fill:black;fill-opacity:1;"/>
<path d="M84.901 60.3054H48.8668V62.5179H84.901V60.3054Z" fill="black" style="fill:black;fill-opacity:1;"/>
<path d="M84.901 68.949H48.8668V71.1615H84.901V68.949Z" fill="black" style="fill:black;fill-opacity:1;"/>
<path d="M90.7936 84.6946H42.9667C39.5005 84.6946 36.6832 81.8773 36.6832 78.4111V24.5662C36.6832 21.1 39.5005 18.2827 42.9667 18.2827H77.6661L97.0918 37.7085V78.4185C97.0918 81.8847 94.2672 84.702 90.801 84.702L90.7936 84.6946ZM42.9667 20.4952C40.7247 20.4952 38.8957 22.3242 38.8957 24.5662V78.4185C38.8957 80.6605 40.7247 82.4895 42.9667 82.4895H90.801C93.0504 82.4895 94.8793 80.6605 94.8793 78.4185V38.623L76.7516 20.4952H42.9667Z" fill="black" style="fill:black;fill-opacity:1;"/>
<path d="M85.6311 89.8054H37.7969C34.3306 89.8054 31.5134 86.9881 31.5134 83.5219V29.677H33.7259V83.5293C33.7259 85.7713 35.5549 87.6002 37.7969 87.6002H85.6311V89.8127V89.8054Z" fill="black" style="fill:black;fill-opacity:1;"/>
<path d="M95.9709 38.9768H83.1826C79.1485 38.9768 75.8666 35.695 75.8666 31.6682V19.6838H78.0791V31.6682C78.0791 34.4781 80.3654 36.7643 83.1826 36.7643H95.9709V38.9768Z" fill="black" style="fill:black;fill-opacity:1;"/>
<path d="M80.4907 94.9531H32.6565C29.1902 94.9531 26.373 92.1359 26.373 88.6696V34.8174H28.5855V88.6696C28.5855 90.9116 30.4145 92.7406 32.6565 92.7406H80.4907V94.9531Z" fill="black" style="fill:black;fill-opacity:1;"/>
</svg>
