<?xml version="1.0" encoding="UTF-8"?>
<svg id="_圖層_4" data-name="圖層 4" xmlns="http://www.w3.org/2000/svg" viewBox="0 0 160 160">
  <defs>
    <style>
      .cls-1 {
        stroke-width: 3.29px;
      }

      .cls-1, .cls-2, .cls-3 {
        fill: none;
        stroke: #000;
        stroke-miterlimit: 10;
      }

      .cls-2 {
        stroke-width: 3px;
      }

      .cls-3 {
        stroke-width: 3.41px;
      }
    </style>
  </defs>
  <g>
    <path class="cls-3" d="m55.45,52.22c.02,13.02,10.81,23.55,24.1,23.52,13.29-.02,24.05-10.59,24.03-23.6-.02-13.02-10.8-23.56-24.11-23.53-13.29.02-24.05,10.59-24.02,23.61Z"/>
    <path class="cls-1" d="m116.49,121.69c0-25.38-16.55-45.95-36.97-45.95s-36.97,20.57-36.97,45.95h73.94Z"/>
  </g>
  <g>
    <path class="cls-2" d="m55.45,52.22c.02,13.02,10.81,23.55,24.1,23.52,13.29-.02,24.05-10.59,24.03-23.6-.02-13.02-10.8-23.56-24.11-23.53-13.29.02-24.05,10.59-24.02,23.61Z"/>
    <path class="cls-2" d="m116.49,121.69c0-25.38-16.55-45.95-36.97-45.95s-36.97,20.57-36.97,45.95h73.94Z"/>
  </g>
</svg>