<svg width="40" height="40" viewBox="0 0 40 40" fill="none" xmlns="http://www.w3.org/2000/svg">
<path d="M23.1509 33.5371H21.6083V32.7017H22.3241L22.3408 30.3739L22.6765 30.3098C23.2785 30.1958 23.8778 30.0342 24.4521 29.8283C24.7685 29.714 25.0763 29.5833 25.3898 29.4358L25.7117 29.2826L27.0517 31.2482L29.7956 29.355L28.4361 27.367L28.6747 27.122C29.4653 26.3117 30.1285 25.4011 30.6446 24.41L30.8055 24.098L33.1386 24.8498L34.1568 21.6756L31.7931 20.9127L31.8375 20.5675C31.9818 19.4732 31.9595 18.3567 31.7708 17.2541L31.7126 16.9088L34.0625 16.0596L32.9361 12.9161L30.5862 13.7681L30.4115 13.4646C29.8788 12.5402 29.2296 11.7021 28.4804 10.9754L28.2335 10.7331L29.5958 8.66157L26.8131 6.82111L25.4648 8.8843L25.1402 8.73952C24.405 8.41096 23.6309 8.16593 22.8346 8.01001L22.4961 7.9432L22.5128 5.51523H21.6V4.67993H23.3506L23.334 7.26102C23.9554 7.40304 24.5659 7.59515 25.1512 7.83739L26.5717 5.66281L30.7471 8.4221L29.3046 10.619C29.926 11.2594 30.4779 11.9722 30.9524 12.7462L33.4326 11.8469L35.1251 16.5636L32.6421 17.4601C32.7752 18.418 32.7947 19.3813 32.7002 20.3308L35.2 21.1383L33.6685 25.9022L31.2048 25.1088C30.7333 25.9524 30.1591 26.7405 29.4958 27.4589L30.9414 29.5722L26.8241 32.4121L25.4119 30.3405C25.1846 30.4408 24.957 30.5327 24.7239 30.6161C24.2135 30.7999 23.6891 30.9505 23.1564 31.0645L23.1398 33.5399L23.1509 33.5371Z" fill="white" style="fill:white;fill-opacity:1;"/>
<mask id="mask0_1844_611" style="mask-type:luminance" maskUnits="userSpaceOnUse" x="21" y="4" width="15" height="31">
<path d="M36 4.0332H21.0946V34.4782H36V4.0332Z" fill="white" style="fill:white;fill-opacity:1;"/>
<path d="M23.2628 33.4855H21.77V32.6551H22.4627L22.4788 30.3413L22.8037 30.2776C23.3863 30.1642 23.9663 30.0036 24.5221 29.7989C24.8282 29.6853 25.1261 29.5553 25.4295 29.4087L25.741 29.2565L27.0378 31.2104L29.6932 29.3284L28.3775 27.3523L28.6084 27.1087C29.3735 26.3033 30.0153 25.3982 30.5147 24.4129L30.6705 24.1029L32.9283 24.8502L33.9136 21.6949L31.6262 20.9366L31.6691 20.5934C31.8088 19.5057 31.7873 18.3958 31.6046 17.2998L31.5483 16.9566L33.8224 16.1125L32.7323 12.9877L30.4582 13.8346L30.2891 13.5329C29.7737 12.6141 29.1454 11.781 28.4204 11.0586L28.1815 10.8178L29.4998 8.75863L26.8068 6.92917L25.5021 8.98003L25.1879 8.83612C24.4765 8.50951 23.7273 8.26595 22.9567 8.11097L22.6292 8.04455L22.6453 5.63108H21.762V4.80078H23.4561L23.44 7.36645C24.0413 7.50762 24.6322 7.69858 25.1986 7.93937L26.5732 5.77778L30.614 8.52059L29.218 10.7043C29.8193 11.3409 30.3534 12.0494 30.8126 12.8189L33.2128 11.9249L34.8506 16.6134L32.4478 17.5046C32.5766 18.4567 32.5955 19.4144 32.504 20.3582L34.9232 21.1608L33.4411 25.8963L31.0569 25.1075C30.6006 25.9462 30.0449 26.7296 29.4031 27.4436L30.8019 29.5443L26.8175 32.3673L25.4509 30.308C25.2309 30.4078 25.0106 30.4991 24.785 30.582C24.2912 30.7647 23.7837 30.9143 23.2682 31.0277L23.2521 33.4884L23.2628 33.4855Z" fill="black" style="fill:black;fill-opacity:1;"/>
</mask>
<g mask="url(#mask0_1844_611)">
<path d="M23.2628 33.4855H21.77V32.6551H22.4627L22.4788 30.3413L22.8037 30.2776C23.3863 30.1642 23.9663 30.0036 24.5221 29.7989C24.8282 29.6853 25.1261 29.5553 25.4295 29.4087L25.741 29.2565L27.0378 31.2104L29.6932 29.3284L28.3775 27.3523L28.6084 27.1087C29.3735 26.3033 30.0153 25.3982 30.5147 24.4129L30.6705 24.1029L32.9283 24.8502L33.9136 21.6949L31.6262 20.9366L31.6691 20.5934C31.8088 19.5057 31.7873 18.3958 31.6046 17.2998L31.5483 16.9566L33.8224 16.1125L32.7323 12.9877L30.4582 13.8346L30.2891 13.5329C29.7737 12.6141 29.1454 11.781 28.4204 11.0586L28.1815 10.8178L29.4998 8.75863L26.8068 6.92917L25.5021 8.98003L25.1879 8.83612C24.4765 8.50951 23.7273 8.26595 22.9567 8.11097L22.6292 8.04455L22.6453 5.63108H21.762V4.80078H23.4561L23.44 7.36645C24.0413 7.50762 24.6322 7.69858 25.1986 7.93937L26.5732 5.77778L30.614 8.52059L29.218 10.7043C29.8193 11.3409 30.3534 12.0494 30.8126 12.8189L33.2128 11.9249L34.8506 16.6134L32.4478 17.5046C32.5766 18.4567 32.5955 19.4144 32.504 20.3582L34.9232 21.1608L33.4411 25.8963L31.0569 25.1075C30.6006 25.9462 30.0449 26.7296 29.4031 27.4436L30.8019 29.5443L26.8175 32.3673L25.4509 30.308C25.2309 30.4078 25.0106 30.4991 24.785 30.582C24.2912 30.7647 23.7837 30.9143 23.2682 31.0277L23.2521 33.4884L23.2628 33.4855Z" stroke="white" style="stroke:white;stroke-opacity:1;" stroke-width="2"/>
</g>
<mask id="mask1_1844_611" style="mask-type:luminance" maskUnits="userSpaceOnUse" x="22" y="12" width="5" height="14">
<path d="M22.4332 25.2933L22.1701 24.5071C23.6119 23.9924 24.753 22.9213 25.3866 21.4849C25.9986 20.1038 26.0498 18.5594 25.5343 17.134C25.016 15.7059 23.9904 14.5739 22.6453 13.94C22.4789 13.8626 22.3204 13.7961 22.1701 13.7435L22.4305 12.9575C22.605 13.0184 22.7849 13.0931 22.9756 13.1817C24.5168 13.9041 25.6927 15.2049 26.2861 16.8406C26.8767 18.4736 26.8175 20.2422 26.1168 21.8253C25.392 23.4694 24.0816 24.701 22.4305 25.2877L22.4332 25.2933Z" fill="white" style="fill:white;fill-opacity:1;"/>
</mask>
<g mask="url(#mask1_1844_611)">
<path d="M22.4332 25.2933L22.1701 24.5071C23.6119 23.9924 24.753 22.9213 25.3866 21.4849C25.9986 20.1038 26.0498 18.5594 25.5343 17.134C25.016 15.7059 23.9904 14.5739 22.6453 13.94C22.4789 13.8626 22.3204 13.7961 22.1701 13.7435L22.4305 12.9575C22.605 13.0184 22.7849 13.0931 22.9756 13.1817C24.5168 13.9041 25.6927 15.2049 26.2861 16.8406C26.8767 18.4736 26.8175 20.2422 26.1168 21.8253C25.392 23.4694 24.0816 24.701 22.4305 25.2877L22.4332 25.2933Z" fill="white" stroke="white" style="fill:white;fill-opacity:1;stroke:white;stroke-opacity:1;" stroke-width="6"/>
</g>
<mask id="mask2_1844_611" style="mask-type:luminance" maskUnits="userSpaceOnUse" x="7" y="11" width="4" height="5">
<path d="M9.43044 15.4871H8.25716C7.56715 15.4871 7.00333 14.9087 7.00333 14.1946V12.8467C7.00333 12.1354 7.56446 11.5542 8.25716 11.5542H9.43044C10.1205 11.5542 10.6843 12.1327 10.6843 12.8467V14.1946C10.6843 14.9059 10.1231 15.4871 9.43044 15.4871ZM8.25716 12.3845C8.01015 12.3845 7.8088 12.5921 7.8088 12.8467V14.1946C7.8088 14.4492 8.01015 14.6568 8.25716 14.6568H9.43044C9.67745 14.6568 9.8788 14.4492 9.8788 14.1946V12.8467C9.8788 12.5921 9.67745 12.3845 9.43044 12.3845H8.25716Z" fill="white" style="fill:white;fill-opacity:1;"/>
</mask>
<g mask="url(#mask2_1844_611)">
<path d="M9.43044 15.4871H8.25716C7.56715 15.4871 7.00333 14.9087 7.00333 14.1946V12.8467C7.00333 12.1354 7.56446 11.5542 8.25716 11.5542H9.43044C10.1205 11.5542 10.6843 12.1327 10.6843 12.8467V14.1946C10.6843 14.9059 10.1231 15.4871 9.43044 15.4871ZM8.25716 12.3845C8.01015 12.3845 7.8088 12.5921 7.8088 12.8467V14.1946C7.8088 14.4492 8.01015 14.6568 8.25716 14.6568H9.43044C9.67745 14.6568 9.8788 14.4492 9.8788 14.1946V12.8467C9.8788 12.5921 9.67745 12.3845 9.43044 12.3845H8.25716Z" fill="white" stroke="white" style="fill:white;fill-opacity:1;stroke:white;stroke-opacity:1;" stroke-width="4"/>
</g>
<mask id="mask3_1844_611" style="mask-type:luminance" maskUnits="userSpaceOnUse" x="11" y="11" width="9" height="5">
<path d="M18.0059 15.4871H12.6979C12.0079 15.4871 11.4441 14.9087 11.4441 14.1946V12.8467C11.4441 12.1354 12.0052 11.5542 12.6979 11.5542H18.0059C18.6959 11.5542 19.2597 12.1327 19.2597 12.8467V14.1946C19.2597 14.9059 18.6986 15.4871 18.0059 15.4871ZM12.6979 12.3845C12.4509 12.3845 12.2495 12.5921 12.2495 12.8467V14.1946C12.2495 14.4492 12.4509 14.6568 12.6979 14.6568H18.0059C18.2529 14.6568 18.4543 14.4492 18.4543 14.1946V12.8467C18.4543 12.5921 18.2529 12.3845 18.0059 12.3845H12.6979Z" fill="white" style="fill:white;fill-opacity:1;"/>
</mask>
<g mask="url(#mask3_1844_611)">
<path d="M18.0059 15.4871H12.6979C12.0079 15.4871 11.4441 14.9087 11.4441 14.1946V12.8467C11.4441 12.1354 12.0052 11.5542 12.6979 11.5542H18.0059C18.6959 11.5542 19.2597 12.1327 19.2597 12.8467V14.1946C19.2597 14.9059 18.6986 15.4871 18.0059 15.4871ZM12.6979 12.3845C12.4509 12.3845 12.2495 12.5921 12.2495 12.8467V14.1946C12.2495 14.4492 12.4509 14.6568 12.6979 14.6568H18.0059C18.2529 14.6568 18.4543 14.4492 18.4543 14.1946V12.8467C18.4543 12.5921 18.2529 12.3845 18.0059 12.3845H12.6979Z" fill="white" stroke="white" style="fill:white;fill-opacity:1;stroke:white;stroke-opacity:1;" stroke-width="4"/>
</g>
<mask id="mask4_1844_611" style="mask-type:luminance" maskUnits="userSpaceOnUse" x="7" y="17" width="4" height="5">
<path d="M9.43044 21.1109H8.25716C7.56715 21.1109 7.00333 20.5325 7.00333 19.8184V18.4705C7.00333 17.7592 7.56446 17.178 8.25716 17.178H9.43044C10.1205 17.178 10.6843 17.7564 10.6843 18.4705V19.8184C10.6843 20.5297 10.1231 21.1109 9.43044 21.1109ZM8.25716 18.0083C8.01015 18.0083 7.8088 18.2159 7.8088 18.4705V19.8184C7.8088 20.073 8.01015 20.2806 8.25716 20.2806H9.43044C9.67745 20.2806 9.8788 20.073 9.8788 19.8184V18.4705C9.8788 18.2159 9.67745 18.0083 9.43044 18.0083H8.25716Z" fill="white" style="fill:white;fill-opacity:1;"/>
</mask>
<g mask="url(#mask4_1844_611)">
<path d="M9.43044 21.1109H8.25716C7.56715 21.1109 7.00333 20.5325 7.00333 19.8184V18.4705C7.00333 17.7592 7.56446 17.178 8.25716 17.178H9.43044C10.1205 17.178 10.6843 17.7564 10.6843 18.4705V19.8184C10.6843 20.5297 10.1231 21.1109 9.43044 21.1109ZM8.25716 18.0083C8.01015 18.0083 7.8088 18.2159 7.8088 18.4705V19.8184C7.8088 20.073 8.01015 20.2806 8.25716 20.2806H9.43044C9.67745 20.2806 9.8788 20.073 9.8788 19.8184V18.4705C9.8788 18.2159 9.67745 18.0083 9.43044 18.0083H8.25716Z" fill="white" stroke="white" style="fill:white;fill-opacity:1;stroke:white;stroke-opacity:1;" stroke-width="4"/>
</g>
<mask id="mask5_1844_611" style="mask-type:luminance" maskUnits="userSpaceOnUse" x="11" y="17" width="9" height="5">
<path d="M18.0059 21.1109H12.6979C12.0079 21.1109 11.4441 20.5325 11.4441 19.8184V18.4705C11.4441 17.7592 12.0052 17.178 12.6979 17.178H18.0059C18.6959 17.178 19.2597 17.7564 19.2597 18.4705V19.8184C19.2597 20.5297 18.6986 21.1109 18.0059 21.1109ZM12.6979 18.0083C12.4509 18.0083 12.2495 18.2159 12.2495 18.4705V19.8184C12.2495 20.073 12.4509 20.2806 12.6979 20.2806H18.0059C18.2529 20.2806 18.4543 20.073 18.4543 19.8184V18.4705C18.4543 18.2159 18.2529 18.0083 18.0059 18.0083H12.6979Z" fill="white" style="fill:white;fill-opacity:1;"/>
</mask>
<g mask="url(#mask5_1844_611)">
<path d="M18.0059 21.1109H12.6979C12.0079 21.1109 11.4441 20.5325 11.4441 19.8184V18.4705C11.4441 17.7592 12.0052 17.178 12.6979 17.178H18.0059C18.6959 17.178 19.2597 17.7564 19.2597 18.4705V19.8184C19.2597 20.5297 18.6986 21.1109 18.0059 21.1109ZM12.6979 18.0083C12.4509 18.0083 12.2495 18.2159 12.2495 18.4705V19.8184C12.2495 20.073 12.4509 20.2806 12.6979 20.2806H18.0059C18.2529 20.2806 18.4543 20.073 18.4543 19.8184V18.4705C18.4543 18.2159 18.2529 18.0083 18.0059 18.0083H12.6979Z" fill="white" stroke="white" style="fill:white;fill-opacity:1;stroke:white;stroke-opacity:1;" stroke-width="4"/>
</g>
<mask id="mask6_1844_611" style="mask-type:luminance" maskUnits="userSpaceOnUse" x="7" y="22" width="4" height="5">
<path d="M9.43044 26.7322H8.25716C7.56715 26.7322 7.00333 26.1538 7.00333 25.4397V24.0917C7.00333 23.3805 7.56446 22.7993 8.25716 22.7993H9.43044C10.1205 22.7993 10.6843 23.3777 10.6843 24.0917V25.4397C10.6843 26.151 10.1231 26.7322 9.43044 26.7322ZM8.25716 23.6297C8.01015 23.6297 7.8088 23.8372 7.8088 24.0917V25.4397C7.8088 25.6943 8.01015 25.902 8.25716 25.902H9.43044C9.67745 25.902 9.8788 25.6943 9.8788 25.4397V24.0917C9.8788 23.8372 9.67745 23.6297 9.43044 23.6297H8.25716Z" fill="white" style="fill:white;fill-opacity:1;"/>
</mask>
<g mask="url(#mask6_1844_611)">
<path d="M9.43044 26.7322H8.25716C7.56715 26.7322 7.00333 26.1538 7.00333 25.4397V24.0917C7.00333 23.3805 7.56446 22.7993 8.25716 22.7993H9.43044C10.1205 22.7993 10.6843 23.3777 10.6843 24.0917V25.4397C10.6843 26.151 10.1231 26.7322 9.43044 26.7322ZM8.25716 23.6297C8.01015 23.6297 7.8088 23.8372 7.8088 24.0917V25.4397C7.8088 25.6943 8.01015 25.902 8.25716 25.902H9.43044C9.67745 25.902 9.8788 25.6943 9.8788 25.4397V24.0917C9.8788 23.8372 9.67745 23.6297 9.43044 23.6297H8.25716Z" fill="white" stroke="white" style="fill:white;fill-opacity:1;stroke:white;stroke-opacity:1;" stroke-width="4"/>
</g>
<mask id="mask7_1844_611" style="mask-type:luminance" maskUnits="userSpaceOnUse" x="11" y="22" width="9" height="5">
<path d="M18.0059 26.7322H12.6979C12.0079 26.7322 11.4441 26.1538 11.4441 25.4397V24.0917C11.4441 23.3805 12.0052 22.7993 12.6979 22.7993H18.0059C18.6959 22.7993 19.2597 23.3777 19.2597 24.0917V25.4397C19.2597 26.151 18.6986 26.7322 18.0059 26.7322ZM12.6979 23.6297C12.4509 23.6297 12.2495 23.8372 12.2495 24.0917V25.4397C12.2495 25.6943 12.4509 25.902 12.6979 25.902H18.0059C18.2529 25.902 18.4543 25.6943 18.4543 25.4397V24.0917C18.4543 23.8372 18.2529 23.6297 18.0059 23.6297H12.6979Z" fill="white" style="fill:white;fill-opacity:1;"/>
</mask>
<g mask="url(#mask7_1844_611)">
<path d="M18.0059 26.7322H12.6979C12.0079 26.7322 11.4441 26.1538 11.4441 25.4397V24.0917C11.4441 23.3805 12.0052 22.7993 12.6979 22.7993H18.0059C18.6959 22.7993 19.2597 23.3777 19.2597 24.0917V25.4397C19.2597 26.151 18.6986 26.7322 18.0059 26.7322ZM12.6979 23.6297C12.4509 23.6297 12.2495 23.8372 12.2495 24.0917V25.4397C12.2495 25.6943 12.4509 25.902 12.6979 25.902H18.0059C18.2529 25.902 18.4543 25.6943 18.4543 25.4397V24.0917C18.4543 23.8372 18.2529 23.6297 18.0059 23.6297H12.6979Z" fill="white" stroke="white" style="fill:white;fill-opacity:1;stroke:white;stroke-opacity:1;" stroke-width="4"/>
</g>
<path d="M19.6124 34.3171H6.78764C5.69101 34.3171 4.8 33.3787 4.8 32.2235V5.99362C4.8 4.83847 5.69101 3.8999 6.78764 3.8999H19.6124C20.709 3.8999 21.6 4.83847 21.6 5.99362V32.2263C21.6 33.3812 20.709 34.3199 19.6124 34.3199V34.3171ZM6.78764 4.73295C6.1286 4.73295 5.59085 5.29943 5.59085 5.99362V32.2263C5.59085 32.9203 6.1286 33.4868 6.78764 33.4868H19.6124C20.2714 33.4868 20.8092 32.9203 20.8092 32.2263V5.99362C20.8092 5.29943 20.2714 4.73295 19.6124 4.73295H6.78764Z" fill="white" style="fill:white;fill-opacity:1;"/>
<mask id="mask8_1844_611" style="mask-type:luminance" maskUnits="userSpaceOnUse" x="4" y="3" width="19" height="33">
<path d="M22.4649 3.12012H4V35.1001H22.4649V3.12012Z" fill="white" style="fill:white;fill-opacity:1;"/>
<path d="M19.7708 34.3298H6.6941C5.57592 34.3298 4.6674 33.3907 4.6674 32.2345V5.98313C4.6674 4.82704 5.57592 3.8877 6.6941 3.8877H19.7708C20.889 3.8877 21.7975 4.82704 21.7975 5.98313V32.2373C21.7975 33.3932 20.889 34.3327 19.7708 34.3327V34.3298ZM6.6941 4.72143C6.02211 4.72143 5.47379 5.28837 5.47379 5.98313V32.2373C5.47379 32.9319 6.02211 33.4989 6.6941 33.4989H19.7708C20.4428 33.4989 20.9911 32.9319 20.9911 32.2373V5.98313C20.9911 5.28837 20.4428 4.72143 19.7708 4.72143H6.6941Z" fill="black" style="fill:black;fill-opacity:1;"/>
</mask>
<g mask="url(#mask8_1844_611)">
<path d="M19.7708 34.3298H6.6941C5.57592 34.3298 4.6674 33.3907 4.6674 32.2345V5.98313C4.6674 4.82704 5.57592 3.8877 6.6941 3.8877H19.7708C20.889 3.8877 21.7975 4.82704 21.7975 5.98313V32.2373C21.7975 33.3932 20.889 34.3327 19.7708 34.3327V34.3298ZM6.6941 4.72143C6.02211 4.72143 5.47379 5.28837 5.47379 5.98313V32.2373C5.47379 32.9319 6.02211 33.4989 6.6941 33.4989H19.7708C20.4428 33.4989 20.9911 32.9319 20.9911 32.2373V5.98313C20.9911 5.28837 20.4428 4.72143 19.7708 4.72143H6.6941Z" stroke="white" style="stroke:white;stroke-opacity:1;" stroke-width="2"/>
</g>
</svg>
