<svg width="118" height="118" viewBox="0 0 118 118" fill="none" xmlns="http://www.w3.org/2000/svg">
<path d="M74.5004 98.2063H70.4023V96.0583H72.3039L72.3481 90.0725L73.24 89.9079C74.8394 89.6143 76.4315 89.199 77.9572 88.6692C78.7974 88.3756 79.6156 88.0391 80.4485 87.6596L81.3035 87.2658L84.8635 92.3208L92.153 87.452L88.5414 82.3397L89.1753 81.7097C91.2759 79.6261 93.0375 77.2848 94.4084 74.7358L94.8359 73.9339L101.035 75.8671L103.74 67.7047L97.4599 65.7428L97.5778 64.855C97.9611 62.0411 97.9021 59.17 97.4009 56.3346L97.2461 55.4468L103.489 53.2629L100.497 45.1793L94.2536 47.3703L93.7893 46.5898C92.3741 44.2127 90.6494 42.0575 88.6593 40.1888L88.0034 39.5659L91.6223 34.2388L84.2296 29.506L80.6475 34.8116L79.7851 34.4393C77.8319 33.5944 75.7755 32.9643 73.6601 32.5634L72.7609 32.3915L72.8051 26.148H70.3802V24H75.0311L74.9868 30.6373C76.6378 31.0025 78.2594 31.4965 79.8146 32.1194L83.5883 26.5275L94.6811 33.6231L90.8484 39.2723C92.4994 40.9191 93.9662 42.7521 95.2266 44.7425L101.816 42.4299L106.312 54.5589L99.7153 56.8644C100.069 59.3275 100.121 61.8048 99.8701 64.2464L106.511 66.3228L102.442 78.5736L95.8973 76.533C94.6443 78.7024 93.1186 80.7287 91.357 82.576L95.1971 88.0105L84.2591 95.3137L80.5074 89.9866C79.903 90.2444 79.2986 90.4807 78.6795 90.6955C77.3233 91.168 75.9303 91.5547 74.5151 91.8482L74.4709 98.2135L74.5004 98.2063Z" fill="black"/>
<path d="M72.2229 77.0126L71.5005 74.9792C75.4586 73.6474 78.5911 70.8765 80.3306 67.1604C82.0111 63.5876 82.1511 59.5923 80.7359 55.9049C79.3134 52.2104 76.4978 49.2819 72.8051 47.6423C72.3482 47.4418 71.9133 47.2699 71.5005 47.1339L72.2155 45.1005C72.6946 45.258 73.1884 45.4513 73.7117 45.6804C77.9425 47.5492 81.1708 50.9144 82.7997 55.146C84.4213 59.3704 84.2591 63.9456 82.3354 68.0411C80.3453 72.2942 76.7484 75.4804 72.2155 76.9983L72.2229 77.0126Z" fill="black"/>
<path d="M37.5269 49.6869H34.3059C32.4117 49.6869 30.8638 48.0596 30.8638 46.0509V42.2592C30.8638 40.2582 32.4043 38.6232 34.3059 38.6232H37.5269C39.4211 38.6232 40.969 40.2504 40.969 42.2592V46.0509C40.969 48.0519 39.4285 49.6869 37.5269 49.6869ZM34.3059 40.9589C33.6278 40.9589 33.075 41.5429 33.075 42.2592V46.0509C33.075 46.7672 33.6278 47.3511 34.3059 47.3511H37.5269C38.205 47.3511 38.7578 46.7672 38.7578 46.0509V42.2592C38.7578 41.5429 38.205 40.9589 37.5269 40.9589H34.3059Z" fill="black"/>
<path d="M61.0687 49.6869H46.497C44.6027 49.6869 43.0549 48.0596 43.0549 46.0509V42.2592C43.0549 40.2582 44.5953 38.6232 46.497 38.6232H61.0687C62.9629 38.6232 64.5108 40.2504 64.5108 42.2592V46.0509C64.5108 48.0519 62.9703 49.6869 61.0687 49.6869ZM46.497 40.9589C45.8189 40.9589 45.2661 41.5429 45.2661 42.2592V46.0509C45.2661 46.7672 45.8189 47.3511 46.497 47.3511H61.0687C61.7468 47.3511 62.2996 46.7672 62.2996 46.0509V42.2592C62.2996 41.5429 61.7468 40.9589 61.0687 40.9589H46.497Z" fill="black"/>
<path d="M37.5269 65.5077H34.3059C32.4117 65.5077 30.8638 63.8804 30.8638 61.8717V58.08C30.8638 56.079 32.4043 54.444 34.3059 54.444H37.5269C39.4211 54.444 40.969 56.0712 40.969 58.08V61.8717C40.969 63.8727 39.4285 65.5077 37.5269 65.5077ZM34.3059 56.7797C33.6278 56.7797 33.075 57.3637 33.075 58.08V61.8717C33.075 62.588 33.6278 63.1719 34.3059 63.1719H37.5269C38.205 63.1719 38.7578 62.588 38.7578 61.8717V58.08C38.7578 57.3637 38.205 56.7797 37.5269 56.7797H34.3059Z" fill="black"/>
<path d="M61.0687 65.5077H46.497C44.6027 65.5077 43.0549 63.8804 43.0549 61.8717V58.08C43.0549 56.079 44.5953 54.444 46.497 54.444H61.0687C62.9629 54.444 64.5108 56.0712 64.5108 58.08V61.8717C64.5108 63.8727 62.9703 65.5077 61.0687 65.5077ZM46.497 56.7797C45.8189 56.7797 45.2661 57.3637 45.2661 58.08V61.8717C45.2661 62.588 45.8189 63.1719 46.497 63.1719H61.0687C61.7468 63.1719 62.2996 62.588 62.2996 61.8717V58.08C62.2996 57.3637 61.7468 56.7797 61.0687 56.7797H46.497Z" fill="black"/>
<path d="M37.5269 81.3209H34.3059C32.4117 81.3209 30.8638 79.6937 30.8638 77.6849V73.8932C30.8638 71.8922 32.4043 70.2572 34.3059 70.2572H37.5269C39.4211 70.2572 40.969 71.8844 40.969 73.8932V77.6849C40.969 79.6859 39.4285 81.3209 37.5269 81.3209ZM34.3059 72.593C33.6278 72.593 33.075 73.1769 33.075 73.8932V77.6849C33.075 78.4012 33.6278 78.9852 34.3059 78.9852H37.5269C38.205 78.9852 38.7578 78.4012 38.7578 77.6849V73.8932C38.7578 73.1769 38.205 72.593 37.5269 72.593H34.3059Z" fill="black"/>
<path d="M61.0687 81.3209H46.497C44.6027 81.3209 43.0549 79.6937 43.0549 77.6849V73.8932C43.0549 71.8922 44.5953 70.2572 46.497 70.2572H61.0687C62.9629 70.2572 64.5108 71.8844 64.5108 73.8932V77.6849C64.5108 79.6859 62.9703 81.3209 61.0687 81.3209ZM46.497 72.593C45.8189 72.593 45.2661 73.1769 45.2661 73.8932V77.6849C45.2661 78.4012 45.8189 78.9852 46.497 78.9852H61.0687C61.7468 78.9852 62.2996 78.4012 62.2996 77.6849V73.8932C62.2996 73.1769 61.7468 72.593 61.0687 72.593H46.497Z" fill="black"/>
<path d="M65.4394 98.9932H29.5606C26.4927 98.9932 24 96.6791 24 93.8311V29.162C24 26.314 26.4927 24 29.5606 24H65.4394C68.5073 24 71 26.314 71 29.162V93.838C71 96.686 68.5073 99 65.4394 99V98.9932ZM29.5606 26.0539C27.7169 26.0539 26.2125 27.4505 26.2125 29.162V93.838C26.2125 95.5495 27.7169 96.9461 29.5606 96.9461H65.4394C67.2831 96.9461 68.7875 95.5495 68.7875 93.838V29.162C68.7875 27.4505 67.2831 26.0539 65.4394 26.0539H29.5606Z" fill="black"/>
</svg>
