<svg width="32" height="32" viewBox="0 0 32 32" fill="none" xmlns="http://www.w3.org/2000/svg">
<path d="M15.9994 0C15.337 0 14.7017 0.261219 14.2333 0.726191C13.765 1.19116 13.5018 1.8218 13.5018 2.47937V14.8762C13.5018 15.5338 13.765 16.1644 14.2333 16.6294C14.7017 17.0944 15.337 17.3556 15.9994 17.3556C16.6618 17.3556 17.297 17.0944 17.7654 16.6294C18.2338 16.1644 18.4969 15.5338 18.4969 14.8762V2.47937C18.4969 1.8218 18.2338 1.19116 17.7654 0.726191C17.297 0.261219 16.6618 0 15.9994 0ZM7.06311 3.21574C6.70284 3.26092 6.36356 3.40908 6.08656 3.6422C4.1873 5.12857 2.65268 7.02352 1.59836 9.18423C0.544039 11.3449 -0.00247459 13.715 8.42311e-06 16.1159C8.42311e-06 24.8656 7.18299 32 15.9994 32C24.8158 32 32 24.8656 32 16.1159C32 11.0667 29.6248 6.54926 25.9122 3.64096C25.72 3.48833 25.4994 3.37479 25.263 3.3068C25.0266 3.23881 24.779 3.21771 24.5344 3.2447C24.2898 3.2717 24.0529 3.34626 23.8373 3.46412C23.6217 3.58199 23.4316 3.74086 23.2779 3.93166C23.1242 4.12246 23.0098 4.34145 22.9413 4.57613C22.8728 4.81082 22.8515 5.05659 22.8787 5.29943C22.9059 5.54226 22.981 5.77741 23.0998 5.99143C23.2185 6.20545 23.3785 6.39416 23.5707 6.54678C25.0311 7.68491 26.2116 9.13785 27.0229 10.7957C27.8342 12.4535 28.2551 14.2728 28.2537 16.1159C28.2576 17.7145 27.9433 19.2982 27.3289 20.7759C26.7145 22.2536 25.812 23.5962 24.6733 24.7266C23.5346 25.857 22.1821 26.753 20.6936 27.3629C19.205 27.9729 17.6097 28.2849 15.9994 28.2809C14.389 28.2849 12.7937 27.9729 11.3052 27.3629C9.81666 26.753 8.46418 25.857 7.32548 24.7266C6.18678 23.5962 5.28429 22.2536 4.66985 20.7759C4.05542 19.2982 3.74115 17.7145 3.7451 16.1159C3.74405 14.2729 4.16508 12.4537 4.97636 10.7959C5.78764 9.13815 6.96793 7.68515 8.42803 6.54678C8.75873 6.30019 8.99793 5.95187 9.1083 5.55617C9.21867 5.16047 9.19401 4.73963 9.03817 4.3593C8.88232 3.97896 8.60406 3.66053 8.24678 3.45367C7.88951 3.24681 7.47331 3.16315 7.06311 3.21574Z" fill="white"/>
</svg>
