<svg width="40" height="40" viewBox="0 0 40 40" fill="none" xmlns="http://www.w3.org/2000/svg">
<path d="M36.7784 32H3.21823C1.9965 32 1 31.105 1 30.0076V4.99239C1 3.89504 1.9965 3 3.21823 3H36.7818C38.0035 3 39 3.89504 39 4.99239V30.0076C39 31.105 38.0035 32 36.7818 32H36.7784ZM3.21823 3.91956C2.55959 3.91956 2.0238 4.4008 2.0238 4.99239V30.0076C2.0238 30.5992 2.55959 31.0804 3.21823 31.0804H36.7818C37.4404 31.0804 37.9762 30.5992 37.9762 30.0076V4.99239C37.9762 4.4008 37.4404 3.91956 36.7818 3.91956H3.21823Z" fill="white" stroke="white" style="fill:white;fill-opacity:1;stroke:white;stroke-opacity:1;" stroke-width="2"/>
<path d="M31.9827 23H8.01729C6.90623 23 6 22.22 6 21.2638V8.73623C6 7.77997 6.90623 7 8.01729 7H31.9827C33.0938 7 34 7.77997 34 8.73623V21.2638C34 22.22 33.0938 23 31.9827 23ZM8.01729 7.80401C7.41831 7.80401 6.93106 8.22337 6.93106 8.7389V21.2664C6.93106 21.782 7.41831 22.2013 8.01729 22.2013H31.9827C32.5817 22.2013 33.0689 21.782 33.0689 21.2664V8.7389C33.0689 8.22337 32.5817 7.80401 31.9827 7.80401H8.01729Z" fill="white" stroke="white" style="fill:white;fill-opacity:1;stroke:white;stroke-opacity:1;" stroke-width="2"/>
<path d="M27.7705 37H12.2295C11.0015 37 10 36.0706 10 34.931V33.069C10 31.9294 11.0015 31 12.2295 31H27.7705C28.9985 31 30 31.9294 30 33.069V34.931C30 36.0706 28.9985 37 27.7705 37ZM12.2295 31.9549C11.5675 31.9549 11.029 32.4546 11.029 33.069V34.931C11.029 35.5454 11.5675 36.0451 12.2295 36.0451H27.7705C28.4325 36.0451 28.971 35.5454 28.971 34.931V33.069C28.971 32.4546 28.4325 31.9549 27.7705 31.9549H12.2295Z" fill="white" stroke="white" style="fill:white;fill-opacity:1;stroke:white;stroke-opacity:1;" stroke-width="2"/>
<path d="M21.0019 28C19.8993 28 19 27.3289 19 26.5C19 25.6711 19.8956 25 21.0019 25C22.1082 25 23 25.6711 23 26.5C23 27.3289 22.1044 28 21.0019 28ZM21.0019 25.8487C20.5202 25.8487 20.1289 26.1419 20.1289 26.5028C20.1289 26.8637 20.5202 27.157 21.0019 27.157C21.4835 27.157 21.8711 26.8637 21.8711 26.5028C21.8711 26.1419 21.4798 25.8487 21.0019 25.8487Z" fill="white" stroke="white" style="fill:white;fill-opacity:1;stroke:white;stroke-opacity:1;"/>
</svg>
