<?xml version="1.0" encoding="UTF-8"?>
<svg id="_圖層_4" data-name="圖層 4" xmlns="http://www.w3.org/2000/svg" viewBox="0 0 160 160">
  <defs>
    <style>
      .cls-1 {
        fill: none;
        stroke: #000;
        stroke-miterlimit: 10;
        stroke-width: 3px;
      }
    </style>
  </defs>
  <g>
    <path class="cls-1" d="m35.82,91.64c.01,7.12,5.91,12.88,13.18,12.87,7.27-.01,13.16-5.79,13.15-12.91-.01-7.12-5.91-12.89-13.19-12.87-7.27.01-13.15,5.79-13.14,12.92Z"/>
    <path class="cls-1" d="m62.15,127.86c0-12.9-5.89-23.35-13.17-23.35s-13.17,10.46-13.17,23.35h26.33Z"/>
    <path class="cls-1" d="m66.83,91.64c.01,7.12,5.91,12.88,13.18,12.87,7.27-.01,13.16-5.79,13.15-12.91-.01-7.12-5.91-12.89-13.19-12.87-7.27.01-13.15,5.79-13.14,12.92Z"/>
    <path class="cls-1" d="m93.17,127.86c0-12.9-5.89-23.35-13.17-23.35s-13.17,10.46-13.17,23.35h26.33Z"/>
    <path class="cls-1" d="m97.85,91.64c.01,7.12,5.91,12.88,13.18,12.87,7.27-.01,13.16-5.79,13.15-12.91-.01-7.12-5.91-12.89-13.19-12.87-7.27.01-13.15,5.79-13.14,12.92Z"/>
    <path class="cls-1" d="m124.18,127.86c0-12.9-5.89-23.35-13.17-23.35s-13.17,10.46-13.17,23.35h26.33Z"/>
  </g>
  <g>
    <path class="cls-1" d="m122.43,76.26v-9.5l-7.27-.05c-.35-1.88-.85-3.75-1.51-5.59-.37-1.02-.78-2-1.23-2.96l6.1-4.18-7.16-10.43-6.21,4.27c-2.54-2.5-5.4-4.58-8.51-6.21l2.34-7.28-12.03-3.88-2.37,7.38c-3.42-.44-6.92-.38-10.41.21l-2.64-7.33-11.9,4.28,2.64,7.34c-2.92,1.68-5.54,3.73-7.81,6.08l-6.46-4.26-6.97,10.57,6.41,4.21c-1.03,2.33-1.8,4.76-2.3,7.27l-7.57-.06v10.12"/>
    <path class="cls-1" d="m97.95,79.39c2.29-8.62-1.88-17.89-10.28-21.72-9.36-4.26-20.41-.12-24.67,9.23-1.86,4.08-2.12,8.47-1.04,12.48"/>
  </g>
</svg>