<?xml version="1.0" encoding="UTF-8"?>
<svg xmlns="http://www.w3.org/2000/svg" viewBox="0 0 160 160">
  <defs>
    <style>
      .cls-1 {
        fill: #fff;
      }

      .cls-2 {
        fill: none;
        stroke: #000;
        stroke-miterlimit: 10;
        stroke-width: 3px;
      }
    </style>
  </defs>
  <g id="_外" data-name="外">
    <circle class="cls-1" cx="80" cy="80" r="75"/>
  </g>
  <g id="_圖層_1" data-name="圖層 1">
    <path class="cls-2" d="m125.88,94.26c0-.57-.03-1.14-.08-1.7l3.8-.99-1.7-6.5-3.87,1.01c-.82-1.7-1.87-3.26-3.13-4.63l2.48-3.22-5.32-4.11-2.51,3.26c-1.63-.83-3.39-1.43-5.24-1.76v-4.14h-6.72v4.14c-1.77.32-3.44.87-5,1.64l-2.47-3.29-5.38,4.03,2.44,3.26c-.93.98-1.76,2.06-2.46,3.22l-3.77-1.39-2.33,6.3,3.7,1.36c-.21,1.14-.33,2.31-.33,3.51,0,.42.02.83.04,1.24l-3.76.98,1.71,6.5,3.67-.96c.8,1.77,1.86,3.4,3.13,4.84l-2.29,2.96,5.32,4.11,2.26-2.92c1.7.9,3.55,1.55,5.5,1.9v3.66h6.72v-3.66c1.86-.33,3.62-.94,5.26-1.77l2.21,2.94,5.38-4.03-2.24-2.99c.95-1.04,1.78-2.18,2.49-3.4l3.55,1.3,2.32-6.3-3.62-1.33c.17-1,.25-2.02.25-3.06Z"/>
    <g>
      <path class="cls-2" d="m58.34,49.78c.02,11.45,9.51,20.72,21.21,20.7,11.7-.02,21.17-9.32,21.15-20.77-.02-11.46-9.51-20.73-21.22-20.71-11.69.02-21.16,9.32-21.14,20.78Z"/>
      <path class="cls-2" d="m79.03,70.66c-19.73,0-35.73,18.26-35.73,40.79v4.01h35.73"/>
    </g>
    <circle class="cls-2" cx="106.94" cy="94.02" r="7.25"/>
  </g>
</svg>