<svg width="596" height="250" viewBox="0 0 596 250" fill="none" xmlns="http://www.w3.org/2000/svg">
<path d="M151.083 166.333C160.963 166.333 170.437 164.687 177.423 161.757C184.409 158.827 188.333 154.852 188.333 150.708C188.455 150.189 188.455 149.665 188.333 149.146L257.618 120.083H269.042L309.023 136.854V137.687C309.023 141.831 312.948 145.806 319.934 148.736C326.919 151.666 336.394 153.312 346.273 153.312C356.153 153.312 365.627 151.666 372.613 148.736C379.599 145.806 383.523 141.831 383.523 137.687V136.854L473.917 98.625C481.284 98.625 488.486 97.7086 494.612 95.9917C500.737 94.2748 505.512 91.8345 508.331 88.9794C511.15 86.1243 511.888 82.9827 510.451 79.9517C509.014 76.9208 505.466 74.1366 500.256 71.9515C495.047 69.7663 488.409 68.2781 481.184 67.6752C473.958 67.0723 466.468 67.3818 459.662 68.5644C452.855 69.747 447.037 71.7497 442.944 74.3192C438.851 76.8887 436.667 79.9097 436.667 83C436.545 83.5196 436.545 84.0429 436.667 84.5625L347.018 122.167H343.045L300.083 103.833C300.083 99.6893 296.159 95.715 289.173 92.7848C282.187 89.8545 272.713 88.2083 262.833 88.2083C252.954 88.2083 243.479 89.8545 236.494 92.7848C229.508 95.715 225.583 99.6893 225.583 103.833L151.083 135.083C141.204 135.083 131.729 136.73 124.744 139.66C117.758 142.59 113.833 146.564 113.833 150.708C113.833 154.852 117.758 158.827 124.744 161.757C131.729 164.687 141.204 166.333 151.083 166.333ZM486.333 214.667H273.75H46.5V120.083V68.5L45.166 23.551C35.5 20.634 45.5058 35 45.166 23.551C40.5089 21.5975 38.5862 20.5 32 20.5C25.4138 20.5 26.4307 21.5975 21.7735 23.551C17.1164 25.5045 14.5 28.154 14.5 30.9167V218.417C14.5 221.179 17.1164 223.829 21.7735 225.782C26.4307 227.736 32.7471 228.833 39.3333 228.833H486.333C492.919 228.833 499.236 227.736 503.893 225.782C508.55 223.829 511.167 221.179 511.167 218.417C511.167 215.654 518.938 222.032 508.331 214.667C503.674 212.713 492.919 214.667 486.333 214.667Z" fill="#545454" style="fill:#545454;fill:color(display-p3 0.3294 0.3294 0.3294);fill-opacity:1;"/>
</svg>
