<svg width="40" height="40" viewBox="0 0 40 40" fill="none" xmlns="http://www.w3.org/2000/svg">
<path d="M28.9148 7.96335C28.8296 7.96335 28.7412 7.94093 28.6626 7.89288L20.1765 2.89267C19.944 2.75493 19.8686 2.46023 20.0095 2.23281C20.1503 2.00538 20.4516 1.9317 20.6842 2.06944L29.1703 7.06966C29.4028 7.20739 29.4781 7.50209 29.3373 7.72952C29.2456 7.88007 29.0818 7.96335 28.9148 7.96335Z" fill="white" stroke="white" style="fill:white;fill-opacity:1;stroke:white;stroke-opacity:1;" stroke-width="2"/>
<path d="M20.2485 12.9925C20.1634 12.9925 20.0782 12.9701 19.9996 12.9252L11.5528 8.03072C11.3203 7.89618 11.2417 7.60149 11.3793 7.37085C11.5168 7.14343 11.8181 7.06655 12.0507 7.20108L20.4975 12.0956C20.73 12.2301 20.8086 12.5248 20.671 12.7555C20.5793 12.906 20.4156 12.9925 20.2485 12.9925Z" fill="white" stroke="white" style="fill:white;fill-opacity:1;stroke:white;stroke-opacity:1;" stroke-width="2"/>
<path d="M28.9148 27.9037C28.8296 27.9037 28.7445 27.8813 28.6659 27.8364L11.2188 17.8648C10.9862 17.7303 10.9044 17.4356 11.0419 17.2082C11.1795 16.9775 11.4808 16.9007 11.7133 17.0352L29.1604 27.0068C29.393 27.1413 29.4748 27.436 29.3373 27.6634C29.2456 27.8172 29.0818 27.9005 28.9115 27.9005L28.9148 27.9037Z" fill="white" stroke="white" style="fill:white;fill-opacity:1;stroke:white;stroke-opacity:1;" stroke-width="2"/>
<path d="M38.223 23.1244C38.1378 23.1244 38.0526 23.102 37.974 23.0571L29.0163 17.8647C28.7838 17.7302 28.7052 17.4355 28.8427 17.2048C28.9803 16.9774 29.2816 16.9005 29.5141 17.0351L38.4719 22.2275C38.7044 22.362 38.783 22.6567 38.6455 22.8841C38.5538 23.0347 38.39 23.1212 38.223 23.1212V23.1244Z" fill="white" stroke="white" style="fill:white;fill-opacity:1;stroke:white;stroke-opacity:1;" stroke-width="2"/>
<path d="M11.448 28.1277C11.3629 28.1277 11.2777 28.1053 11.1991 28.0605L2.56565 23.0571C2.33311 22.9225 2.2545 22.6278 2.39206 22.4004C2.52962 22.173 2.83094 22.0961 3.06348 22.2306L11.697 27.234C11.9295 27.3686 12.0081 27.6633 11.8705 27.8907C11.7788 28.0412 11.6151 28.1277 11.448 28.1277Z" fill="white" stroke="white" style="fill:white;fill-opacity:1;stroke:white;stroke-opacity:1;" stroke-width="2"/>
<path d="M11.448 38.0001C11.3629 38.0001 11.2777 37.9777 11.1991 37.9328L2.2414 32.7404C2.00886 32.6059 1.93025 32.3112 2.06781 32.0837C2.20537 31.8563 2.50669 31.7794 2.73923 31.914L11.697 37.1064C11.9295 37.2409 12.0081 37.5356 11.8705 37.763C11.7788 37.9136 11.6151 38.0001 11.448 38.0001Z" fill="white" stroke="white" style="fill:white;fill-opacity:1;stroke:white;stroke-opacity:1;" stroke-width="2"/>
<path d="M28.9148 37.8012C28.8296 37.8012 28.7445 37.7787 28.6691 37.7371L19.9472 32.7657C19.7114 32.6312 19.6328 32.3397 19.7704 32.109C19.9079 31.8784 20.2092 31.8015 20.4418 31.9361L29.1637 36.9075C29.3995 37.042 29.4781 37.3335 29.3405 37.5641C29.2488 37.7179 29.0851 37.8044 28.9148 37.8044V37.8012Z" fill="white" stroke="white" style="fill:white;fill-opacity:1;stroke:white;stroke-opacity:1;" stroke-width="2"/>
<path d="M12.2422 7.96346C12.0749 7.96346 11.9109 7.87697 11.824 7.72002C11.6922 7.48939 11.7726 7.19469 12.0042 7.06336L20.8013 2.06315C21.0329 1.93182 21.3288 2.0119 21.4607 2.24253C21.5925 2.47316 21.5121 2.76785 21.2805 2.89918L12.4834 7.8994C12.4062 7.94104 12.3258 7.96346 12.2454 7.96346H12.2422Z" fill="white" stroke="white" style="fill:white;fill-opacity:1;stroke:white;stroke-opacity:1;" stroke-width="2"/>
<path d="M21.1165 13.0725C20.9525 13.0725 20.7949 12.9892 20.7048 12.8418C20.5665 12.6144 20.6405 12.3197 20.8688 12.182L29.1256 7.20738C29.354 7.06964 29.6499 7.14332 29.7882 7.37075C29.9265 7.59817 29.8525 7.89287 29.6241 8.03061L21.3674 13.0052C21.2902 13.0532 21.2034 13.0757 21.1165 13.0757V13.0725Z" fill="white" stroke="white" style="fill:white;fill-opacity:1;stroke:white;stroke-opacity:1;" stroke-width="2"/>
<path d="M12.1393 27.9036C11.972 27.9036 11.808 27.8171 11.7211 27.6601C11.5892 27.4295 11.6697 27.1348 11.9012 27.0035L29.4633 17.0319C29.6949 16.9006 29.9908 16.9806 30.1227 17.2113C30.2546 17.4419 30.1742 17.7366 29.9426 17.8679L12.3805 27.8395C12.3065 27.8812 12.2229 27.9036 12.1425 27.9036H12.1393Z" fill="white" stroke="white" style="fill:white;fill-opacity:1;stroke:white;stroke-opacity:1;" stroke-width="2"/>
<path d="M3.58338 23.0314C3.41934 23.0314 3.25851 22.9481 3.16845 22.7944C3.03336 22.5669 3.10734 22.2722 3.33893 22.1377L11.9784 17.0414C12.2068 16.9069 12.5027 16.9805 12.6378 17.2112C12.7729 17.4386 12.6989 17.7333 12.4673 17.871L3.82783 22.9673C3.75064 23.0122 3.66701 23.0346 3.58338 23.0346V23.0314Z" fill="white" stroke="white" style="fill:white;fill-opacity:1;stroke:white;stroke-opacity:1;" stroke-width="2"/>
<path d="M29.7206 28.1279C29.5534 28.1279 29.3926 28.0414 29.3025 27.8877C29.1674 27.657 29.2478 27.3656 29.4762 27.231L38.016 22.2853C38.2443 22.1539 38.5403 22.2308 38.6754 22.4582C38.8105 22.6889 38.73 22.9804 38.5017 23.1149L29.9619 28.0606C29.8847 28.1055 29.801 28.1247 29.7206 28.1247V28.1279Z" fill="white" stroke="white" style="fill:white;fill-opacity:1;stroke:white;stroke-opacity:1;" stroke-width="2"/>
<path d="M29.7206 37.9998C29.5566 37.9998 29.3958 37.9165 29.3057 37.7628C29.1706 37.5354 29.2446 37.2407 29.4762 37.1061L38.2733 31.9137C38.5017 31.7792 38.7976 31.8529 38.9327 32.0835C39.0678 32.3109 38.9938 32.6056 38.7622 32.7401L29.9651 37.9325C29.8879 37.9774 29.8042 37.9998 29.7206 37.9998Z" fill="white" stroke="white" style="fill:white;fill-opacity:1;stroke:white;stroke-opacity:1;" stroke-width="2"/>
<path d="M12.5703 37.8014C12.4094 37.8014 12.2518 37.7213 12.1586 37.574C12.017 37.3497 12.0878 37.0518 12.3162 36.9141L20.4217 31.9203C20.6469 31.7793 20.946 31.8498 21.0843 32.0772C21.2259 32.3015 21.1551 32.5994 20.9267 32.7371L12.8212 37.7309C12.7407 37.779 12.6539 37.8014 12.5671 37.8014H12.5703Z" fill="white" stroke="white" style="fill:white;fill-opacity:1;stroke:white;stroke-opacity:1;" stroke-width="2"/>
<path d="M11 18C11 18 11 17.7931 11 17.5368V8.46325C11 8.20692 11 8 11 8C11 8 11 8.20692 11 8.46325V17.5368C11 17.7931 11 18 11 18Z" fill="white" stroke="white" style="fill:white;fill-opacity:1;stroke:white;stroke-opacity:1;" stroke-width="2"/>
<path d="M30 18C30 18 30 17.7931 30 17.5368V8.46325C30 8.20692 30 8 30 8C30 8 30 8.20692 30 8.46325V17.5368C30 17.7931 30 18 30 18Z" fill="white" stroke="white" style="fill:white;fill-opacity:1;stroke:white;stroke-opacity:1;" stroke-width="2"/>
<path d="M38.5 32C38.2233 32 38 31.7989 38 31.5497V22.4503C38 22.2011 38.2233 22 38.5 22C38.7767 22 39 22.2011 39 22.4503V31.5497C39 31.7989 38.7767 32 38.5 32Z" fill="white" stroke="white" style="fill:white;fill-opacity:1;stroke:white;stroke-opacity:1;" stroke-width="2"/>
<path d="M28.5 37C28.2233 37 28 36.7931 28 36.5368V27.4632C28 27.2069 28.2233 27 28.5 27C28.7767 27 29 27.2069 29 27.4632V36.5368C29 36.7931 28.7767 37 28.5 37Z" fill="white" stroke="white" style="fill:white;fill-opacity:1;stroke:white;stroke-opacity:1;" stroke-width="2"/>
<path d="M11 37C11 37 11 36.7931 11 36.5368V27.4632C11 27.2069 11 27 11 27C11 27 11 27.2069 11 27.4632V36.5368C11 36.7931 11 37 11 37Z" fill="white" stroke="white" style="fill:white;fill-opacity:1;stroke:white;stroke-opacity:1;" stroke-width="2"/>
<path d="M3 33C2.44667 33 2 32.7984 2 32.5486V23.4514C2 23.2016 2.44667 23 3 23C3.55333 23 4 23.2016 4 23.4514V32.5486C4 32.7984 3.55333 33 3 33Z" fill="white" stroke="white" style="fill:white;fill-opacity:1;stroke:white;stroke-opacity:1;" stroke-width="2"/>
<path d="M20.5 32C20.2233 32 20 31.789 20 31.5276V12.4724C20 12.211 20.2233 12 20.5 12C20.7767 12 21 12.211 21 12.4724V31.5276C21 31.789 20.7767 32 20.5 32Z" fill="white" stroke="white" style="fill:white;fill-opacity:1;stroke:white;stroke-opacity:1;" stroke-width="2"/>
</svg>
