<svg width="30" height="30" viewBox="0 0 30 30" fill="none" xmlns="http://www.w3.org/2000/svg">
<path d="M20.7143 5.0001C24.1629 6.96725 26.4286 10.7458 26.4286 15.0001C26.4286 17.2605 25.7583 19.4701 24.5025 21.3495C23.2467 23.2289 21.4618 24.6937 19.3735 25.5587C17.2852 26.4237 14.9873 26.6501 12.7704 26.2091C10.5535 25.7681 8.51709 24.6796 6.91878 23.0813C5.32046 21.483 4.232 19.4466 3.79102 17.2297C3.35005 15.0128 3.57637 12.7149 4.44138 10.6266C5.30638 8.53828 6.77121 6.75338 8.65063 5.49759C10.53 4.24181 12.7396 3.57153 15 3.57153" stroke="black" style="stroke:black;stroke-opacity:1;" stroke-linecap="round" stroke-linejoin="round"/>
<path d="M20.7143 10.7143V5H26.4286" stroke="black" style="stroke:black;stroke-opacity:1;" stroke-linecap="round" stroke-linejoin="round"/>
</svg>
