<?xml version="1.0" encoding="UTF-8"?>
<svg id="_圖層_8" data-name="圖層 8" xmlns="http://www.w3.org/2000/svg" viewBox="0 0 160 160">
  <path d="m59.03,115.54h-11.46v-4.89c-1.72-.4-3.39-.97-5-1.72l-3,3.89-9.07-7.01,3.05-3.95c-1.09-1.36-2.04-2.82-2.83-4.37l-4.88,1.28-2.91-11.09,5.02-1.31c0-.14,0-.27,0-.41,0-1.14.08-2.3.24-3.44l-4.91-1.81,3.97-10.75,5.02,1.85c.54-.8,1.13-1.58,1.77-2.32l-3.24-4.31,9.18-6.87,3.28,4.38c1.39-.6,2.83-1.07,4.32-1.42v-5.49h11.46v5.49c1.59.37,3.15.89,4.65,1.57l3.34-4.33,9.07,7-3.29,4.26c1.06,1.28,2,2.66,2.79,4.13l5.16-1.35,2.9,11.09-5.03,1.32c.01.34.02.68.02,1,0,.96-.06,1.92-.17,2.87l4.83,1.78-3.96,10.75-4.71-1.74c-.56.88-1.18,1.72-1.84,2.52l2.99,3.99-9.17,6.87-2.94-3.92c-1.5.68-3.06,1.2-4.65,1.57v4.89Zm-8.46-3h5.46v-4.37l1.24-.22c2.15-.38,4.23-1.08,6.2-2.09l1.12-.57,2.64,3.52,4.37-3.27-2.67-3.56.84-.92c1.12-1.22,2.11-2.57,2.94-4.02l.63-1.1,4.24,1.56,1.88-5.12-4.32-1.59.21-1.23c.2-1.19.3-2.4.3-3.61,0-.63-.03-1.28-.1-2l-.12-1.27,4.56-1.19-1.38-5.28-4.62,1.21-.54-1.12c-.96-2-2.2-3.84-3.7-5.47l-.85-.93,2.98-3.86-4.32-3.33-3.01,3.9-1.11-.57c-1.96-1-4.04-1.7-6.18-2.08l-1.24-.22v-4.97h-5.46v4.97l-1.24.22c-2.06.37-4.04,1.02-5.89,1.93l-1.12.55-2.95-3.94-4.37,3.27,2.94,3.92-.87.92c-1.11,1.17-2.09,2.45-2.9,3.79l-.64,1.07-4.5-1.67-1.89,5.12,4.44,1.64-.23,1.24c-.26,1.37-.39,2.77-.39,4.15,0,.5.02.99.05,1.48l.06,1.22-4.46,1.17,1.39,5.28,4.4-1.15.52,1.16c.93,2.08,2.18,4,3.7,5.71l.83.93-2.72,3.53,4.32,3.34,2.69-3.49,1.12.59c2.04,1.08,4.22,1.83,6.49,2.24l1.24.22v4.37Z"/>
  <path d="m53.3,99.74c-7.76,0-14.08-6.32-14.08-14.08s6.32-14.08,14.08-14.08,14.08,6.31,14.08,14.08-6.32,14.08-14.08,14.08Zm0-25.15c-6.11,0-11.08,4.97-11.08,11.08s4.97,11.08,11.08,11.08,11.08-4.97,11.08-11.08-4.97-11.08-11.08-11.08Z"/>
  <path d="m105.68,85.88l-.98-4.79c-1.77-.04-3.52-.27-5.24-.69l-2.16,4.41-10.29-5.05,2.2-4.49c-1.34-1.11-2.57-2.35-3.65-3.71l-4.52,2.23-5.07-10.28,4.65-2.29c-.03-.13-.06-.27-.09-.4-.23-1.12-.38-2.27-.46-3.42l-5.17-.79,1.73-11.33,5.29.81c.37-.89.79-1.77,1.27-2.63l-4.03-3.58,7.61-8.57,4.09,3.63c1.24-.87,2.56-1.62,3.95-2.25l-1.1-5.38,11.23-2.3,1.1,5.38c1.63.04,3.27.24,4.87.6l2.4-4.91,10.29,5.04-2.36,4.83c1.3,1.04,2.49,2.21,3.57,3.49l4.78-2.36,5.07,10.28-4.67,2.3c.08.33.16.66.22.98h0c.19.94.33,1.89.41,2.84l5.09.77-1.72,11.33-4.97-.75c-.38.97-.81,1.92-1.3,2.84l3.73,3.31-7.61,8.57-3.67-3.25c-1.34.96-2.76,1.79-4.25,2.47l.98,4.79-11.23,2.3Zm1.46-7.82l.88,4.28,5.35-1.09-.88-4.28,1.17-.46c2.02-.8,3.93-1.91,5.65-3.29l.99-.79,3.29,2.92,3.62-4.08-3.33-2.95.64-1.07c.85-1.42,1.55-2.94,2.08-4.53l.4-1.2,4.47.68.82-5.39-4.55-.69-.05-1.24c-.04-1.21-.19-2.42-.43-3.6-.13-.62-.29-1.25-.5-1.94l-.37-1.22,4.23-2.08-2.41-4.9-4.28,2.11-.75-.99c-1.34-1.77-2.93-3.32-4.72-4.61l-1.02-.74,2.14-4.38-4.9-2.4-2.16,4.42-1.2-.33c-2.12-.59-4.31-.85-6.47-.8l-1.26.03-1-4.87-5.35,1.09,1,4.87-1.17.46c-1.94.77-3.75,1.81-5.39,3.07l-.98.76-3.68-3.27-3.63,4.08,3.66,3.25-.67,1.08c-.86,1.37-1.55,2.82-2.08,4.3l-.41,1.17-4.75-.73-.82,5.39,4.67.71.02,1.27c.03,1.4.18,2.79.45,4.14.1.49.22.96.34,1.43l.31,1.19-4.14,2.04,2.42,4.89,4.08-2.01.74,1.03c1.33,1.84,2.93,3.47,4.77,4.85l1,.74-1.96,4,4.9,2.4,1.94-3.96,1.21.36c2.21.65,4.51.96,6.81.89l1.26-.03Z"/>
  <path d="m105.3,69.54c-6.55,0-12.43-4.6-13.79-11.26-.75-3.68-.03-7.44,2.04-10.58,2.07-3.14,5.24-5.28,8.93-6.04,3.69-.75,7.44-.03,10.58,2.04,3.14,2.07,5.28,5.24,6.04,8.93,1.56,7.6-3.36,15.06-10.97,16.61-.95.19-1.89.29-2.83.29Zm.03-25.16c-.75,0-1.5.08-2.24.23-2.9.59-5.39,2.28-7.02,4.75-1.63,2.47-2.2,5.43-1.61,8.32,1.22,5.98,7.09,9.86,13.07,8.63,5.98-1.22,9.86-7.09,8.63-13.07-.59-2.9-2.28-5.39-4.75-7.02-1.83-1.21-3.93-1.84-6.08-1.84Z"/>
  <path d="m99.64,135.63l-.25-4.06c-1.31-.23-2.59-.59-3.83-1.06l-2.3,3.39-8.23-5.59,2.34-3.45c-.87-.98-1.65-2.03-2.33-3.14l-3.99,1.31-3.11-9.46,4.11-1.35s0-.09,0-.13c-.05-.88-.05-1.77,0-2.66l-4.17-1.25,2.87-9.53,4.27,1.29c.34-.57.71-1.12,1.12-1.67l-2.91-3.42,7.59-6.44,2.95,3.47c1-.5,2.05-.91,3.12-1.24l-.28-4.56,9.93-.61.28,4.56c1.2.21,2.39.53,3.54.96l2.55-3.77,8.23,5.59-2.51,3.71c.84.92,1.6,1.91,2.28,2.96l4.22-1.39,3.11,9.46-4.11,1.35c.02.21.04.42.05.62.04.73.05,1.46.02,2.18l4.11,1.23-2.86,9.53-4.01-1.2c-.36.63-.75,1.24-1.18,1.83l2.69,3.17-7.58,6.44-2.65-3.11c-1.09.56-2.23,1.02-3.39,1.38l.25,4.06-9.93.61Zm-5.16-8.87l1.15.52c1.7.77,3.5,1.27,5.36,1.49l1.25.14.22,3.54,3.95-.24-.22-3.54,1.22-.29c1.71-.41,3.36-1.08,4.9-2l1.09-.64,2.32,2.72,3.01-2.56-2.34-2.75.78-.97c.84-1.04,1.58-2.18,2.18-3.4l.56-1.13,3.52,1.06,1.14-3.78-3.58-1.08.13-1.23c.1-.97.12-1.96.06-2.94h0c-.03-.51-.09-1.04-.18-1.61l-.19-1.26,3.65-1.2-1.23-3.76-3.69,1.21-.6-1.08c-.87-1.57-1.97-3-3.26-4.24l-.91-.88,2.23-3.28-3.27-2.22-2.24,3.31-1.14-.5c-1.64-.71-3.35-1.17-5.1-1.38l-1.25-.14-.25-4.04-3.95.24.25,4.03-1.22.3c-1.65.4-3.22,1.02-4.67,1.85l-1.08.62-2.59-3.05-3.01,2.56,2.58,3.03-.82.97c-.84,1-1.57,2.08-2.15,3.21l-.57,1.1-3.74-1.13-1.14,3.79,3.68,1.11-.15,1.25c-.14,1.13-.18,2.27-.11,3.38.02.4.07.8.11,1.19l.14,1.22-3.56,1.17,1.24,3.75,3.51-1.15.59,1.12c.86,1.63,1.96,3.12,3.27,4.43l.88.88-2.03,2.99,3.27,2.22,2.01-2.96Z"/>
  <path d="m103.07,122.39c-2.89,0-5.64-1.04-7.83-2.97-2.37-2.09-3.78-4.99-3.97-8.14s.85-6.2,2.95-8.57c2.09-2.37,4.99-3.78,8.14-3.97,3.16-.2,6.2.85,8.57,2.95,2.37,2.09,3.78,4.99,3.97,8.14s-.85,6.2-2.95,8.57c-2.09,2.37-4.99,3.78-8.14,3.97-.25.02-.5.02-.74.02Zm.03-20.68c-.18,0-.37,0-.55.02-2.36.14-4.52,1.2-6.08,2.97s-2.35,4.04-2.2,6.4,1.2,4.52,2.97,6.08c1.77,1.56,4.04,2.34,6.4,2.2,2.36-.14,4.52-1.2,6.08-2.97s2.35-4.04,2.2-6.4h0c-.14-2.36-1.2-4.52-2.97-6.08-1.63-1.44-3.69-2.22-5.84-2.22Z"/>
</svg>