<svg width="40" height="40" viewBox="0 0 40 40" fill="none" xmlns="http://www.w3.org/2000/svg">
<g clip-path="url(#clip0_1848_660)">
<path d="M12.4831 32H8.52034V30.2816C7.92557 30.1411 7.3481 29.9408 6.79137 29.6772L5.75399 31.0442L2.61765 28.5808L3.67232 27.1928C3.29541 26.7149 2.9669 26.2018 2.69373 25.6571L1.00626 26.1069L0 22.2098L1.73588 21.7495C1.73588 21.7003 1.73588 21.6546 1.73588 21.6054C1.73588 21.2048 1.76354 20.7972 1.81887 20.3966L0.121028 19.7605L1.49382 15.9829L3.22971 16.633C3.41643 16.3519 3.62045 16.0778 3.84176 15.8178L2.72139 14.3032L5.89577 11.8891L7.02997 13.4282C7.51062 13.2174 8.00856 13.0522 8.52379 12.9292V11H12.4866V12.9292C13.0364 13.0592 13.5758 13.242 14.0945 13.4809L15.2495 11.9593L18.3858 14.4192L17.2481 15.9162C17.6147 16.366 17.9397 16.8509 18.2129 17.3675L19.9972 16.8931L21 20.7902L19.2607 21.254C19.2641 21.3735 19.2676 21.493 19.2676 21.6054C19.2676 21.9428 19.2468 22.2801 19.2088 22.614L20.879 23.2395L19.5096 27.0171L17.8809 26.4056C17.6873 26.7149 17.4729 27.01 17.2447 27.2912L18.2786 28.6933L15.1077 31.1074L14.0911 29.7299C13.5724 29.9689 13.0329 30.1516 12.4831 30.2816V32ZM9.55771 30.9458H11.4457V29.4101L11.8745 29.3328C12.618 29.1993 13.3372 28.9533 14.0184 28.5984L14.4057 28.3981L15.3186 29.635L16.8297 28.4859L15.9065 27.2349L16.1969 26.9116C16.5842 26.4829 16.9266 26.0085 17.2136 25.499L17.4314 25.1125L18.8976 25.6606L19.5477 23.8614L18.0538 23.3027L18.1265 22.8705C18.1956 22.4523 18.2302 22.0271 18.2302 21.6019C18.2302 21.3805 18.2198 21.1521 18.1956 20.8991L18.1541 20.4528L19.7309 20.0346L19.2537 18.1792L17.6562 18.6044L17.4695 18.2108C17.1375 17.508 16.7087 16.8614 16.19 16.2887L15.8961 15.9618L16.9266 14.6054L15.4327 13.4352L14.3919 14.8057L14.0081 14.6054C13.3303 14.254 12.6111 14.008 11.8711 13.8745L11.4423 13.7972V12.0507H9.55426V13.7972L9.12547 13.8745C8.41314 14.0045 7.72847 14.2329 7.08875 14.5527L6.70147 14.746L5.68138 13.3614L4.17026 14.5105L5.18689 15.8881L4.88605 16.2113C4.50222 16.6225 4.16335 17.0723 3.88325 17.5432L3.66195 17.9192L2.10588 17.3323L1.45233 19.1315L2.98765 19.7078L2.90812 20.1436C2.81821 20.625 2.77326 21.117 2.77326 21.6019C2.77326 21.7776 2.78017 21.9498 2.79055 22.122L2.8113 22.5507L1.26906 22.9618L1.74971 24.8173L3.2712 24.4132L3.45101 24.8208C3.7726 25.5517 4.20484 26.2264 4.73045 26.8273L5.01745 27.1541L4.0769 28.3946L5.57072 29.5683L6.5009 28.3419L6.88819 28.5492C7.59361 28.9287 8.34744 29.1923 9.13239 29.3363L9.56117 29.4137V30.9493L9.55771 30.9458Z" fill="white" stroke="white" style="fill:white;fill-opacity:1;stroke:white;stroke-opacity:1;"/>
<path d="M10.5 26C8.01989 26 6 23.9801 6 21.5C6 19.0199 8.01989 17 10.5 17C12.9801 17 15 19.0167 15 21.5C15 23.9833 12.9801 26 10.5 26ZM10.5 17.962C8.54723 17.962 6.95881 19.5504 6.95881 21.5032C6.95881 23.456 8.54723 25.0444 10.5 25.0444C12.4528 25.0444 14.0412 23.456 14.0412 21.5032C14.0412 19.5504 12.4528 17.962 10.5 17.962Z" fill="white" style="fill:white;fill-opacity:1;"/>
<path d="M29.6295 22L29.2911 20.3475C28.6798 20.3337 28.0755 20.2543 27.4815 20.1094L26.7356 21.6309L23.182 19.8886L23.9418 18.3396C23.479 17.9566 23.0543 17.5288 22.6813 17.0596L21.1204 17.829L19.3695 14.2824L20.9753 13.4924C20.965 13.4475 20.9546 13.3992 20.9443 13.3544C20.8648 12.968 20.813 12.5712 20.7854 12.1745L19 11.9019L19.5974 7.9931L21.4243 8.27255C21.552 7.9655 21.6971 7.6619 21.8629 7.3652L20.4711 6.13011L23.0992 3.17348L24.5116 4.42583C24.9398 4.12568 25.3957 3.86693 25.8757 3.64958L25.4958 1.79349L29.374 1L29.7538 2.85609C30.3167 2.86989 30.8831 2.93889 31.4356 3.06309L32.2644 1.36915L35.818 3.10794L35.003 4.77427C35.4519 5.13307 35.8628 5.53672 36.2358 5.97831L37.8865 5.16412L39.6374 8.7107L38.0247 9.50419C38.0523 9.61804 38.0799 9.73189 38.1006 9.84229C38.1663 10.1666 38.2146 10.4943 38.2422 10.8221L40 11.0877L39.406 14.9966L37.6897 14.7378C37.5585 15.0725 37.41 15.4002 37.2407 15.7176L38.5289 16.8595L35.9008 19.8162L34.6334 18.6949C34.1707 19.0261 33.6803 19.3125 33.1658 19.5471L33.5042 21.1996L29.626 21.9931L29.6295 22ZM30.1337 19.3021L30.4376 20.7787L32.2851 20.4027L31.9813 18.9261L32.3853 18.7674C33.0829 18.4914 33.7425 18.1084 34.3365 17.6323L34.6783 17.3598L35.8145 18.3672L37.0646 16.9596L35.9146 15.9418L36.1357 15.5727C36.4292 15.0828 36.6709 14.5584 36.854 14.0099L36.9921 13.5959L38.5358 13.8305L38.8189 11.9709L37.2477 11.7329L37.2304 11.3051C37.2166 10.8876 37.1648 10.4702 37.0819 10.0631C37.037 9.84919 36.9817 9.63184 36.9092 9.39379L36.7814 8.97289L38.2422 8.2553L37.41 6.56481L35.9319 7.29276L35.6729 6.95121C35.2102 6.34056 34.6611 5.80582 34.0429 5.36077L33.6907 5.10547L34.4297 3.59438L32.7375 2.76639L31.9916 4.29128L31.5772 4.17743C30.8451 3.97388 30.0888 3.88418 29.3429 3.90143L28.9077 3.91178L28.5624 2.23164L26.7148 2.60769L27.0602 4.28783L26.6561 4.44653C25.9862 4.71217 25.3611 5.07097 24.7948 5.50567L24.4563 5.76787L23.1855 4.63972L21.9319 6.04731L23.1959 7.16856L22.9645 7.54115C22.6675 8.0138 22.4292 8.51405 22.2462 9.02464L22.1046 9.42829L20.4642 9.17644L20.1811 11.036L21.7938 11.2809L21.8007 11.7191C21.8111 12.2021 21.8629 12.6816 21.9561 13.1474C21.9906 13.3164 22.0321 13.4786 22.0735 13.6407L22.1806 14.0513L20.7509 14.7551L21.5866 16.4421L22.9956 15.7486L23.2511 16.104C23.7104 16.7388 24.263 17.3011 24.8984 17.7772L25.2437 18.0325L24.5668 19.4125L26.259 20.2405L26.929 18.8743L27.3468 18.9985C28.11 19.2228 28.9043 19.3297 29.6986 19.3056L30.1337 19.2952V19.3021Z" fill="white" stroke="white" style="fill:white;fill-opacity:1;stroke:white;stroke-opacity:1;"/>
<path d="M29.4985 16C27.4056 16 25.5269 14.5303 25.0923 12.4024C24.8527 11.2267 25.0828 10.0254 25.7442 9.02212C26.4056 8.01889 27.4184 7.33516 28.5974 7.09234C29.7764 6.85271 30.9746 7.08276 31.9779 7.74412C32.9812 8.40549 33.6649 9.4183 33.9078 10.5973C34.4062 13.0255 32.8342 15.4089 30.4027 15.9041C30.0991 15.9649 29.7988 15.9968 29.4985 15.9968V16ZM29.508 7.96138C29.2684 7.96138 29.0288 7.98694 28.7923 8.03487C27.8657 8.22337 27.0701 8.76333 26.5493 9.55249C26.0285 10.3417 25.8464 11.2874 26.0349 12.2107C26.4247 14.1213 28.3003 15.361 30.211 14.968C32.1217 14.5782 33.3614 12.7028 32.9684 10.7922C32.7799 9.8656 32.2399 9.07005 31.4507 8.54926C30.866 8.16267 30.195 7.96138 29.508 7.96138Z" fill="white" style="fill:white;fill-opacity:1;"/>
<path d="M26.4723 37.997L26.398 36.7831C26.0083 36.7144 25.6276 36.6067 25.2588 36.4662L24.5747 37.4798L22.1267 35.8085L22.8227 34.777C22.564 34.484 22.3319 34.17 22.1297 33.8382L20.9429 34.2298L20.0178 31.4014L21.2403 30.9978C21.2403 30.9978 21.2403 30.9709 21.2403 30.9589C21.2255 30.6958 21.2255 30.4297 21.2403 30.1636L20 29.7899L20.8537 26.9406L22.1237 27.3263C22.2249 27.1559 22.3349 26.9914 22.4569 26.827L21.5913 25.8045L23.8489 23.879L24.7264 24.9165C25.0238 24.767 25.3361 24.6444 25.6544 24.5457L25.5711 23.1824L28.5247 23L28.608 24.3634C28.9649 24.4262 29.3189 24.5218 29.6609 24.6504L30.4194 23.5232L32.8673 25.1945L32.1208 26.3038C32.3706 26.5788 32.5967 26.8748 32.7989 27.1888L34.0541 26.7732L34.9792 29.6016L33.7567 30.0052C33.7626 30.068 33.7686 30.1308 33.7716 30.1906C33.7835 30.4088 33.7864 30.6271 33.7775 30.8423L35 31.2101L34.1493 34.0594L32.9566 33.7006C32.8495 33.889 32.7335 34.0714 32.6056 34.2478L33.4057 35.1955L31.1511 37.121L30.3629 36.1911C30.0387 36.3586 29.6996 36.4961 29.3546 36.6037L29.4289 37.8176L26.4753 38L26.4723 37.997ZM24.9375 35.345L25.2796 35.5005C25.7852 35.7307 26.3206 35.8802 26.8739 35.946L27.2457 35.9878L27.3111 37.0462L28.486 36.9745L28.4206 35.9161L28.7835 35.8294C29.2921 35.7068 29.7829 35.5065 30.2409 35.2314L30.5651 35.0401L31.2552 35.8533L32.1505 35.0879L31.4545 34.2657L31.6865 33.9757C31.9363 33.6647 32.1565 33.3239 32.3349 32.9591L32.5015 32.6213L33.5485 32.9382L33.8876 31.8081L32.8227 31.4851L32.8614 31.1174C32.8911 30.8274 32.8971 30.5314 32.8792 30.2384C32.8703 30.0859 32.8525 29.9274 32.8257 29.757L32.7692 29.3803L33.8548 29.0215L33.489 27.8973L32.3914 28.2591L32.213 27.9362C31.9542 27.4668 31.627 27.0393 31.2433 26.6685L30.9726 26.4054L31.6359 25.4248L30.6633 24.761L29.997 25.7506L29.6579 25.6012C29.1701 25.3889 28.6615 25.2513 28.141 25.1886L27.7692 25.1467L27.6948 23.9388L26.5199 24.0106L26.5943 25.2155L26.2314 25.3052C25.7406 25.4248 25.2736 25.6101 24.8424 25.8583L24.5211 26.0437L23.7507 25.1318L22.8554 25.8972L23.6228 26.8031L23.3789 27.0931C23.1291 27.3921 22.912 27.715 22.7394 28.0528L22.5699 28.3817L21.4575 28.0438L21.1184 29.177L22.213 29.5089L22.1684 29.8826C22.1267 30.2204 22.1148 30.5613 22.1356 30.8932C22.1416 31.0128 22.1565 31.1323 22.1684 31.249L22.21 31.6137L21.1511 31.9635L21.5199 33.0847L22.564 32.7409L22.7394 33.0757C22.9952 33.5631 23.3224 34.0086 23.7121 34.4002L23.9738 34.6633L23.37 35.5573L24.3427 36.221L24.9405 35.3361L24.9375 35.345Z" fill="white" stroke="white" style="fill:white;fill-opacity:1;stroke:white;stroke-opacity:1;"/>
<path d="M27.4956 34C26.641 34 25.8279 33.6925 25.1804 33.1218C24.4796 32.5039 24.0627 31.6464 24.0065 30.715C23.9504 29.7836 24.2579 28.8817 24.8788 28.181C25.4968 27.4802 26.3542 27.0633 27.2856 27.0071C28.22 26.948 29.1189 27.2585 29.8196 27.8794C30.5204 28.4974 30.9373 29.3548 30.9935 30.2862C31.0496 31.2176 30.7421 32.1195 30.1212 32.8202C29.5032 33.521 28.6458 33.9379 27.7144 33.9941C27.6404 34 27.5665 34 27.4956 34ZM27.5044 27.8853C27.4512 27.8853 27.395 27.8853 27.3418 27.8912C26.644 27.9326 26.0053 28.246 25.5441 28.7694C25.0828 29.2927 24.8492 29.9639 24.8936 30.6618C24.9379 31.3596 25.2484 31.9982 25.7717 32.4595C26.2951 32.9208 26.9663 33.1514 27.6641 33.11C28.3619 33.0686 29.0006 32.7552 29.4618 32.2318C29.9231 31.7085 30.1567 31.0373 30.1123 30.3395C30.0709 29.6417 29.7575 29.003 29.2342 28.5417C28.7522 28.1159 28.1431 27.8853 27.5074 27.8853H27.5044Z" fill="white" style="fill:white;fill-opacity:1;"/>
</g>
<defs>
<clipPath id="clip0_1848_660">
<rect width="40" height="40" fill="white" style="fill:white;fill-opacity:1;"/>
</clipPath>
</defs>
</svg>
