<?xml version="1.0" encoding="UTF-8"?>
<svg id="_圖層_4" data-name="圖層 4" xmlns="http://www.w3.org/2000/svg" viewBox="0 0 160 160">
  <defs>
    <style>
      .cls-1 {
        fill: none;
        stroke: #000;
        stroke-miterlimit: 10;
        stroke-width: 3px;
      }
    </style>
  </defs>
  <path class="cls-1" d="m73.65,85.02c0-.64-.03-1.26-.09-1.88l4.2-1.1-1.88-7.19-4.28,1.12c-.9-1.88-2.07-3.6-3.47-5.12l2.74-3.56-5.88-4.54-2.78,3.6c-1.8-.92-3.75-1.59-5.79-1.95v-4.58h-7.43v4.58c-1.95.35-3.8.96-5.53,1.81l-2.73-3.64-5.95,4.45,2.7,3.6c-1.03,1.08-1.94,2.27-2.72,3.56l-4.17-1.54-2.57,6.97,4.09,1.51c-.24,1.26-.36,2.56-.36,3.88,0,.46.02.92.04,1.37l-4.15,1.09,1.89,7.18,4.06-1.06c.88,1.96,2.05,3.76,3.47,5.35l-2.53,3.27,5.88,4.54,2.49-3.23c1.88,1,3.92,1.71,6.09,2.1v4.05h7.43v-4.05c2.06-.37,4-1.04,5.81-1.96l2.44,3.26,5.94-4.45-2.48-3.3c1.05-1.14,1.97-2.41,2.75-3.76l3.92,1.44,2.56-6.97-4.01-1.48c.18-1.1.28-2.24.28-3.39Z"/>
  <circle class="cls-1" cx="52.71" cy="84.75" r="11.04"/>
  <path class="cls-1" d="m118.94,54.29c-.13-.62-.29-1.23-.47-1.82l3.9-1.92-3.28-6.66-3.97,1.96c-1.26-1.66-2.75-3.11-4.42-4.32l1.97-4.03-6.67-3.27-2,4.09c-1.95-.54-3.99-.8-6.07-.75l-.92-4.48-7.28,1.49.92,4.48c-1.84.73-3.53,1.71-5.05,2.88l-3.4-3.02-4.93,5.55,3.37,2.99c-.79,1.27-1.45,2.62-1.95,4.03l-4.39-.67-1.12,7.34,4.31.66c.02,1.28.16,2.58.42,3.88.09.45.2.89.32,1.33l-3.85,1.9,3.29,6.66,3.76-1.86c1.26,1.74,2.77,3.27,4.47,4.54l-1.82,3.71,6.67,3.27,1.8-3.66c2.04.6,4.18.89,6.38.84l.81,3.97,7.28-1.49-.81-3.97c1.94-.77,3.72-1.82,5.3-3.08l3.04,2.7,4.93-5.55-3.09-2.74c.8-1.33,1.45-2.75,1.94-4.24l4.13.63,1.12-7.34-4.22-.64c-.04-1.12-.17-2.25-.4-3.38Z"/>
  <circle class="cls-1" cx="98.37" cy="58.23" r="11.04"/>
  <path class="cls-1" d="m113.62,105.77c-.03-.52-.09-1.03-.17-1.54l3.39-1.11-1.91-5.8-3.46,1.14c-.84-1.5-1.88-2.85-3.1-4.03l2.07-3.06-5.05-3.43-2.1,3.1c-1.52-.66-3.15-1.11-4.85-1.31l-.23-3.76-6.09.37.23,3.76c-1.58.38-3.07.98-4.44,1.76l-2.42-2.85-4.66,3.95,2.4,2.82c-.79.94-1.48,1.96-2.05,3.06l-3.5-1.05-1.76,5.85,3.43,1.03c-.13,1.05-.17,2.12-.1,3.21.02.38.06.75.11,1.12l-3.35,1.1,1.91,5.8,3.28-1.08c.82,1.56,1.87,2.98,3.11,4.21l-1.91,2.81,5.05,3.43,1.88-2.77c1.59.72,3.3,1.21,5.1,1.42l.2,3.32,6.09-.37-.2-3.32c1.67-.4,3.23-1.05,4.67-1.9l2.17,2.55,4.65-3.95-2.2-2.59c.8-.99,1.5-2.07,2.07-3.22l3.29.99,1.75-5.85-3.36-1.01c.1-.91.12-1.85.06-2.79Z"/>
  <circle class="cls-1" cx="96.42" cy="106.6" r="9.08"/>
</svg>