<svg width="40" height="40" viewBox="0 0 40 40" fill="none" xmlns="http://www.w3.org/2000/svg">
<g clip-path="url(#clip0_1800_854)">
<path d="M23.2824 36.9967H16.8406V33.9862C15.8646 33.7901 14.9121 33.4977 14 33.1189L14.3904 32.1985C15.3631 32.6005 16.3862 32.8996 17.433 33.0824L17.8503 33.1555V35.9998H22.2728V33.1588L22.6901 33.0857C24.1272 32.8331 25.5105 32.3713 26.7995 31.72L27.1765 31.5273L28.9199 33.8167L32.4606 31.2016L30.7003 28.8823L30.9797 28.5766C31.7235 27.7691 32.3798 26.8819 32.9284 25.9449L33.1404 25.5827L35.9373 26.5961L37.4653 22.4991L34.6112 21.459L34.6819 21.0503C34.8131 20.2927 34.8771 19.4985 34.8771 18.6844C34.8771 18.2591 34.8569 17.8172 34.8131 17.3752L34.7728 16.9532L37.7749 16.179L36.6541 11.949L33.6049 12.7398L33.4231 12.371C32.7803 11.0485 31.9523 9.84562 30.9696 8.7956L30.6801 8.48657L32.6389 5.97782L29.1353 3.30956L27.1563 5.8449L26.7827 5.65882C25.4735 5.0009 24.0936 4.54234 22.6834 4.29645L22.266 4.22335V0.996857H21.0443V0H23.2757V3.39264C24.5042 3.64185 25.7091 4.04059 26.8635 4.58554L28.9502 1.91064L34.0525 5.79838L31.9927 8.43341C32.8308 9.38042 33.551 10.4304 34.1434 11.5702L37.371 10.7361L39 16.8967L35.8464 17.7108C35.87 18.0431 35.88 18.3721 35.88 18.6911C35.88 19.4154 35.8296 20.1265 35.7353 20.811L38.7543 21.9109L36.5296 27.8788L33.5779 26.8088C33.1135 27.5598 32.5817 28.2742 31.9961 28.9421L33.8674 31.4043L28.7079 35.2123L26.8669 32.7966C25.7259 33.3349 24.5176 33.737 23.2723 33.9895V37L23.2824 36.9967Z" fill="white" stroke="white" style="fill:white;fill-opacity:1;stroke:white;stroke-opacity:1;"/>
<path d="M19.9714 27C18.9422 27 17.9403 26.7973 17 26.3954L17.383 25.3891C18.2002 25.7366 19.0721 25.914 19.9714 25.914C23.8318 25.914 26.9742 22.5871 26.9742 18.5C26.9742 14.4129 23.8318 11.086 19.9714 11.086V10C24.3994 10 28 13.812 28 18.5C28 23.188 24.3994 27 19.9714 27Z" fill="white" stroke="white" style="fill:white;fill-opacity:1;stroke:white;stroke-opacity:1;"/>
<path d="M12.7079 37H9.18673C8.53481 37 8 36.4904 8 35.8689V30H9.17111V35.8689C9.17111 35.9014 9.18673 35.9158 9.19063 35.9195H12.704C12.7625 35.9195 12.8289 35.8544 12.8289 35.7605V30H14V35.7605C14 36.4435 13.4183 37 12.704 37H12.7079Z" fill="white" style="fill:white;fill-opacity:1;"/>
<path d="M11.0016 30C9.40263 30 7.96123 29.6509 7.2356 29.0888C6.9204 28.8442 6.9598 28.5108 7.13053 28.3037C7.28485 28.1144 7.56394 28 7.87586 28H14.1241C14.4361 28 14.7151 28.1144 14.8695 28.3037C15.0402 28.5108 15.0796 28.8462 14.7644 29.0888C14.0421 29.6509 12.5974 30 10.9984 30H11.0016ZM7.99735 28.5917C7.97765 28.6351 7.98093 28.7002 8.01376 28.7278C8.54567 29.142 9.71784 29.4083 10.9984 29.4083C12.2789 29.4083 13.451 29.14 13.983 28.7278C14.0158 28.7022 14.0191 28.6371 13.9994 28.5917H7.99406H7.99735Z" fill="white" style="fill:white;fill-opacity:1;"/>
<path d="M9.12434 31.9214L8.89999 32.8872L12.978 33.8409L13.2023 32.8751L9.12434 31.9214Z" fill="white" style="fill:white;fill-opacity:1;"/>
<path d="M9.12435 33.6922L8.90001 34.658L12.978 35.6116L13.2023 34.6459L9.12435 33.6922Z" fill="white" style="fill:white;fill-opacity:1;"/>
<path d="M12 26H10V29H12V26Z" fill="white" stroke="white" style="fill:white;fill-opacity:1;stroke:white;stroke-opacity:1;"/>
<path d="M7 24C7 24 7 23.8107 7 23.5763V22.4237C7 22.1893 7 22 7 22C7 22 7 22.1893 7 22.4237V23.5763C7 23.8107 7 24 7 24Z" fill="white" stroke="white" style="fill:white;fill-opacity:1;stroke:white;stroke-opacity:1;"/>
<path d="M15.5 24C15.2233 24 15 23.8107 15 23.5763V22.4237C15 22.1893 15.2233 22 15.5 22C15.7767 22 16 22.1893 16 22.4237V23.5763C16 23.8107 15.7767 24 15.5 24Z" fill="white" stroke="white" style="fill:white;fill-opacity:1;stroke:white;stroke-opacity:1;"/>
<path d="M7 26C7 26 7 25.8086 7 25.5272V24.7028C7 24.3864 7 24.0777 7 24.0113C7 23.9488 7 24.1519 7 24.4723V25.2967C7 25.6132 7 25.9219 7 25.9883C7 25.9961 7 26 7 26V26Z" fill="white" stroke="white" style="fill:white;fill-opacity:1;stroke:white;stroke-opacity:1;"/>
<path d="M15.4588 26C15.4374 26 15.4191 26 15.3978 25.9961C15.1475 25.953 14.9705 25.6592 15.0041 25.338L15.0895 24.5114C15.1231 24.1902 15.355 23.9591 15.6022 24.0061C15.8525 24.0492 16.0295 24.343 15.9959 24.6642L15.9105 25.4907C15.8799 25.7845 15.6846 26 15.4588 26Z" fill="white" stroke="white" style="fill:white;fill-opacity:1;stroke:white;stroke-opacity:1;"/>
<path d="M7 25C7 25 7 24.8791 7 24.7292V24.2708C7 24.1209 7 24 7 24C7 24 7 24.1209 7 24.2708V24.7292C7 24.8791 7 25 7 25Z" fill="white" stroke="white" style="fill:white;fill-opacity:1;stroke:white;stroke-opacity:1;"/>
<path d="M15.5 25C15.2233 25 15 24.8791 15 24.7292V24.2708C15 24.1209 15.2233 24 15.5 24C15.7767 24 16 24.1209 16 24.2708V24.7292C16 24.8791 15.7767 25 15.5 25Z" fill="white" stroke="white" style="fill:white;fill-opacity:1;stroke:white;stroke-opacity:1;"/>
<path d="M7 22C7 22 7 21.7216 7 21.3767V19.6233C7 19.2784 7 19 7 19C7 19 7 19.2784 7 19.6233V21.3767C7 21.7216 7 22 7 22Z" fill="white" stroke="white" style="fill:white;fill-opacity:1;stroke:white;stroke-opacity:1;"/>
<path d="M15.5 22C15.2233 22 15 21.7216 15 21.3767V19.6233C15 19.2784 15.2233 19 15.5 19C15.7767 19 16 19.2784 16 19.6233V21.3767C16 21.7216 15.7767 22 15.5 22Z" fill="white" stroke="white" style="fill:white;fill-opacity:1;stroke:white;stroke-opacity:1;"/>
<path d="M7 18C7 18 7 17.8248 7 17.6078V16.3922C7 16.1752 7 16 7 16C7 16 7 16.1752 7 16.3922V17.6078C7 17.8248 7 18 7 18Z" fill="white" stroke="white" style="fill:white;fill-opacity:1;stroke:white;stroke-opacity:1;"/>
<path d="M15.5 18C15.2233 18 15 17.8248 15 17.6078V16.3922C15 16.1752 15.2233 16 15.5 16C15.7767 16 16 16.1752 16 16.3922V17.6078C16 17.8248 15.7767 18 15.5 18Z" fill="white" stroke="white" style="fill:white;fill-opacity:1;stroke:white;stroke-opacity:1;"/>
<path d="M7 24C7 24 7 23.8788 7 23.7288V23.2712C7 23.1212 7 23 7 23C7 23 7 23.1212 7 23.2712V23.7288C7 23.8788 7 24 7 24Z" fill="white" stroke="white" style="fill:white;fill-opacity:1;stroke:white;stroke-opacity:1;"/>
<path d="M15.5 24C15.2233 24 15 23.8788 15 23.7288V23.2712C15 23.1212 15.2233 23 15.5 23C15.7767 23 16 23.1212 16 23.2712V23.7288C16 23.8788 15.7767 24 15.5 24Z" fill="white" stroke="white" style="fill:white;fill-opacity:1;stroke:white;stroke-opacity:1;"/>
<path d="M7 22C7 22 7 21.8788 7 21.7288V21.2712C7 21.1212 7 21 7 21C7 21 7 21.1212 7 21.2712V21.7288C7 21.8788 7 22 7 22Z" fill="white" stroke="white" style="fill:white;fill-opacity:1;stroke:white;stroke-opacity:1;"/>
<path d="M15.5 22C15.2233 22 15 21.8788 15 21.7288V21.2712C15 21.1212 15.2233 21 15.5 21C15.7767 21 16 21.1212 16 21.2712V21.7288C16 21.8788 15.7767 22 15.5 22Z" fill="white" stroke="white" style="fill:white;fill-opacity:1;stroke:white;stroke-opacity:1;"/>
<path d="M7 20C7 20 7 19.8757 7 19.7217V19.2783C7 19.1243 7 19 7 19C7 19 7 19.1243 7 19.2783V19.7217C7 19.8757 7 20 7 20Z" fill="white" stroke="white" style="fill:white;fill-opacity:1;stroke:white;stroke-opacity:1;"/>
<path d="M15.5 20C15.2233 20 15 19.8757 15 19.7217V19.2783C15 19.1243 15.2233 19 15.5 19C15.7767 19 16 19.1243 16 19.2783V19.7217C16 19.8757 15.7767 20 15.5 20Z" fill="white" stroke="white" style="fill:white;fill-opacity:1;stroke:white;stroke-opacity:1;"/>
<path d="M15.5207 26H15.4388C15.196 26 15 25.7957 15 25.5426C15 25.3565 15.1082 25.1949 15.2604 25.1248C15.3891 24.9967 15.588 24.9601 15.7576 25.0485C15.9741 25.1614 16.0619 25.4358 15.9536 25.6615L15.9127 25.7469C15.8396 25.9024 15.6874 26 15.5207 26Z" fill="white" stroke="white" style="fill:white;fill-opacity:1;stroke:white;stroke-opacity:1;"/>
<path d="M7 26V26C7 26 7 25.9024 7 25.7469V25.6615C7 25.4359 7 25.1615 7 25.0487C7 24.9481 7 25.009 7 25.1798C7 25.2621 7 25.3963 7 25.5426C7 25.7957 7 26 7 26Z" fill="white" stroke="white" style="fill:white;fill-opacity:1;stroke:white;stroke-opacity:1;"/>
<path d="M19.3907 8C19.3622 8 19.3336 7.99629 19.3051 7.98515C19.095 7.91831 18.9627 7.62124 19.0094 7.32046L19.152 6.40697L19.2221 5.4972C19.2454 5.1927 19.4426 4.9699 19.6527 5.00332C19.8654 5.03674 20.021 5.31153 19.9977 5.61974L19.925 6.55922C19.925 6.57778 19.9199 6.60006 19.9173 6.61863L19.772 7.56182C19.7305 7.82176 19.5723 7.99629 19.3933 7.99629L19.3907 8Z" fill="white" stroke="white" style="fill:white;fill-opacity:1;stroke:white;stroke-opacity:1;"/>
<path d="M2.60639 8C2.43482 8 2.27885 7.83649 2.23206 7.59122L2.0501 6.6473C2.0423 6.61014 2.0371 6.56926 2.0371 6.52838L2.00071 5.58818C1.98772 5.27974 2.15408 5.0196 2.36984 5.00102C2.58819 4.98244 2.76755 5.22028 2.78055 5.525L2.81434 6.40575L2.98591 7.2902C3.0431 7.5875 2.92092 7.89223 2.71556 7.9777C2.68177 7.99257 2.64538 8 2.61159 8H2.60639Z" fill="white" stroke="white" style="fill:white;fill-opacity:1;stroke:white;stroke-opacity:1;"/>
<path d="M2.5 7C2.22333 7 2 6.67904 2 6.28144V3.71856C2 3.32096 2.22333 3 2.5 3C2.77667 3 3 3.32096 3 3.71856V6.28144C3 6.67904 2.77667 7 2.5 7Z" fill="white" stroke="white" style="fill:white;fill-opacity:1;stroke:white;stroke-opacity:1;"/>
<path d="M19.5 7C19.2233 7 19 6.67904 19 6.28144V3.71856C19 3.32096 19.2233 3 19.5 3C19.7767 3 20 3.32096 20 3.71856V6.28144C20 6.67904 19.7767 7 19.5 7Z" fill="white" stroke="white" style="fill:white;fill-opacity:1;stroke:white;stroke-opacity:1;"/>
<path d="M5.50591 17C5.29854 17 5.10433 16.8696 5.03521 16.6692L2.02339 7.62373C1.9411 7.37246 2.08264 7.1053 2.34268 7.0226C2.60271 6.94309 2.87921 7.07985 2.96479 7.33112L5.97661 16.3766C6.0589 16.6279 5.91736 16.895 5.65732 16.9777C5.60795 16.9936 5.55528 17 5.50591 17Z" fill="white" stroke="white" style="fill:white;fill-opacity:1;stroke:white;stroke-opacity:1;"/>
<path d="M16.4941 17C16.4447 17 16.392 16.9936 16.3427 16.9777C16.0826 16.8982 15.9411 16.6279 16.0234 16.3766L19.0352 7.33112C19.1175 7.07985 19.3973 6.94309 19.6573 7.0226C19.9174 7.10212 20.0589 7.37246 19.9766 7.62373L16.9648 16.6692C16.899 16.8728 16.7048 17 16.4941 17Z" fill="white" stroke="white" style="fill:white;fill-opacity:1;stroke:white;stroke-opacity:1;"/>
<path d="M16.3196 19C16.1704 19 16.036 18.5243 16.0062 17.8254C15.972 17.0391 16.0829 16.2722 16.2578 16.1169L16.3367 16.0489L16.3623 15.9616L16.4241 15.583C16.5307 14.9423 16.7291 14.8064 16.8719 15.2918C17.0127 15.7771 17.0425 16.6896 16.9359 17.3303L16.8463 17.8739C16.8272 17.9807 16.8058 18.0875 16.7824 18.1652L16.663 18.5729C16.6246 18.6991 16.5798 18.7961 16.5329 18.835L16.3836 18.9709C16.3623 18.9903 16.341 19 16.3196 19Z" fill="white" stroke="white" style="fill:white;fill-opacity:1;stroke:white;stroke-opacity:1;"/>
<path d="M6.3423 18.9903C6.2895 18.9903 6.23669 18.9806 6.17949 18.9419L5.93308 18.8063C5.84948 18.7579 5.76587 18.6804 5.69547 18.5642L5.44906 18.1575C5.40066 18.0703 5.35226 17.9735 5.31705 17.867L5.13225 17.3247C4.91224 16.6855 4.97384 15.7752 5.26425 15.291C5.55906 14.8069 5.96828 14.9424 6.18829 15.5816L6.3159 15.9592L6.3819 16.0658L6.50071 16.1335C6.85272 16.3272 7.06833 17.1213 6.98033 17.896C6.90552 18.5545 6.63711 19 6.3423 19V18.9903Z" fill="white" stroke="white" style="fill:white;fill-opacity:1;stroke:white;stroke-opacity:1;"/>
<path d="M20.4983 4H3.50505C3.22559 4 3 3.77667 3 3.5C3 3.22333 3.22559 3 3.50505 3H20.4949C20.7744 3 21 3.22333 21 3.5C21 3.77667 20.7744 4 20.4949 4H20.4983Z" fill="white" stroke="white" style="fill:white;fill-opacity:1;stroke:white;stroke-opacity:1;"/>
<path d="M2.5 4C2.22333 4 2 3.78051 2 3.5086V0.4914C2 0.219492 2.22333 0 2.5 0C2.77667 0 3 0.219492 3 0.4914V3.5086C3 3.78051 2.77667 4 2.5 4Z" fill="white" stroke="white" style="fill:white;fill-opacity:1;stroke:white;stroke-opacity:1;"/>
<path d="M19.5 4C19.2233 4 19 3.78051 19 3.5086V0.4914C19 0.219492 19.2233 0 19.5 0C19.7767 0 20 0.219492 20 0.4914V3.5086C20 3.78051 19.7767 4 19.5 4Z" fill="white" stroke="white" style="fill:white;fill-opacity:1;stroke:white;stroke-opacity:1;"/>
<path d="M14.5397 18H6.46028C6.20559 18 6 17.5533 6 17C6 16.4467 6.20559 16 6.46028 16H14.5397C14.7944 16 15 16.4467 15 17C15 17.5533 14.7944 18 14.5397 18Z" fill="white" stroke="white" style="fill:white;fill-opacity:1;stroke:white;stroke-opacity:1;"/>
<path d="M15.6005 18H14.3995C14.1784 18 14 17.5533 14 17C14 16.4467 14.1784 16 14.3995 16H15.6005C15.8216 16 16 16.4467 16 17C16 17.5533 15.8216 18 15.6005 18Z" fill="white" stroke="white" style="fill:white;fill-opacity:1;stroke:white;stroke-opacity:1;"/>
<path d="M15.4712 27H7.52879C7.23619 27 7 26.5533 7 26C7 25.4467 7.23619 25 7.52879 25H15.4712C15.7638 25 16 25.4467 16 26C16 26.5533 15.7638 27 15.4712 27Z" fill="white" stroke="white" style="fill:white;fill-opacity:1;stroke:white;stroke-opacity:1;"/>
</g>
<defs>
<clipPath id="clip0_1800_854">
<rect width="40" height="40" fill="white" style="fill:white;fill-opacity:1;"/>
</clipPath>
</defs>
</svg>
