<svg width="40" height="40" viewBox="0 0 40 40" fill="none" xmlns="http://www.w3.org/2000/svg">
<path d="M38.5391 33.275L38.5415 33.2796C38.84 33.853 39.0005 34.5125 39 35.1896C38.9995 35.8666 38.838 36.5258 38.5386 37.0986L38.5357 37.1042C38.2266 37.705 37.7879 38.1883 37.276 38.516C36.7654 38.8428 36.1967 39.0059 35.6269 38.9998V38.9997H35.6162H4.38562V38.9997L4.37399 38.9998C3.80371 39.0064 3.23445 38.8436 2.72335 38.5167C2.21096 38.1891 1.77187 37.7055 1.46252 37.1042L1.45994 37.0993C1.16102 36.5262 1 35.8668 1 35.1898C1 34.5127 1.16102 33.8533 1.45995 33.2803L1.46267 33.275L17.0742 2.90851C17.0748 2.90738 17.0754 2.90625 17.076 2.90513C17.3903 2.30704 17.8312 1.82506 18.3443 1.49609C18.8572 1.16727 19.4279 1 20.0009 1C20.5739 1 21.1446 1.16727 21.6575 1.49609C22.1706 1.82506 22.6115 2.30704 22.9258 2.90513C22.9264 2.90625 22.927 2.90738 22.9276 2.90851L38.5391 33.275ZM18.2448 14.2026C17.8038 14.6966 17.5724 15.3447 17.5724 16V23.9999C17.5724 24.6552 17.8038 25.3032 18.2448 25.7973C18.6892 26.295 19.3179 26.5999 20.0009 26.5999C20.6839 26.5999 21.3126 26.295 21.7569 25.7973C22.198 25.3032 22.4294 24.6552 22.4294 23.9999V16C22.4294 15.3447 22.198 14.6966 21.7569 14.2026C21.3126 13.7049 20.6839 13.4 20.0009 13.4C19.3179 13.4 18.6892 13.7049 18.2448 14.2026ZM18.2113 33.9959C18.7294 34.3837 19.3523 34.5998 20.0009 34.5998C20.8733 34.5998 21.6837 34.2106 22.262 33.5629C22.837 32.9188 23.1436 32.0673 23.1436 31.1998C23.1436 30.551 22.9723 29.909 22.6413 29.3541C22.3099 28.7986 21.8277 28.3472 21.2417 28.0754C20.6537 27.8026 19.9987 27.7288 19.3654 27.8699C18.7335 28.0107 18.1705 28.3544 17.7398 28.8368C17.3101 29.318 17.0281 29.9182 16.9147 30.5568C16.8013 31.1952 16.8588 31.8579 17.0833 32.4651C17.308 33.0726 17.6948 33.6095 18.2113 33.9959Z" fill="#FCE17F" stroke="white" style="fill:#FCE17F;fill:color(display-p3 0.9899 0.8818 0.4983);fill-opacity:1;stroke:white;stroke-opacity:1;" stroke-width="2"/>
</svg>
