<?xml version="1.0" encoding="UTF-8"?>
<svg id="_圖層_8" data-name="圖層 8" xmlns="http://www.w3.org/2000/svg" viewBox="0 0 160 160">
  <path d="m84.29,68.28c-5.32,0-9.65-4.33-9.65-9.65s4.33-9.65,9.65-9.65,9.65,4.33,9.65,9.65-4.33,9.65-9.65,9.65Zm0-16.31c-3.67,0-6.65,2.99-6.65,6.65s2.99,6.65,6.65,6.65,6.65-2.98,6.65-6.65-2.99-6.65-6.65-6.65Z"/>
  <g>
    <rect x="91.56" y="53.49" width="37.57" height="3"/>
    <rect x="91.56" y="60.77" width="37.57" height="3"/>
  </g>
  <rect x="47.31" y="64.11" width="31.94" height="3" transform="translate(-25.86 46.54) rotate(-33.96)"/>
  <rect x="55.56" y="74.24" width="30.35" height="3" transform="translate(-31.07 56.37) rotate(-36.18)"/>
  <polygon points="98.2 126.94 62.23 126.56 30.34 102.13 32.16 99.75 63.26 123.57 87.65 123.83 53.39 102.2 54.99 99.67 98.2 126.94"/>
  <path d="m42.72,97.35c-4.49,0-8.13-3.65-8.13-8.13s3.65-8.13,8.13-8.13,8.13,3.65,8.13,8.13-3.65,8.13-8.13,8.13Zm0-13.27c-2.83,0-5.13,2.3-5.13,5.13s2.3,5.13,5.13,5.13,5.13-2.3,5.13-5.13-2.3-5.13-5.13-5.13Z"/>
  <path d="m42.72,107.12c-9.87,0-17.9-8.03-17.9-17.9s8.03-17.9,17.9-17.9,17.9,8.03,17.9,17.9-8.03,17.9-17.9,17.9Zm0-32.8c-8.22,0-14.9,6.68-14.9,14.9s6.68,14.9,14.9,14.9,14.9-6.68,14.9-14.9-6.68-14.9-14.9-14.9Z"/>
  <path d="m113.58,135.54H39.11v-11.54h74.47v11.54Zm-71.47-3h68.47v-5.54H42.11v5.54Z"/>
  <path d="m129.83,100.91h-13.95v-47.42h13.95v47.42Zm-10.95-3h7.95v-41.42h-7.95v41.42Z"/>
  <rect x="121.82" y="114" width="2" height="3.87"/>
  <polygon points="118.88 54.08 115.89 54 116.16 44.77 129.57 44.77 129.83 54 126.83 54.08 126.65 47.77 119.07 47.77 118.88 54.08"/>
  <path d="m120.16,113.27c-.83,0-1.5-.67-1.5-1.5v-.84c0-.83.67-1.5,1.5-1.5s1.5.67,1.5,1.5v.84c0,.83-.67,1.5-1.5,1.5Z"/>
  <path d="m125.47,113.27c-.83,0-1.5-.67-1.5-1.5v-.84c0-.83.67-1.5,1.5-1.5s1.5.67,1.5,1.5v.84c0,.83-.67,1.5-1.5,1.5Z"/>
  <path d="m120.25,114.75c-.7,0-1.33-.49-1.47-1.2l-.09-.44c-.16-.81.36-1.6,1.17-1.77.81-.16,1.6.36,1.77,1.17l.09.44c.16.81-.36,1.6-1.17,1.77-.1.02-.2.03-.3.03Z"/>
  <path d="m125.41,114.75c-.07,0-.13,0-.2-.01-.82-.11-1.4-.87-1.29-1.69l.06-.44c.11-.82.85-1.4,1.69-1.29.82.11,1.4.87,1.29,1.69l-.06.44c-.1.75-.75,1.3-1.48,1.3Z"/>
  <path d="m120.16,114.32c-.83,0-1.5-.67-1.5-1.5v-.52c0-.83.67-1.5,1.5-1.5s1.5.67,1.5,1.5v.52c0,.83-.67,1.5-1.5,1.5Z"/>
  <path d="m125.47,114.32c-.83,0-1.5-.67-1.5-1.5v-.52c0-.83.67-1.5,1.5-1.5s1.5.67,1.5,1.5v.52c0,.83-.67,1.5-1.5,1.5Z"/>
  <path d="m120.16,111.91c-.83,0-1.5-.67-1.5-1.5v-.87c0-.83.67-1.5,1.5-1.5s1.5.67,1.5,1.5v.87c0,.83-.67,1.5-1.5,1.5Z"/>
  <path d="m125.47,111.91c-.83,0-1.5-.67-1.5-1.5v-.87c0-.83.67-1.5,1.5-1.5s1.5.67,1.5,1.5v.87c0,.83-.67,1.5-1.5,1.5Z"/>
  <path d="m120.16,110.55c-.83,0-1.5-.67-1.5-1.5v-.96c0-.83.67-1.5,1.5-1.5s1.5.67,1.5,1.5v.96c0,.83-.67,1.5-1.5,1.5Z"/>
  <path d="m125.47,110.55c-.83,0-1.5-.67-1.5-1.5v-.96c0-.83.67-1.5,1.5-1.5s1.5.67,1.5,1.5v.96c0,.83-.67,1.5-1.5,1.5Z"/>
  <path d="m120.25,113.79c-.83,0-1.5-.67-1.5-1.5v-.52c0-.83.67-1.5,1.5-1.5s1.5.67,1.5,1.5v.52c0,.83-.67,1.5-1.5,1.5Z"/>
  <path d="m125.41,113.79c-.83,0-1.5-.67-1.5-1.5v-.52c0-.83.67-1.5,1.5-1.5s1.5.67,1.5,1.5v.52c0,.83-.67,1.5-1.5,1.5Z"/>
  <path d="m120.25,112.43c-.83,0-1.5-.67-1.5-1.5v-.52c0-.83.67-1.5,1.5-1.5s1.5.67,1.5,1.5v.52c0,.83-.67,1.5-1.5,1.5Z"/>
  <path d="m125.41,112.43c-.83,0-1.5-.67-1.5-1.5v-.52c0-.83.67-1.5,1.5-1.5s1.5.67,1.5,1.5v.52c0,.83-.67,1.5-1.5,1.5Z"/>
  <path d="m120.25,111.04c-.83,0-1.5-.67-1.5-1.5v-.49c0-.83.67-1.5,1.5-1.5s1.5.67,1.5,1.5v.49c0,.83-.67,1.5-1.5,1.5Z"/>
  <path d="m125.41,111.04c-.83,0-1.5-.67-1.5-1.5v-.49c0-.83.67-1.5,1.5-1.5s1.5.67,1.5,1.5v.49c0,.83-.67,1.5-1.5,1.5Z"/>
  <path d="m125.38,114.81c-.83,0-1.53-.67-1.53-1.5,0-.72.48-1.32,1.15-1.47.35-.1.73-.07,1.07.1.74.38,1.05,1.25.67,1.99-.26.5-.8.88-1.37.88Z"/>
  <path d="m120.31,114.81c-.57,0-1.12-.33-1.38-.84-.37-.74-.07-1.67.67-2.04.69-.34,1.51-.12,1.92.52.17.24.27.54.27.86,0,.83-.66,1.5-1.49,1.5Z"/>
  <path d="m128.22,103.5c-.11,0-.22-.01-.33-.04-.81-.18-1.32-.98-1.14-1.79l.15-.88c.09-.82.82-1.41,1.66-1.33.82.09,1.42.83,1.33,1.66l-.06.52c0,.05-.02.11-.03.16l-.12.52c-.16.7-.78,1.17-1.46,1.17Z"/>
  <path d="m117.44,103.5c-.66,0-1.26-.43-1.44-1.1l-.15-.52c-.03-.1-.05-.21-.05-.32l-.03-.52c-.04-.83.59-1.53,1.42-1.58.83-.03,1.53.59,1.58,1.42l.02.36.1.37c.22.8-.25,1.62-1.04,1.85-.13.04-.27.05-.4.05Z"/>
  <path d="m117.26,102.46c-.83,0-1.5-.67-1.5-1.5v-1.1c0-.83.67-1.5,1.5-1.5s1.5.67,1.5,1.5v1.1c0,.83-.67,1.5-1.5,1.5Z"/>
  <path d="m128.4,102.46c-.83,0-1.5-.67-1.5-1.5v-1.1c0-.83.67-1.5,1.5-1.5s1.5.67,1.5,1.5v1.1c0,.83-.67,1.5-1.5,1.5Z"/>
  <path d="m119.32,109.36c-.63,0-1.22-.4-1.43-1.04l-1.88-5.86c-.25-.79.18-1.63.97-1.89.79-.25,1.63.18,1.89.97l1.88,5.86c.25.79-.18,1.63-.97,1.89-.15.05-.31.07-.46.07Z"/>
  <path d="m126.34,109.36c-.15,0-.31-.02-.46-.07-.79-.25-1.22-1.1-.97-1.89l1.88-5.86c.25-.79,1.1-1.22,1.89-.97.79.25,1.22,1.1.97,1.89l-1.88,5.86c-.2.64-.79,1.04-1.43,1.04Z"/>
  <path d="m128.44,101.33c-.55,0-1.09-.29-1.35-.81-.38-.74-.11-1.63.63-2l.06-.03c.74-.38,1.64-.08,2.02.66.38.74.08,1.64-.66,2.02-.22.11-.46.17-.7.17Z"/>
  <path d="m125.99,109.59c-.7,0-1.33-.5-1.47-1.21-.13-.68.22-1.35.82-1.64.52-.47,1.32-.51,1.9-.08.66.5.79,1.44.29,2.1l-.09.12c-.08.11-.18.21-.29.29l-.12.09c-.18.14-.39.23-.62.28l-.14.03c-.1.02-.19.03-.29.03Z"/>
  <path d="m119.64,109.59c-.12,0-.24-.01-.36-.04l-.12-.03c-.2-.05-.39-.14-.55-.26l-.12-.09c-.11-.08-.21-.18-.29-.29l-.09-.12c-.5-.66-.37-1.6.29-2.1.59-.45,1.42-.39,1.94.11.58.32.91,1,.74,1.67-.17.69-.78,1.14-1.46,1.14Z"/>
  <path d="m121.21,115.33c-.38,0-.77-.15-1.06-.44l-.09-.09c-.59-.59-.59-1.54,0-2.12s1.54-.59,2.12,0l.09.09c.59.59.59,1.54,0,2.12-.29.29-.68.44-1.06.44Z"/>
  <path d="m124.43,115.33c-.45,0-.9-.21-1.2-.6-.5-.66-.37-1.6.29-2.1l.12-.09c.66-.5,1.6-.37,2.1.29.5.66.37,1.6-.29,2.1l-.12.09c-.27.2-.59.3-.9.3Z"/>
  <path d="m126.77,101.36h-7.89c-.83,0-1.5-.67-1.5-1.5s.67-1.5,1.5-1.5h7.89c.83,0,1.5.67,1.5,1.5s-.67,1.5-1.5,1.5Z"/>
  <path d="m128.4,101.36h-1.62c-.83,0-1.5-.67-1.5-1.5s.67-1.5,1.5-1.5h1.62c.83,0,1.5.67,1.5,1.5s-.67,1.5-1.5,1.5Z"/>
  <path d="m118.89,101.36h-1.62c-.83,0-1.5-.67-1.5-1.5s.67-1.5,1.5-1.5h1.62c.83,0,1.5.67,1.5,1.5s-.67,1.5-1.5,1.5Z"/>
  <path d="m125.06,109.59h-5.42c-.83,0-1.5-.67-1.5-1.5s.67-1.5,1.5-1.5h5.42c.83,0,1.5.67,1.5,1.5s-.67,1.5-1.5,1.5Z"/>
  <path d="m125.99,109.59h-.93c-.83,0-1.5-.67-1.5-1.5s.67-1.5,1.5-1.5h.93c.83,0,1.5.67,1.5,1.5s-.67,1.5-1.5,1.5Z"/>
  <path d="m124.54,115.24h-1.71c-.83,0-1.5-.67-1.5-1.5s.67-1.5,1.5-1.5h1.71c.83,0,1.5.67,1.5,1.5s-.67,1.5-1.5,1.5Z"/>
  <path d="m122.83,115.24h-1.71c-.83,0-1.5-.67-1.5-1.5s.67-1.5,1.5-1.5h1.71c.83,0,1.5.67,1.5,1.5s-.67,1.5-1.5,1.5Z"/>
  <path d="m122.83,115.33h-1.62c-.83,0-1.5-.67-1.5-1.5s.67-1.5,1.5-1.5h1.62c.83,0,1.5.67,1.5,1.5s-.67,1.5-1.5,1.5Z"/>
  <path d="m124.43,115.33h-1.59c-.83,0-1.5-.67-1.5-1.5s.67-1.5,1.5-1.5h1.59c.83,0,1.5.67,1.5,1.5s-.67,1.5-1.5,1.5Z"/>
  <path d="m126.34,109.36h-1.04c-.83,0-1.5-.67-1.5-1.5s.67-1.5,1.5-1.5h1.04c.83,0,1.5.67,1.5,1.5s-.67,1.5-1.5,1.5Z"/>
  <path d="m125.29,109.36h-5.97c-.83,0-1.5-.67-1.5-1.5s.67-1.5,1.5-1.5h5.97c.83,0,1.5.67,1.5,1.5s-.67,1.5-1.5,1.5Z"/>
  <rect x="131.42" y="60.61" width="2.23" height="19.39" rx="1.02" ry="1.02"/>
  <path d="m131.99,63.41h-13.52c-.83,0-1.5-.67-1.5-1.5s.67-1.5,1.5-1.5h13.52c.83,0,1.5.67,1.5,1.5s-.67,1.5-1.5,1.5Z"/>
  <polygon points="124.66 45.45 124.55 35.2 121.17 35.2 121.05 45.45 118.05 45.41 118.21 32.2 127.51 32.2 127.66 45.41 124.66 45.45"/>
  <rect x="121.36" y="25.62" width="3" height="8.08"/>
</svg>