<?xml version="1.0" encoding="UTF-8"?>
<svg class="nav-image" id="_圖層_8" data-name="圖層 8" xmlns="http://www.w3.org/2000/svg" viewBox="0 0 160 160">
  <path d="m129.79,135.88H29.49c-3.87,0-7.02-3.15-7.02-7.03V31.77c0-3.87,3.15-7.03,7.02-7.03h100.3c3.87,0,7.03,3.15,7.03,7.03v97.08c0,3.87-3.15,7.03-7.03,7.03ZM29.49,27.74c-2.22,0-4.02,1.81-4.02,4.03v97.08c0,2.22,1.81,4.03,4.02,4.03h100.3c2.22,0,4.03-1.81,4.03-4.03V31.77c0-2.22-1.81-4.03-4.03-4.03H29.49Z"/>
  <path d="m120.47,115.6H38.81c-3.87,0-7.03-3.15-7.03-7.03v-62.79c0-3.87,3.15-7.03,7.03-7.03h81.66c3.87,0,7.03,3.15,7.03,7.03v62.79c0,3.87-3.15,7.03-7.03,7.03ZM38.81,41.76c-2.22,0-4.03,1.81-4.03,4.03v62.79c0,2.22,1.81,4.03,4.03,4.03h81.66c2.22,0,4.03-1.81,4.03-4.03v-62.79c0-2.22-1.81-4.03-4.03-4.03H38.81Z"/>
  <path d="m79.64,129.4c-2.76,0-5-2.24-5-5s2.24-5,5-5,5,2.24,5,5-2.24,5-5,5Zm0-7c-1.1,0-2,.9-2,2s.9,2,2,2,2-.9,2-2-.9-2-2-2Z"/>
  <g>
    <g>
      <polygon points="81.42 95.8 78.42 95.8 78.42 71.17 71.66 71.17 71.66 68.17 81.42 68.17 81.42 95.8"/>
      <rect x="72.23" y="94.3" width="15.39" height="3"/>
    </g>
    <circle cx="79.57" cy="61.8" r="3.44"/>
  </g>
</svg>