<?xml version="1.0" encoding="UTF-8"?>
<svg class="nav-image" id="_圖層_8" data-name="圖層 8" xmlns="http://www.w3.org/2000/svg" viewBox="0 0 160 160">
  <g>
    <path d="m105.62,42.11c-.26,0-.53-.07-.77-.22l-25.91-15.61c-.71-.43-.94-1.35-.51-2.06.43-.71,1.35-.94,2.06-.51l25.91,15.61c.71.43.94,1.35.51,2.06-.28.47-.78.73-1.29.73Z"/>
    <path d="m79.16,57.81c-.26,0-.52-.07-.76-.21l-25.79-15.28c-.71-.42-.95-1.34-.53-2.06.42-.71,1.34-.95,2.05-.53l25.79,15.28c.71.42.95,1.34.53,2.06-.28.47-.78.74-1.29.74Z"/>
    <path d="m105.62,104.36c-.26,0-.52-.07-.76-.21l-53.27-31.13c-.71-.42-.96-1.34-.54-2.05.42-.72,1.34-.96,2.05-.54l53.27,31.13c.71.42.96,1.34.54,2.05-.28.48-.78.74-1.3.74Z"/>
    <path d="m134.04,89.44c-.26,0-.52-.07-.76-.21l-27.35-16.21c-.71-.42-.95-1.34-.53-2.06.42-.71,1.34-.95,2.05-.53l27.35,16.21c.71.42.95,1.34.53,2.05-.28.47-.78.74-1.29.74Z"/>
    <path d="m52.29,105.06c-.26,0-.52-.07-.76-.21l-26.36-15.62c-.71-.42-.95-1.34-.53-2.05.42-.71,1.34-.95,2.05-.53l26.36,15.62c.71.42.95,1.34.53,2.05-.28.47-.78.74-1.29.74Z"/>
    <path d="m52.29,135.88c-.26,0-.52-.07-.76-.21l-27.35-16.21c-.71-.42-.95-1.34-.53-2.05.42-.71,1.34-.95,2.05-.53l27.35,16.21c.71.42.95,1.34.53,2.05-.28.47-.78.74-1.29.74Z"/>
    <path d="m105.62,135.26c-.26,0-.52-.07-.75-.2l-26.63-15.52c-.72-.42-.96-1.33-.54-2.05.42-.72,1.34-.96,2.05-.54l26.63,15.52c.72.42.96,1.33.54,2.05-.28.48-.78.75-1.3.75Z"/>
  </g>
  <g>
    <path d="m52.35,42.11c-.52,0-1.03-.27-1.3-.76-.41-.72-.16-1.64.56-2.05l27.35-15.61c.72-.41,1.64-.16,2.05.56.41.72.16,1.64-.56,2.05l-27.35,15.61c-.24.13-.49.2-.74.2Z"/>
    <path d="m79.94,58.06c-.51,0-1-.26-1.28-.72-.43-.71-.2-1.63.51-2.06l25.67-15.53c.71-.43,1.63-.2,2.06.51.43.71.2,1.63-.51,2.06l-25.67,15.53c-.24.15-.51.22-.78.22Z"/>
    <path d="m52.03,104.36c-.52,0-1.03-.27-1.3-.76-.41-.72-.16-1.64.56-2.05l54.6-31.13c.72-.41,1.64-.16,2.05.56.41.72.16,1.64-.56,2.05l-54.6,31.13c-.23.13-.49.2-.74.2Z"/>
    <path d="m25.43,89.15c-.51,0-1.01-.26-1.29-.74-.42-.71-.19-1.63.53-2.05l26.86-15.91c.71-.42,1.63-.19,2.05.53.42.71.19,1.63-.53,2.06l-26.86,15.91c-.24.14-.5.21-.76.21Z"/>
    <path d="m106.69,105.06c-.52,0-1.02-.27-1.3-.75-.42-.72-.17-1.63.54-2.05l26.55-15.44c.71-.41,1.63-.17,2.05.54.42.72.17,1.63-.54,2.05l-26.55,15.44c-.24.14-.5.2-.75.2Z"/>
    <path d="m106.69,135.88c-.51,0-1.01-.26-1.29-.74-.42-.71-.19-1.63.53-2.05l27.35-16.21c.71-.42,1.63-.19,2.05.53.42.71.19,1.63-.53,2.05l-27.35,16.21c-.24.14-.5.21-.76.21Z"/>
    <path d="m53.37,135.26c-.5,0-.99-.25-1.28-.71-.44-.7-.22-1.63.49-2.06l25.2-15.59c.7-.44,1.63-.22,2.06.49.44.7.22,1.63-.49,2.06l-25.2,15.59c-.25.15-.52.22-.79.22Z"/>
  </g>
  <path d="m52.03,72.09c-.83,0-1.5-.67-1.5-1.5v-29.38c0-.83.67-1.5,1.5-1.5s1.5.67,1.5,1.5v29.38c0,.83-.67,1.5-1.5,1.5Z"/>
  <path d="m106.69,72.09c-.83,0-1.5-.67-1.5-1.5v-29.38c0-.83.67-1.5,1.5-1.5s1.5.67,1.5,1.5v29.38c0,.83-.67,1.5-1.5,1.5Z"/>
  <path d="m134.04,119.75c-.83,0-1.5-.67-1.5-1.5v-30.31c0-.83.67-1.5,1.5-1.5s1.5.67,1.5,1.5v30.31c0,.83-.67,1.5-1.5,1.5Z"/>
  <path d="m105.62,133.75c-.83,0-1.5-.67-1.5-1.5v-29.38c0-.83.67-1.5,1.5-1.5s1.5.67,1.5,1.5v29.38c0,.83-.67,1.5-1.5,1.5Z"/>
  <path d="m52.03,133.75c-.83,0-1.5-.67-1.5-1.5v-29.38c0-.83.67-1.5,1.5-1.5s1.5.67,1.5,1.5v29.38c0,.83-.67,1.5-1.5,1.5Z"/>
  <path d="m25.05,119.67c-.83,0-1.5-.67-1.5-1.5v-30.23c0-.83.67-1.5,1.5-1.5s1.5.67,1.5,1.5v30.23c0,.83-.67,1.5-1.5,1.5Z"/>
  <path d="m79.16,119.05c-.83,0-1.5-.67-1.5-1.5v-60.51c0-.83.67-1.5,1.5-1.5s1.5.67,1.5,1.5v60.51c0,.83-.67,1.5-1.5,1.5Z"/>
</svg>