<?xml version="1.0" encoding="UTF-8"?>
<svg id="_圖層_8" data-name="圖層 8" xmlns="http://www.w3.org/2000/svg" viewBox="0 0 160 160">
  <path d="m129.17,119.92H30.83c-3.58,0-6.5-2.92-6.5-6.5V31.81c0-3.58,2.92-6.5,6.5-6.5h98.35c3.58,0,6.5,2.92,6.5,6.5v81.61c0,3.58-2.92,6.5-6.5,6.5ZM30.83,28.31c-1.93,0-3.5,1.57-3.5,3.5v81.61c0,1.93,1.57,3.5,3.5,3.5h98.35c1.93,0,3.5-1.57,3.5-3.5V31.81c0-1.93-1.57-3.5-3.5-3.5H30.83Z"/>
  <path d="m118.61,99.42H41.39c-3.58,0-6.5-2.92-6.5-6.5v-46.9c0-3.58,2.92-6.5,6.5-6.5h77.22c3.58,0,6.5,2.92,6.5,6.5v46.9c0,3.58-2.92,6.5-6.5,6.5ZM41.39,42.53c-1.93,0-3.5,1.57-3.5,3.5v46.9c0,1.93,1.57,3.5,3.5,3.5h77.22c1.93,0,3.5-1.57,3.5-3.5v-46.9c0-1.93-1.57-3.5-3.5-3.5H41.39Z"/>
  <path d="m102.66,136.28h-45.31c-3.58,0-6.5-2.92-6.5-6.5v-5.85c0-3.58,2.92-6.5,6.5-6.5h45.31c3.58,0,6.5,2.92,6.5,6.5v5.85c0,3.58-2.92,6.5-6.5,6.5Zm-45.31-15.85c-1.93,0-3.5,1.57-3.5,3.5v5.85c0,1.93,1.57,3.5,3.5,3.5h45.31c1.93,0,3.5-1.57,3.5-3.5v-5.85c0-1.93-1.57-3.5-3.5-3.5h-45.31Z"/>
  <path d="m80,114.45c-2.93,0-5.32-2.38-5.32-5.32s2.38-5.32,5.32-5.32,5.31,2.38,5.31,5.32-2.38,5.32-5.31,5.32Zm0-7.63c-1.28,0-2.32,1.04-2.32,2.32s1.04,2.32,2.32,2.32,2.31-1.04,2.31-2.32-1.04-2.32-2.31-2.32Z"/>
</svg>