<?xml version="1.0" encoding="UTF-8"?>
<svg id="_圖層_8" data-name="圖層 8" xmlns="http://www.w3.org/2000/svg" viewBox="0 0 160 160">
  <rect x="23.87" y="78.5" width="112.26" height="3"/>
  <rect x="78.5" y="23.87" width="3" height="112.26"/>
  <path d="m80,95.56c-8.58,0-15.56-6.98-15.56-15.56s6.98-15.56,15.56-15.56,15.56,6.98,15.56,15.56-6.98,15.56-15.56,15.56Zm0-28.12c-6.92,0-12.56,5.63-12.56,12.56s5.63,12.56,12.56,12.56,12.56-5.63,12.56-12.56-5.63-12.56-12.56-12.56Z"/>
  <path d="m80,132.67c-29.04,0-52.67-23.63-52.67-52.67s23.63-52.67,52.67-52.67,52.67,23.63,52.67,52.67-23.63,52.67-52.67,52.67Zm0-102.35c-27.39,0-49.67,22.28-49.67,49.67s22.28,49.67,49.67,49.67,49.67-22.28,49.67-49.67-22.28-49.67-49.67-49.67Z"/>
  <path d="m80,105.78c-14.22,0-25.78-11.57-25.78-25.78s11.57-25.78,25.78-25.78,25.78,11.57,25.78,25.78-11.57,25.78-25.78,25.78Zm0-48.56c-12.56,0-22.78,10.22-22.78,22.78s10.22,22.78,22.78,22.78,22.78-10.22,22.78-22.78-10.22-22.78-22.78-22.78Z"/>
</svg>