<svg width="28" height="31" viewBox="0 0 28 31" fill="none" xmlns="http://www.w3.org/2000/svg">
<path d="M14.5833 19.3258V30.625H3.76916e-07C-0.00045225 28.8442 0.40676 27.0869 1.19044 25.4879C1.97411 23.8888 3.11345 22.4903 4.52115 21.3996C5.92885 20.3089 7.56755 19.555 9.31168 19.1955C11.0558 18.8361 12.8591 18.8806 14.5833 19.3258ZM11.6667 17.5C6.83229 17.5 2.91667 13.5844 2.91667 8.75C2.91667 3.91563 6.83229 0 11.6667 0C16.501 0 20.4167 3.91563 20.4167 8.75C20.4167 13.5844 16.501 17.5 11.6667 17.5ZM20.4167 23.3333V18.9583H23.3333V23.3333H27.7083V26.25H23.3333V30.625H20.4167V26.25H16.0417V23.3333H20.4167Z" fill="white"/>
</svg>
