<svg width="40" height="40" viewBox="0 0 40 40" fill="none" xmlns="http://www.w3.org/2000/svg">
<path d="M10 10H12.5V15H10V10ZM10 17.5H12.5V22.5H10V17.5ZM17.5 10H20V15H17.5V10ZM17.5 17.5H20V22.5H17.5V17.5ZM10 25H12.5V30H10V25ZM17.5 25H20V30H17.5V25ZM37.5 27.5H27.2875L30.5125 30.7375L28.75 32.5L22.5 26.25L28.75 20L30.5125 21.7625L27.2875 25H37.5V27.5ZM23.75 15H33.9625L30.7375 18.2375L32.5 20L38.75 13.75L32.5 7.5L30.7375 9.2625L33.9625 12.5H23.75V15Z" fill="#5B6378" style="fill:#5B6378;fill:color(display-p3 0.3569 0.3882 0.4706);fill-opacity:1;"/>
<path d="M35 32.5V35H5V5H25V7.5H27.5V5C27.5 4.33696 27.2366 3.70107 26.7678 3.23223C26.2989 2.76339 25.663 2.5 25 2.5H5C4.33696 2.5 3.70107 2.76339 3.23223 3.23223C2.76339 3.70107 2.5 4.33696 2.5 5V37.5H37.5V32.5H35Z" fill="#5B6378" style="fill:#5B6378;fill:color(display-p3 0.3569 0.3882 0.4706);fill-opacity:1;"/>
</svg>
