<svg width="117" height="117" viewBox="0 0 117 117" fill="none" xmlns="http://www.w3.org/2000/svg">
<path d="M85.1667 68.8948V91.0001M85.1667 91.0001L97 79.9475M85.1667 91.0001L73.3333 79.9475M26 32.0527V54.158C26 54.158 26 65.2106 53.6111 65.2106C81.2222 65.2106 81.2222 54.158 81.2222 54.158V32.0527" stroke="black" style="stroke:black;stroke-opacity:1;" stroke-width="2" stroke-linecap="round" stroke-linejoin="round"/>
<path d="M53.6111 87.3158C26 87.3158 26 76.2632 26 76.2632V54.1579M53.6111 21C81.2222 21 81.2222 32.0526 81.2222 32.0526C81.2222 32.0526 81.2222 43.1053 53.6111 43.1053C26 43.1053 26 32.0526 26 32.0526C26 32.0526 26 21 53.6111 21Z" stroke="black" style="stroke:black;stroke-opacity:1;" stroke-width="2" stroke-linecap="round" stroke-linejoin="round"/>
</svg>
