<svg width="118" height="118" viewBox="0 0 118 118" fill="none" xmlns="http://www.w3.org/2000/svg">
<path d="M98.8275 74.0805C98.8275 84.6392 90.3212 93.1982 79.8275 93.1982C76.4265 93.1982 73.2307 92.2997 70.4681 90.7225C67.5424 89.0539 65.1087 86.6345 63.4151 83.711C61.7215 80.7875 60.8287 77.4644 60.8275 74.0805C60.8275 69.1711 62.6667 64.6938 65.6877 61.31C67.4678 59.3102 69.6474 57.7111 72.0841 56.6173C74.5207 55.5236 77.1594 54.9598 79.8275 54.9629C90.3212 54.9629 98.8275 63.5219 98.8275 74.0805Z" stroke="black" stroke-width="2" stroke-linecap="round" stroke-linejoin="round"/>
<path d="M79.8275 37.757V54.9628C77.1594 54.9597 74.5207 55.5235 72.0841 56.6173C69.6474 57.711 67.4678 59.3101 65.6877 61.3099C62.5524 64.8147 60.8206 69.365 60.8275 74.0805C60.8287 77.4644 61.7215 80.7874 63.4151 83.7109C65.1087 86.6344 67.5424 89.0538 70.4681 90.7224C65.4103 92.2614 58.6957 93.1981 51.3275 93.1981C35.5879 93.1981 22.8275 88.9177 22.8275 83.6393V37.757" stroke="black" stroke-width="2" stroke-linecap="round" stroke-linejoin="round"/>
<path d="M22.8275 68.3452C22.8275 73.6236 35.5879 77.904 51.3275 77.904C54.7608 77.904 58.0535 77.7014 61.1011 77.3267M22.8275 53.0511C22.8275 58.3294 35.5879 62.6099 51.3275 62.6099C56.5639 62.6099 61.4716 62.1358 65.6877 61.3099M98.8275 74.0805H60.8275M79.8275 37.7569C79.8275 43.0353 67.0671 47.3158 51.3275 47.3158C35.5879 47.3158 22.8275 43.0353 22.8275 37.7569C22.8275 32.4786 35.5879 28.1981 51.3275 28.1981C67.0671 28.1981 79.8275 32.4786 79.8275 37.7569ZM79.8275 93.1981C79.8275 93.1981 73.1775 81.9914 73.1775 74.0805C73.1775 66.1715 79.8275 54.9628 79.8275 54.9628C79.8275 54.9628 86.4775 66.1715 86.4775 74.0805C86.4775 81.9914 79.8275 93.1981 79.8275 93.1981Z" stroke="black" stroke-width="2" stroke-linecap="round" stroke-linejoin="round"/>
</svg>
