<svg width="40" height="40" viewBox="0 0 40 40" fill="none" xmlns="http://www.w3.org/2000/svg">
<path d="M33.9976 34.3H5.99958C4.9193 34.3 4.04 33.44 4.04 32.3808V5.87907C4.04 4.82261 4.9193 3.95996 5.99958 3.95996H33.9976C35.0779 3.95996 35.96 4.81988 35.96 5.87907V32.3808C35.96 33.4373 35.0807 34.3 33.9976 34.3ZM5.99958 4.77893C5.37989 4.77893 4.87743 5.27304 4.87743 5.87907V32.3808C4.87743 32.9869 5.38268 33.481 5.99958 33.481H33.9976C34.6173 33.481 35.1226 32.9869 35.1226 32.3808V5.87907C35.1226 5.27304 34.6173 4.77893 33.9976 4.77893H5.99958Z" fill="white" stroke="white" style="fill:white;fill-opacity:1;stroke:white;stroke-opacity:1;" stroke-width="2"/>
<path d="M29.7255 26.1599H10.2745C9.3527 26.1599 8.6 25.4319 8.6 24.5353V10.0245C8.6 9.13018 9.35031 8.3999 10.2745 8.3999H29.7255C30.6473 8.3999 31.4 9.12787 31.4 10.0245V24.5353C31.4 25.4296 30.6497 26.1599 29.7255 26.1599ZM10.2745 9.09551C9.74572 9.09551 9.31458 9.5138 9.31458 10.0268V24.5376C9.31458 25.0506 9.74572 25.4689 10.2745 25.4689H29.7255C30.2543 25.4689 30.6854 25.0506 30.6854 24.5376V10.0268C30.6854 9.5138 30.2543 9.09551 29.7255 9.09551H10.2745Z" fill="white" stroke="white" style="fill:white;fill-opacity:1;stroke:white;stroke-opacity:1;" stroke-width="2"/>
<path d="M20.76 31.3399C19.921 31.3399 19.24 30.6768 19.24 29.8599C19.24 29.0429 19.921 28.3799 20.76 28.3799C21.599 28.3799 22.28 29.0429 22.28 29.8599C22.28 30.6768 21.599 31.3399 20.76 31.3399ZM20.76 29.2679C20.4256 29.2679 20.152 29.5343 20.152 29.8599C20.152 30.1855 20.4256 30.4519 20.76 30.4519C21.0944 30.4519 21.368 30.1855 21.368 29.8599C21.368 29.5343 21.0944 29.2679 20.76 29.2679Z" fill="white" style="fill:white;fill-opacity:1;"/>
<mask id="path-4-inside-1_1847_656" fill="white">
<path d="M20.7095 21.2492H19.7519V15.4922H17.5941V14.791H20.7095V21.2492Z"/>
</mask>
<path d="M20.7095 21.2492H19.7519V15.4922H17.5941V14.791H20.7095V21.2492Z" fill="white" stroke="white" style="fill:white;fill-opacity:1;stroke:white;stroke-opacity:1;" stroke-width="2" mask="url(#path-4-inside-1_1847_656)"/>
<mask id="path-5-inside-2_1847_656" fill="white">
<path d="M22.6886 20.8987H17.776V21.5999H22.6886V20.8987Z"/>
</mask>
<path d="M22.6886 20.8987H17.776V21.5999H22.6886V20.8987Z" fill="white" stroke="white" style="fill:white;fill-opacity:1;stroke:white;stroke-opacity:1;" stroke-width="2" mask="url(#path-5-inside-2_1847_656)"/>
<mask id="path-6-inside-3_1847_656" fill="white">
<path d="M20.119 14.1062C20.7254 14.1062 21.2171 13.7462 21.2171 13.3021C21.2171 12.858 20.7254 12.498 20.119 12.498C19.5125 12.498 19.0209 12.858 19.0209 13.3021C19.0209 13.7462 19.5125 14.1062 20.119 14.1062Z"/>
</mask>
<path d="M20.119 14.1062C20.7254 14.1062 21.2171 13.7462 21.2171 13.3021C21.2171 12.858 20.7254 12.498 20.119 12.498C19.5125 12.498 19.0209 12.858 19.0209 13.3021C19.0209 13.7462 19.5125 14.1062 20.119 14.1062Z" fill="white" stroke="white" style="fill:white;fill-opacity:1;stroke:white;stroke-opacity:1;" stroke-width="2" mask="url(#path-6-inside-3_1847_656)"/>
</svg>
