<svg width="24" height="27" viewBox="0 0 24 27" fill="none" xmlns="http://www.w3.org/2000/svg">
<path d="M14.5849 13.125V24.6167C14.6433 25.0542 14.4974 25.5208 14.162 25.8271C14.0271 25.9623 13.8669 26.0695 13.6904 26.1427C13.514 26.2159 13.3249 26.2536 13.1339 26.2536C12.9429 26.2536 12.7538 26.2159 12.5774 26.1427C12.401 26.0695 12.2407 25.9623 12.1058 25.8271L9.17453 22.8958C9.01548 22.7404 8.89454 22.5502 8.82118 22.3402C8.74781 22.1302 8.724 21.9061 8.75162 21.6854V13.125H8.70787L0.307865 2.3625C0.0710439 2.05848 -0.0358146 1.67308 0.0106393 1.29052C0.0570933 0.907961 0.253083 0.559338 0.555782 0.320833C0.832865 0.116667 1.13912 0 1.45995 0H21.8766C22.1974 0 22.5037 0.116667 22.7808 0.320833C23.0835 0.559338 23.2795 0.907961 23.3259 1.29052C23.3724 1.67308 23.2655 2.05848 23.0287 2.3625L14.6287 13.125H14.5849Z" fill="white"/>
</svg>
