<svg width="40" height="40" viewBox="0 0 40 40" fill="none" xmlns="http://www.w3.org/2000/svg">
<path d="M30 17H13V18H30V17Z" fill="white" stroke="white" style="fill:white;fill-opacity:1;stroke:white;stroke-opacity:1;"/>
<path d="M30 21H13V22H30V21Z" fill="white" stroke="white" style="fill:white;fill-opacity:1;stroke:white;stroke-opacity:1;"/>
<path d="M30 25H13V26H30V25Z" fill="white" stroke="white" style="fill:white;fill-opacity:1;stroke:white;stroke-opacity:1;"/>
<path d="M33.9764 31.9967H11.0165C9.35246 31.9967 8 30.7242 8 29.1586V4.83811C8 3.27249 9.35246 2 11.0165 2H27.6744L37 10.7742V29.1619C37 30.7275 35.644 32 33.98 32L33.9764 31.9967ZM11.0165 2.99933C9.94018 2.99933 9.06214 3.82545 9.06214 4.83811V29.1619C9.06214 30.1746 9.94018 31.0007 11.0165 31.0007H33.98C35.0598 31.0007 35.9379 30.1746 35.9379 29.1619V11.1872L27.2354 2.99933H11.0165Z" fill="white" stroke="white" style="fill:white;fill-opacity:1;stroke:white;stroke-opacity:1;" stroke-width="0.5"/>
<path d="M30 34.9968H7.9027C6.30144 34.9968 5 33.7788 5 32.2801V9H6.02208V32.2833C6.02208 33.2526 6.86699 34.0434 7.9027 34.0434H30V35V34.9968Z" fill="white" stroke="white" style="fill:white;fill-opacity:1;stroke:white;stroke-opacity:1;" stroke-width="0.5"/>
<path d="M35 12H29.9112C28.3059 12 27 10.6391 27 8.96942V4H27.8804V8.96942C27.8804 10.1346 28.7902 11.0826 29.9112 11.0826H35V12Z" fill="white" stroke="white" style="fill:white;fill-opacity:1;stroke:white;stroke-opacity:1;"/>
<path d="M27 38H4.9027C3.30144 38 2 36.7351 2 35.1788V11H3.02208V35.1788C3.02208 36.1854 3.86699 37.0066 4.9027 37.0066H27V38Z" fill="white" stroke="white" style="fill:white;fill-opacity:1;stroke:white;stroke-opacity:1;" stroke-width="0.5"/>
</svg>
