<?xml version="1.0" encoding="UTF-8"?>
<svg id="_圖層_1" data-name="圖層 1" xmlns="http://www.w3.org/2000/svg" viewBox="0 0 800 800">
  <defs>
    <style>
      .cls-1 {
        fill: #e50012;
      }

      .cls-2 {
        fill: #231815;
      }
    </style>
  </defs>
  <polygon class="cls-2" points="104.55 399.93 359.32 700 20.75 700 20.75 101 359.32 101 104.55 399.93"/>
  <polygon class="cls-1" points="424.53 676.8 444.24 700 716.74 700 735.74 676.8 424.53 676.8"/>
  <polygon class="cls-1" points="385.78 631.16 411.23 661.11 568.12 661.11 557.97 648.64 756.1 648.64 767.53 631.11 385.78 631.16"/>
  <polygon class="cls-1" points="347.92 586.52 374.89 618.31 531.71 618.31 521.12 605.2 778.12 605.2 784.46 586.52 347.92 586.52"/>
  <path class="cls-1" d="m787.01,542.32c2.53,10.21,0,19,0,19h-302.3l9.74,12.44h-157.42l-26.66-31.42"/>
  <path class="cls-1" d="m772.58,498.83l8.46,17.91h-332.76c2.25,2.24,10.57,13.14,10.57,13.14h-159.03l-26.39-31.04h499.14Z"/>
  <path class="cls-1" d="m235.57,454.2l26.08,30.75h159.91s-5.42-5.57-9.74-12.43h343.76l-15.23-18.32H235.57Z"/>
  <path class="cls-1" d="m198.04,410.02l26.69,31.42h160.42l-9.31-12.06h340.79s-16.19-16.18-19.36-19.36H198.04Z"/>
  <path class="cls-1" d="m656.07,367.63l17.55,17.56h-305.12c-2.88,1.16-11.34,13.07-11.34,13.07h-166.23l26.07-30.63"/>
  <path class="cls-1" d="m626.11,323.41c4.03,10.23,10.97,18.3,10.97,18.3h-231.68c-4.39,0-12.06,12.05-12.06,12.05h-164.51l25.85-30.34"/>
  <path class="cls-1" d="m292.06,279.55l-26.48,31.11h163.58l10.96-12.81h177.98s-3.3-9.51-3.3-18.31h-322.73Z"/>
  <path class="cls-1" d="m329.43,235.73l-26.46,31.06h163.8l8.42-12.76h142.89s2.92-12.11,5.48-18.3h-294.13Z"/>
  <path class="cls-1" d="m367.43,191.14l-27.09,31.79h161.18s9.13-10.96,11.32-13.15h124.62s8.38-14.24,12.78-18.64h-282.81Z"/>
  <path class="cls-1" d="m405.12,146.93l-26.48,31.08h160.13s8.22-8.26,11.7-11.7h121.69s11.51-13.35,17.53-19.38h-284.56Z"/>
  <path class="cls-1" d="m748.17,101h-303.93l-27.98,32.84h157.95s5.95-5.93,11.76-11.76h134.4s19.38-16.6,27.79-21.08Z"/>
</svg>