<svg width="40" height="40" viewBox="0 0 40 40" fill="none" xmlns="http://www.w3.org/2000/svg">
<path d="M7.87643 31.8577C4.63988 31.8577 2.00694 29.3977 2 26.3722C2 24.9008 2.60707 23.5187 3.72061 22.4771C4.82721 21.4389 6.30152 20.8668 7.86949 20.8635H7.8799C11.1164 20.8635 13.7529 23.3236 13.7563 26.3524C13.7563 27.8238 13.1493 29.2059 12.0357 30.2441C10.9291 31.2824 9.45481 31.8544 7.88684 31.8577H7.87643ZM3.04069 26.3689C3.04416 28.8488 5.21226 30.8658 7.87643 30.8658H7.88337C9.17729 30.8658 10.3949 30.3929 11.3072 29.5365C12.2161 28.6835 12.7156 27.5526 12.7156 26.3524C12.7122 23.8692 10.5406 21.8522 7.8799 21.8522H7.87296C6.57903 21.8522 5.3649 22.325 4.45256 23.1814C3.54369 24.0345 3.04416 25.1653 3.04416 26.3656L3.04069 26.3689Z" fill="white" stroke="white" style="fill:white;fill-opacity:1;stroke:white;stroke-opacity:1;" stroke-width="2"/>
<path d="M13.7563 38.9997H2V38.5037C2 34.2912 4.63641 30.8623 7.8799 30.8623C11.1234 30.8623 13.7563 34.2912 13.7563 38.5037V38.9997ZM3.05457 38.0077H12.7018C12.5179 34.5722 10.4227 31.8543 7.87643 31.8543C5.33021 31.8543 3.23842 34.5722 3.0511 38.0077H3.05457Z" fill="white" stroke="white" style="fill:white;fill-opacity:1;stroke:white;stroke-opacity:1;" stroke-width="2"/>
<path d="M20.4965 31.8577C17.26 31.8577 14.6271 29.3977 14.6201 26.3722C14.6201 24.9008 15.2272 23.5187 16.3373 22.4771C17.4439 21.4389 18.9182 20.8668 20.4861 20.8635H20.4965C23.7331 20.8635 26.3695 23.3236 26.3764 26.3524C26.3764 27.8238 25.7694 29.2059 24.6558 30.2441C23.5492 31.2824 22.0749 31.8544 20.507 31.8577H20.4965ZM20.4965 21.8555H20.4896C19.1957 21.8555 17.9815 22.3283 17.0692 23.1847C16.1603 24.0378 15.6608 25.1686 15.6608 26.3689C15.6643 28.8488 17.8324 30.8658 20.4965 30.8658H20.5035C21.7974 30.8658 23.015 30.3929 23.9274 29.5365C24.8362 28.6835 25.3358 27.5526 25.3358 26.3524C25.3323 23.8692 23.1607 21.8522 20.4965 21.8522V21.8555Z" fill="white" stroke="white" style="fill:white;fill-opacity:1;stroke:white;stroke-opacity:1;" stroke-width="2"/>
<path d="M26.3799 38.9997H14.6236V38.5037C14.6236 34.2912 17.26 30.8623 20.5 30.8623C23.74 30.8623 26.3799 34.2912 26.3799 38.5037V38.9997ZM15.6781 38.0077H25.3253C25.1415 34.5722 23.0462 31.8543 20.5 31.8543C17.9538 31.8543 15.862 34.5722 15.6747 38.0077H15.6781Z" fill="white" stroke="white" style="fill:white;fill-opacity:1;stroke:white;stroke-opacity:1;" stroke-width="2"/>
<path d="M33.1201 31.8577C29.8835 31.8577 27.2506 29.3977 27.2437 26.3722C27.2437 24.9008 27.8507 23.5187 28.9608 22.4771C30.0674 21.4389 31.5417 20.8668 33.1097 20.8635H33.1201C36.3566 20.8635 38.993 23.3236 38.9965 26.3524C38.9965 27.8238 38.3894 29.2059 37.2759 30.2441C36.1693 31.2824 34.695 31.8544 33.127 31.8577H33.1166H33.1201ZM28.2843 26.3689C28.2878 28.8488 30.4559 30.8658 33.1201 30.8658H33.127C34.4209 30.8658 35.6385 30.3929 36.5509 29.5365C37.4598 28.6835 37.9593 27.5526 37.9593 26.3524C37.9558 23.8692 35.7842 21.8522 33.1235 21.8522H33.1166C31.8227 21.8522 30.6086 22.325 29.6962 23.1814C28.7873 24.0345 28.2878 25.1653 28.2878 26.3656L28.2843 26.3689Z" fill="white" stroke="white" style="fill:white;fill-opacity:1;stroke:white;stroke-opacity:1;" stroke-width="2"/>
<path d="M39 38.9997H27.2437V38.5037C27.2437 34.2912 29.8801 30.8623 33.1235 30.8623C36.367 30.8623 39 34.2912 39 38.5037V38.9997ZM28.2982 38.0077H37.9454C37.7616 34.5722 35.6663 31.8543 33.1201 31.8543C30.5739 31.8543 28.4821 34.5722 28.2947 38.0077H28.2982Z" fill="white" stroke="white" style="fill:white;fill-opacity:1;stroke:white;stroke-opacity:1;" stroke-width="2"/>
<path d="M38.2888 20.4008H37.2482V17.2067L34.3758 17.1869L34.2961 16.7835C34.1573 16.0693 33.9561 15.365 33.7029 14.6905C33.5606 14.3168 33.4011 13.9531 33.2207 13.5861L33.0334 13.2058L35.4512 11.6253L33.127 8.39813L30.6745 10.0051L30.3692 9.71743C29.3771 8.7883 28.2531 8.00796 27.0286 7.39295L26.64 7.19786L27.5663 4.44683L23.6602 3.24656L22.7236 6.03066L22.2934 5.97775C20.9371 5.81243 19.5634 5.83888 18.2105 6.05711L17.7803 6.12655L16.7362 3.35898L12.8717 4.6849L13.9194 7.45577L13.5412 7.66408C12.4069 8.28571 11.3766 9.04952 10.4781 9.93897L10.1763 10.2366L7.61971 8.62959L5.35794 11.8997L7.90069 13.4902L7.72378 13.8737C7.32138 14.7434 7.01611 15.6593 6.82185 16.5917L6.73859 16.9951L3.75181 16.972V20.3975H2.71112V15.9734L5.89216 15.9965C6.06908 15.2691 6.30497 14.5549 6.59983 13.8638L3.91832 12.1841L7.32831 7.25407L10.0376 8.95693C10.825 8.22288 11.7027 7.5748 12.6497 7.01931L11.5431 4.08973L17.364 2.09258L18.4706 5.01886C19.6431 4.86345 20.8261 4.84031 21.9986 4.94942L22.9907 2L28.8775 3.80867L27.8993 6.7118C28.94 7.2706 29.9113 7.94514 30.7889 8.72217L33.3976 7.0127L36.9013 11.8766L34.3481 13.5431C34.4695 13.8076 34.5805 14.0754 34.6846 14.3466C34.9101 14.9451 35.0939 15.5634 35.2362 16.1916L38.2888 16.2115V20.3876V20.4008Z" fill="white" stroke="white" style="fill:white;fill-opacity:1;stroke:white;stroke-opacity:1;" stroke-width="2"/>
<path d="M12.6566 21.7467C12.1744 20.0306 12.334 18.1922 13.1076 16.5687C14.0026 14.6939 15.6122 13.2622 17.6415 12.5381C19.6674 11.8139 21.8702 11.8867 23.8371 12.7397C27.4483 14.307 29.3285 18.093 28.3086 21.7434L27.3026 21.4888C28.1907 18.3079 26.5498 15.008 23.4035 13.6424C21.6898 12.8985 19.7715 12.8356 18.0058 13.4639C16.2401 14.0954 14.8351 15.342 14.0546 16.9754C13.3712 18.4104 13.2325 19.9678 13.6592 21.4822L12.6532 21.7401L12.6566 21.7467Z" fill="white" stroke="white" style="fill:white;fill-opacity:1;stroke:white;stroke-opacity:1;" stroke-width="2"/>
</svg>
