<?xml version="1.0" encoding="UTF-8"?>
<svg id="_圖層_1" data-name="圖層 1" xmlns="http://www.w3.org/2000/svg" viewBox="0 0 160 160">
  <defs>
    <style>
      .cls-1 {
        fill: none;
        stroke: #000;
        stroke-linecap: round;
        stroke-linejoin: round;
        stroke-width: 3px;
      }
    </style>
  </defs>
  <g>
    <line class="cls-1" x1="79.67" y1="30.85" x2="102.07" y2="44.99"/>
    <line class="cls-1" x1="56.91" y1="45.37" x2="79.2" y2="59.21"/>
    <line class="cls-1" x1="56.04" y1="73.18" x2="102.07" y2="101.38"/>
    <line class="cls-1" x1="103" y1="73.18" x2="126.63" y2="87.86"/>
    <line class="cls-1" x1="33.21" y1="87.86" x2="55.99" y2="102.01"/>
    <line class="cls-1" x1="32.35" y1="115.25" x2="55.99" y2="129.93"/>
    <line class="cls-1" x1="79.06" y1="115.31" x2="102.07" y2="129.37"/>
  </g>
  <g>
    <line class="cls-1" x1="79.67" y1="30.85" x2="56.04" y2="44.99"/>
    <line class="cls-1" x1="102.07" y1="45.37" x2="79.88" y2="59.43"/>
    <line class="cls-1" x1="102.94" y1="73.18" x2="55.76" y2="101.38"/>
    <line class="cls-1" x1="55.99" y1="73.18" x2="32.78" y2="87.6"/>
    <line class="cls-1" x1="125.93" y1="88.03" x2="103" y2="102.01"/>
    <line class="cls-1" x1="126.63" y1="115.25" x2="103" y2="129.93"/>
    <line class="cls-1" x1="78.69" y1="115.25" x2="56.91" y2="129.37"/>
  </g>
  <line class="cls-1" x1="55.76" y1="45.53" x2="55.76" y2="72.14"/>
  <line class="cls-1" x1="103" y1="45.53" x2="103" y2="72.14"/>
  <line class="cls-1" x1="126.63" y1="87.86" x2="126.63" y2="115.32"/>
  <line class="cls-1" x1="102.07" y1="101.38" x2="102.07" y2="128"/>
  <line class="cls-1" x1="55.76" y1="101.38" x2="55.76" y2="128"/>
  <line class="cls-1" x1="32.45" y1="87.86" x2="32.45" y2="115.25"/>
  <line class="cls-1" x1="79.2" y1="59.88" x2="79.2" y2="114.69"/>
</svg>