<svg width="118" height="118" viewBox="0 0 118 118" fill="none" xmlns="http://www.w3.org/2000/svg">
<path d="M49.1667 108.167C38.7348 108.167 28.7302 104.023 21.3538 96.6461C13.9774 89.2697 9.83334 79.2651 9.83334 68.8333C9.83334 58.4014 13.9774 48.3968 21.3538 41.0204C28.7302 33.644 38.7348 29.4999 49.1667 29.4999C59.5985 29.4999 69.6031 33.644 76.9795 41.0204C84.356 48.3968 88.5 58.4014 88.5 68.8333C88.5 79.2651 84.356 89.2697 76.9795 96.6461C69.6031 104.023 59.5985 108.167 49.1667 108.167ZM49.1667 98.3333C53.0407 98.3333 56.8767 97.5702 60.4558 96.0877C64.0349 94.6052 67.287 92.4322 70.0263 89.6929C72.7656 86.9536 74.9386 83.7015 76.4211 80.1224C77.9036 76.5433 78.6667 72.7072 78.6667 68.8333C78.6667 64.9593 77.9036 61.1232 76.4211 57.5441C74.9386 53.965 72.7656 50.7129 70.0263 47.9736C67.287 45.2343 64.0349 43.0613 60.4558 41.5788C56.8767 40.0963 53.0407 39.3333 49.1667 39.3333C41.3428 39.3333 33.8393 42.4413 28.307 47.9736C22.7747 53.5059 19.6667 61.0094 19.6667 68.8333C19.6667 76.6571 22.7747 84.1606 28.307 89.6929C33.8393 95.2252 41.3428 98.3333 49.1667 98.3333ZM63.9167 73.7499C63.9167 77.6619 62.3627 81.4136 59.5965 84.1797C56.8303 86.9459 53.0786 88.4999 49.1667 88.4999C45.2547 88.4999 41.503 86.9459 38.7368 84.1797C35.9707 81.4136 34.4167 77.6619 34.4167 73.7499H63.9167ZM39.3333 63.9166C40.6373 63.9166 41.8879 63.3986 42.8099 62.4765C43.732 61.5545 44.25 60.3039 44.25 58.9999C44.25 57.6959 43.732 56.4454 42.8099 55.5233C41.8879 54.6013 40.6373 54.0833 39.3333 54.0833C38.0294 54.0833 36.7788 54.6013 35.8567 55.5233C34.9347 56.4454 34.4167 57.6959 34.4167 58.9999C34.4167 60.3039 34.9347 61.5545 35.8567 62.4765C36.7788 63.3986 38.0294 63.9166 39.3333 63.9166ZM59 63.9166C57.696 63.9166 56.4454 63.3986 55.5234 62.4765C54.6013 61.5545 54.0833 60.3039 54.0833 58.9999C54.0833 57.6959 54.6013 56.4454 55.5234 55.5233C56.4454 54.6013 57.696 54.0833 59 54.0833C60.304 54.0833 61.5546 54.6013 62.4766 55.5233C63.3987 56.4454 63.9167 57.6959 63.9167 58.9999C63.9167 60.3039 63.3987 61.5545 62.4766 62.4765C61.5546 63.3986 60.304 63.9166 59 63.9166ZM91.5729 39.3333C87.5068 38.4483 74.9792 31.5158 74.9792 19.052C74.9792 17.1171 75.588 15.2313 76.7193 13.6617C77.8506 12.0921 79.4471 10.9182 81.2827 10.3063C83.1182 9.69447 85.0998 9.67567 86.9467 10.2526C88.7935 10.8295 90.412 11.9729 91.5729 13.5208C92.7338 11.9729 94.3523 10.8295 96.1992 10.2526C98.046 9.67567 100.028 9.69447 101.863 10.3063C103.699 10.9182 105.295 12.0921 106.427 13.6617C107.558 15.2313 108.167 17.1171 108.167 19.052C108.167 31.5158 95.639 38.4483 91.5729 39.3333Z" fill="#555555" style="fill:#555555;fill:color(display-p3 0.3333 0.3333 0.3333);fill-opacity:1;"/>
<path d="M49.1667 108.167C38.7348 108.167 28.7302 104.023 21.3538 96.6461C13.9774 89.2697 9.83334 79.2651 9.83334 68.8333C9.83334 58.4014 13.9774 48.3968 21.3538 41.0204C28.7302 33.644 38.7348 29.4999 49.1667 29.4999C59.5985 29.4999 69.6031 33.644 76.9795 41.0204C84.356 48.3968 88.5 58.4014 88.5 68.8333C88.5 79.2651 84.356 89.2697 76.9795 96.6461C69.6031 104.023 59.5985 108.167 49.1667 108.167ZM49.1667 98.3333C53.0407 98.3333 56.8767 97.5702 60.4558 96.0877C64.0349 94.6052 67.287 92.4322 70.0263 89.6929C72.7656 86.9536 74.9386 83.7015 76.4211 80.1224C77.9036 76.5433 78.6667 72.7072 78.6667 68.8333C78.6667 64.9593 77.9036 61.1232 76.4211 57.5441C74.9386 53.965 72.7656 50.7129 70.0263 47.9736C67.287 45.2343 64.0349 43.0613 60.4558 41.5788C56.8767 40.0963 53.0407 39.3333 49.1667 39.3333C41.3428 39.3333 33.8393 42.4413 28.307 47.9736C22.7747 53.5059 19.6667 61.0094 19.6667 68.8333C19.6667 76.6571 22.7747 84.1606 28.307 89.6929C33.8393 95.2252 41.3428 98.3333 49.1667 98.3333ZM63.9167 73.7499C63.9167 77.6619 62.3627 81.4136 59.5965 84.1797C56.8303 86.9459 53.0786 88.4999 49.1667 88.4999C45.2547 88.4999 41.503 86.9459 38.7368 84.1797C35.9707 81.4136 34.4167 77.6619 34.4167 73.7499H63.9167ZM39.3333 63.9166C40.6373 63.9166 41.8879 63.3986 42.8099 62.4765C43.732 61.5545 44.25 60.3039 44.25 58.9999C44.25 57.6959 43.732 56.4454 42.8099 55.5233C41.8879 54.6013 40.6373 54.0833 39.3333 54.0833C38.0294 54.0833 36.7788 54.6013 35.8567 55.5233C34.9347 56.4454 34.4167 57.6959 34.4167 58.9999C34.4167 60.3039 34.9347 61.5545 35.8567 62.4765C36.7788 63.3986 38.0294 63.9166 39.3333 63.9166ZM59 63.9166C57.696 63.9166 56.4454 63.3986 55.5234 62.4765C54.6013 61.5545 54.0833 60.3039 54.0833 58.9999C54.0833 57.6959 54.6013 56.4454 55.5234 55.5233C56.4454 54.6013 57.696 54.0833 59 54.0833C60.304 54.0833 61.5546 54.6013 62.4766 55.5233C63.3987 56.4454 63.9167 57.6959 63.9167 58.9999C63.9167 60.3039 63.3987 61.5545 62.4766 62.4765C61.5546 63.3986 60.304 63.9166 59 63.9166ZM91.5729 39.3333C87.5068 38.4483 74.9792 31.5158 74.9792 19.052C74.9792 17.1171 75.588 15.2313 76.7193 13.6617C77.8506 12.0921 79.4471 10.9182 81.2827 10.3063C83.1182 9.69447 85.0998 9.67567 86.9467 10.2526C88.7935 10.8295 90.412 11.9729 91.5729 13.5208C92.7338 11.9729 94.3523 10.8295 96.1992 10.2526C98.046 9.67567 100.028 9.69447 101.863 10.3063C103.699 10.9182 105.295 12.0921 106.427 13.6617C107.558 15.2313 108.167 17.1171 108.167 19.052C108.167 31.5158 95.639 38.4483 91.5729 39.3333Z" stroke="black" style="stroke:black;stroke-opacity:1;"/>
</svg>
