<svg width="40" height="40" viewBox="0 0 40 40" fill="none" xmlns="http://www.w3.org/2000/svg">
<path d="M20.4968 23C17.6979 23 15.0657 21.8591 13.0843 19.7884C11.0997 17.7143 10.0064 14.9577 10 12.0198C9.99362 9.08513 11.0805 6.32194 13.0586 4.23801C15.04 2.15408 17.6754 1.0033 20.4808 1H20.5C23.3021 1 25.9343 2.14089 27.9157 4.21163C29.9003 6.28567 30.9936 9.04556 31 11.9802C31.0096 18.0441 26.3063 22.9835 20.516 22.9967H20.4968V23ZM20.5 1.99251H20.484C17.9383 1.9958 15.5466 3.04107 13.748 4.93375C11.9461 6.82974 10.9587 9.34562 10.9619 12.0198C10.9651 14.6939 11.9622 17.2065 13.7704 19.0959C15.569 20.9754 17.9576 22.0108 20.4968 22.0108H20.5128C25.774 22.0009 30.0478 17.5033 30.0382 11.9868C30.0349 9.30935 29.0379 6.79676 27.2328 4.90737C25.4342 3.02458 23.0424 1.98921 20.5 1.98921V1.99251Z" fill="white" stroke="white" style="fill:white;fill-opacity:1;stroke:white;stroke-opacity:1;" stroke-width="2"/>
<path d="M39 38H2V37.5113C2 29.5096 10.2984 23 20.5 23C30.7016 23 39 29.5096 39 37.5113V38ZM3.00295 37.0226H37.997C37.6627 29.7832 29.9436 23.9774 20.5 23.9774C11.0564 23.9774 3.33727 29.7865 3.00295 37.0226Z" fill="white" stroke="white" style="fill:white;fill-opacity:1;stroke:white;stroke-opacity:1;" stroke-width="2"/>
</svg>
