<svg width="35" height="35" viewBox="0 0 35 35" fill="none" xmlns="http://www.w3.org/2000/svg">
<g clip-path="url(#clip0_1670_558)">
<path fill-rule="evenodd" clip-rule="evenodd" d="M8.75002 10.2083C8.75002 8.27442 9.51825 6.41976 10.8857 5.05231C12.2532 3.68485 14.1078 2.91663 16.0417 2.91663C17.9756 2.91663 19.8302 3.68485 21.1977 5.05231C22.5651 6.41976 23.3334 8.27442 23.3334 10.2083C23.3334 12.1422 22.5651 13.9968 21.1977 15.3643C19.8302 16.7317 17.9756 17.5 16.0417 17.5C14.1078 17.5 12.2532 16.7317 10.8857 15.3643C9.51825 13.9968 8.75002 12.1422 8.75002 10.2083ZM16.0417 5.83329C15.4672 5.83329 14.8982 5.94646 14.3674 6.16632C13.8366 6.38618 13.3544 6.70844 12.9481 7.1147C12.5418 7.52096 12.2196 8.00325 11.9997 8.53405C11.7798 9.06485 11.6667 9.63376 11.6667 10.2083C11.6667 10.7828 11.7798 11.3517 11.9997 11.8825C12.2196 12.4133 12.5418 12.8956 12.9481 13.3019C13.3544 13.7081 13.8366 14.0304 14.3674 14.2503C14.8982 14.4701 15.4672 14.5833 16.0417 14.5833C17.202 14.5833 18.3148 14.1224 19.1353 13.3019C19.9558 12.4814 20.4167 11.3686 20.4167 10.2083C20.4167 9.04797 19.9558 7.93517 19.1353 7.1147C18.3148 6.29423 17.202 5.83329 16.0417 5.83329ZM6.43565 25.6681C5.9646 26.266 5.83335 26.7181 5.83335 26.9791C5.83335 27.1512 5.8844 27.3175 6.13231 27.5391C6.4196 27.7958 6.9344 28.0787 7.75106 28.331C9.3844 28.8356 11.7702 29.0908 14.614 29.152C14.8055 29.1561 14.9943 29.1978 15.1697 29.2748C15.3451 29.3518 15.5036 29.4626 15.6362 29.6008C15.7688 29.7391 15.8728 29.9021 15.9424 30.0806C16.012 30.2591 16.0457 30.4495 16.0417 30.641C16.0377 30.8325 15.996 31.0214 15.919 31.1967C15.842 31.3721 15.7312 31.5307 15.5929 31.6632C15.4546 31.7958 15.2916 31.8998 15.1131 31.9694C14.9347 32.039 14.7442 32.0727 14.5527 32.0687C11.6404 32.006 8.92356 31.7464 6.89065 31.1179C5.87565 30.8029 4.91606 30.3639 4.18981 29.715C3.42273 29.0295 2.91669 28.1079 2.91669 26.9791C2.91669 25.8314 3.43877 24.7581 4.14752 23.8598C4.86794 22.9483 5.86398 22.1098 7.0321 21.3952C9.36981 19.9718 12.549 18.9583 16.0417 18.9583C16.6936 18.9583 17.3352 18.9933 17.9609 19.0604C18.3455 19.1012 18.6982 19.2931 18.9413 19.594C19.1845 19.8948 19.2981 20.2799 19.2573 20.6645C19.2165 21.0492 19.0246 21.4019 18.7237 21.645C18.4229 21.8881 18.0378 22.0018 17.6531 21.961C17.1281 21.9041 16.5886 21.875 16.0417 21.875C13.0915 21.875 10.4373 22.7354 8.55169 23.886C7.60815 24.4606 6.89502 25.0848 6.43565 25.6681ZM30.9371 20.4662C30.5985 20.1276 30.1966 19.8589 29.7542 19.6756C29.3118 19.4924 28.8376 19.398 28.3588 19.398C27.8799 19.398 27.4057 19.4924 26.9633 19.6756C26.521 19.8589 26.119 20.1276 25.7804 20.4662L20.7959 25.4493C20.4612 25.7843 20.2442 26.2187 20.1775 26.6875L19.6963 30.0533C19.6641 30.2778 19.6846 30.5067 19.7563 30.7218C19.8279 30.937 19.9487 31.1325 20.109 31.2928C20.2694 31.4532 20.4649 31.574 20.68 31.6456C20.8952 31.7173 21.1241 31.7378 21.3486 31.7056L24.7144 31.2243C25.1831 31.1576 25.6176 30.9407 25.9525 30.606L30.9356 25.6214C31.6191 24.9377 32.0031 24.0106 32.0031 23.0438C32.0031 22.0771 31.6191 21.1499 30.9356 20.4662M27.8411 22.5283C27.9786 22.3955 28.1628 22.322 28.354 22.3236C28.5451 22.3253 28.728 22.402 28.8632 22.5372C28.9984 22.6724 29.0751 22.8553 29.0768 23.0464C29.0784 23.2376 29.0049 23.4218 28.8721 23.5593L24.0596 28.3718L22.8565 28.5439L23.0286 27.3408L27.8411 22.5283Z" fill="#444444"/>
</g>
<defs>
<clipPath id="clip0_1670_558">
<rect width="35" height="35" fill="white"/>
</clipPath>
</defs>
</svg>
