<svg width="35" height="35" viewBox="0 0 35 35" fill="none" xmlns="http://www.w3.org/2000/svg">
<path d="M17.5 20.4167V32.0834H5.83331C5.83331 28.9892 7.06248 26.0217 9.2504 23.8338C11.4383 21.6459 14.4058 20.4167 17.5 20.4167ZM17.5 18.9584C12.6656 18.9584 8.74998 15.0427 8.74998 10.2084C8.74998 5.374 12.6656 1.45837 17.5 1.45837C22.3344 1.45837 26.25 5.374 26.25 10.2084C26.25 15.0427 22.3344 18.9584 17.5 18.9584ZM21.2844 27.4328C21.0994 26.6551 21.0994 25.845 21.2844 25.0673L19.8377 24.2317L21.296 21.7059L22.7427 22.5415C23.3234 21.9916 24.0253 21.586 24.7916 21.3573V19.6875H27.7083V21.3573C28.4841 21.5877 29.1841 21.999 29.7573 22.5415L31.2039 21.7059L32.6623 24.2317L31.2171 25.0673C31.4016 25.845 31.4016 26.6551 31.2171 27.4328L32.6623 28.2684L31.2039 30.7942L29.7573 29.9586C29.1767 30.5086 28.4747 30.9142 27.7083 31.1427V32.8125H24.7916V31.1427C24.0252 30.9142 23.3233 30.5086 22.7427 29.9586L21.296 30.7942L19.8377 28.2684L21.2844 27.4328ZM26.25 24.7917C25.8632 24.7917 25.4923 24.9454 25.2188 25.2188C24.9453 25.4923 24.7916 25.8633 24.7916 26.25C24.7916 26.6368 24.9453 27.0077 25.2188 27.2812C25.4923 27.5547 25.8632 27.7084 26.25 27.7084C26.6368 27.7084 27.0077 27.5547 27.2812 27.2812C27.5547 27.0077 27.7083 26.6368 27.7083 26.25C27.7083 25.8633 27.5547 25.4923 27.2812 25.2188C27.0077 24.9454 26.6368 24.7917 26.25 24.7917Z" fill="white" style="fill:white;fill-opacity:1;"/>
</svg>
